<?xml version="1.0" standalone="no"?>
<!DOCTYPE svg PUBLIC "-//W3C//DTD SVG 1.1//EN" "http://www.w3.org/Graphics/SVG/1.1/DTD/svg11.dtd" >
<svg xmlns="http://www.w3.org/2000/svg" xmlns:xlink="http://www.w3.org/1999/xlink" version="1.1">
<metadata>
Created by FontForge 20181014 at Mon Sep 28 01:22:54 2009
 By convertio
(c) 1997-20002 Syriac Advanced Software. For free distribution. Created by Esho Marcus and Sargon Hasso with support provided by Paul Nelson and George Kiraz of Syriac Computing Institute. Source: SOURCE-NAME. Sponsor: SPONSOR-NAME.
</metadata>
<defs>
<font id="AA-MarcusNohadra" horiz-adv-x="1024" >
  <font-face 
    font-family="AA-Marcus Nohadra"
    font-weight="400"
    font-stretch="normal"
    units-per-em="2048"
    panose-1="0 0 4 0 0 0 0 0 0 0"
    ascent="1638"
    descent="-410"
    x-height="485"
    cap-height="716"
    bbox="-481 -749 1641 1560"
    underline-thickness="20"
    underline-position="-180"
    unicode-range="U+000D-2671"
  />
<missing-glyph 
d="M128 0v1400h768v-1400h-768zM256 128h512v1144h-512v-1144z" />
    <glyph glyph-name="U072aU0308Isol" unicode="&#x72a;&#x308;" horiz-adv-x="770" 
d="M541 767h-158v158h158v-158zM298 767h-158v158h158v-158zM664 162q0 -86 -35 -162h-489v158h368q4 15 4 34q0 30 -10 68q-14 54 -53 101q-64 79 -163 79q-52 0 -83 -22q-21 -15 -35 -42q-12 -22 -16 -22q-14 0 -14 49v170q56 35 142 35q178 0 284 -132q100 -125 100 -314
z" />
    <glyph glyph-name="U072aU0308Fina" unicode="&#x224;&#x308;" horiz-adv-x="726" 
d="M541 767h-158v158h158v-158zM298 767h-158v158h158v-158zM736 0h-35l-37 63l-14 -63h-510v158h352q0 2 3 75v4q0 57 -51 125q-59 80 -141 80q-6 0 -13 -1q-71 -5 -106 -46q-32 -38 -32 -41q-14 0 -14 49v170q56 35 142 35q384 0 384 -439v-11h72v-158z" />
    <glyph glyph-name="U0715U073c" unicode="&#x715;&#x742;" horiz-adv-x="748" 
d="M664 162q0 -86 -35 -162h-489v158h368q4 15 4 34q0 30 -10 68q-14 54 -53 101q-64 79 -163 79q-52 0 -83 -22q-21 -15 -35 -42q-12 -22 -16 -22q-14 0 -14 49v170q56 35 142 35q178 0 284 -132q100 -125 100 -314zM379 -298h-158v159h158v-159zM571 -246q0 -33 -14 -66
q-17 -42 -46 -42q-24 0 -40 41q-13 32 -13 61q0 34 14 68q18 44 47 44q22 0 38 -43q14 -36 14 -63z" />
    <glyph glyph-name="U0715FinaU073c" unicode="&#x1f3;&#x742;" horiz-adv-x="729" 
d="M736 0h-35l-37 63l-14 -63h-510v158h352q0 2 3 75v4q0 57 -51 125q-59 80 -141 80q-6 0 -13 -1q-71 -5 -106 -46q-32 -38 -32 -41q-14 0 -14 49v170q56 35 142 35q384 0 384 -439v-11h72v-158zM379 -298h-158v159h158v-159zM570 -234q0 -33 -14 -66q-17 -41 -45 -41
q-24 0 -41 40q-13 32 -13 61q0 34 14 68q18 44 47 44q22 0 39 -43q13 -36 13 -63z" />
    <glyph glyph-name=".notdef" 
d="M128 0v1400h768v-1400h-768zM256 128h512v1144h-512v-1144z" />
    <glyph glyph-name=".null" horiz-adv-x="0" 
 />
    <glyph glyph-name="nonmarkingreturn" unicode="&#xd;" horiz-adv-x="681" 
 />
    <glyph glyph-name="space" unicode=" " horiz-adv-x="681" 
 />
    <glyph glyph-name="exclam" unicode="!" horiz-adv-x="450" 
d="M233 190h-16l-60 402q0 9 -2 26t-2 26q0 34 17 60.5t55 26.5q72 0 72 -87q0 -16 -4 -52zM225 110q34 0 56 -19.5t22 -45.5t-24 -42.5t-54 -16.5q-29 0 -53.5 17.5t-24.5 41.5q0 26 22.5 45.5t55.5 19.5z" />
    <glyph glyph-name="quotedbl" unicode="&#x22;" horiz-adv-x="551" 
d="M140 482l-46 212q0 16 18 31.5t42 15.5q23 0 40 -14t17 -33l-45 -212h-26zM383 482l-43 212q0 19 17 33t41 14q23 0 40 -14t17 -33l-43 -212h-29z" />
    <glyph glyph-name="numbersign" unicode="#" horiz-adv-x="676" 
d="M635 234h-147l-41 -234h-78l41 234h-180l-45 -234h-80l45 234h-144v60h156l29 144h-150v60h160l43 218h78l-41 -218h178l41 218h78l-39 -218h131v-60h-143l-27 -144h135v-60zM269 438l-29 -144h182l27 144h-180z" />
    <glyph glyph-name="dollar" unicode="$" horiz-adv-x="676" 
d="M59 195h21q33 -163 231 -165v306q-79 37 -124.5 61.5t-81.5 64t-36 88.5q0 78 71.5 121.5t170.5 44.5v70h45v-70q131 -2 217 -55v-120h-18q-12 62 -66 103t-133 44v-265q88 -38 137 -63.5t86 -67t37 -100.5q0 -86 -73.5 -136t-186.5 -56v-93h-45v93q-140 0 -252 56v139z
M311 688q-41 0 -90 -32.5t-49 -78.5q0 -24 12.5 -44t31 -34t55 -34.5t40.5 -23.5v247zM356 30q72 7 113 42t41 92q0 89 -154 153v-287z" />
    <glyph glyph-name="percent" unicode="%" horiz-adv-x="1126" 
d="M606 133q0 57 42 117t111 98.5t142 38.5q64 0 104 -36.5t40 -83.5q0 -81 -41 -145.5t-103.5 -100t-122.5 -35.5q-172 0 -172 147zM336 -14h-63l471 673l-2 2q-83 -28 -166 -28q-36 0 -66 8q0 -7 4 -27t4 -31q0 -69 -42.5 -132t-107.5 -101.5t-124 -38.5q-79 0 -120.5 39
t-41.5 109q0 57 41.5 118t110 100t141.5 39q60 0 109 -34q40 -25 106 -25q60 0 115 19.5t88 54.5h63zM764 242q-53 -87 -53 -148q0 -76 82 -76q59 0 108.5 40.5t78 98t28.5 104.5q0 35 -24.5 62.5t-67.5 27.5q-89 0 -152 -109zM484 600q0 9 -1.5 15t-4.5 17t-5 17
q-28 6 -55 21t-39 15q-27 0 -74.5 -35.5t-83.5 -94t-36 -125.5q0 -81 84 -81q62 5 111 44t76.5 96t27.5 111z" />
    <glyph glyph-name="ampersand" unicode="&#x26;" horiz-adv-x="1050" 
d="M960 461v-20q-40 -4 -65 -15t-40 -27.5t-38 -49.5q-41 -56 -152 -190q55 -47 101 -72t106 -25q71 0 121 58l21 -12q-40 -47 -66.5 -71.5t-59.5 -37.5t-77 -13q-113 0 -232 98q-130 -98 -282 -98q-114 0 -177 44t-63 126q0 56 41.5 105.5t100.5 85.5t120 61
q-47 103 -47 151q0 72 59 122t148 50q78 0 131 -34.5t53 -94.5q0 -115 -209 -188q89 -132 179 -222q45 44 83.5 100t38.5 95q0 26 -18.5 38.5t-67.5 15.5v20h291zM592 606q0 37 -31 64t-76 27q-106 0 -106 -103q0 -55 55 -144q64 25 111 66.5t47 89.5zM180 187
q0 -55 53.5 -100t122.5 -45q41 0 94 20t97 52q-84 80 -207 256q-78 -37 -119 -78.5t-41 -104.5z" />
    <glyph glyph-name="quotesingle" unicode="'" horiz-adv-x="243" 
d="M108 482l-45 212q0 19 17.5 33t40.5 14q24 0 41.5 -15t17.5 -32l-45 -212h-27z" />
    <glyph glyph-name="parenleft" unicode="(" horiz-adv-x="450" 
d="M395 -191q-330 177 -330 473q0 138 87 254t247 195l12 -17q-128 -71 -179.5 -177.5t-51.5 -244.5q0 -102 16.5 -180.5t67.5 -151.5t147 -134z" />
    <glyph glyph-name="parenright" unicode=")" horiz-adv-x="450" 
d="M39 -174q128 72 179 177t51 244q0 163 -46.5 277t-183.5 190l17 17q43 -16 121 -75.5t142 -164t64 -240.5q0 -138 -89.5 -254t-242.5 -188z" />
    <glyph glyph-name="asterisk" unicode="*" horiz-adv-x="676" 
d="M467 408q-11 24 -121 87q0 -76 29 -159q0 -47 -55 -47q-45 6 -45 45q0 20 14 35q7 7 12 20t8.5 27t9.5 43.5t7 35.5q-91 -44 -154 -105q-13 -12 -35 -12q-37 0 -47 27q-4 9 -4 17q0 20 23 32.5t53 12.5q31 0 152 41q-80 40 -187 58q-13 0 -24 12t-13 27q0 12 13 25
q17 16 39 16q21 0 40 -12t23 -24q6 -10 23 -23t45 -31t53 -34q0 89 -35 166q0 50 57 50q45 -7 45 -46q0 -23 -14 -35q-18 -19 -31 -135q85 30 158 97q12 11 37 11q34 0 45 -25q4 -10 4 -15q0 -21 -25.5 -34.5t-50.5 -13.5t-155 -36q89 -39 186 -52q12 -1 23.5 -13t13.5 -27
q0 -12 -12 -24q-18 -16 -41 -16q-19 0 -38 11t-26 23z" />
    <glyph glyph-name="plus" unicode="+" horiz-adv-x="762" 
d="M338 554h86v-237h297v-70h-297v-239h-86v239h-297v70h297v237z" />
    <glyph glyph-name="comma" unicode="," horiz-adv-x="338" 
d="M109 -133q33 13 71.5 49.5t38.5 62.5q0 16 -18 16q-7 0 -22 -1.5t-21 -1.5q-72 6 -72 53q0 65 80 65q55 0 81 -32t26 -75q0 -41 -50 -91t-102 -66z" />
    <glyph glyph-name="period" unicode="." horiz-adv-x="338" 
d="M248 46q0 -27 -23 -43.5t-57 -16.5q-31 0 -53.5 18t-22.5 42q0 25 22 44.5t54 19.5q33 0 56.5 -18t23.5 -46z" />
    <glyph glyph-name="slash" unicode="/" horiz-adv-x="375" 
d="M-16 -116l340 854h84l-340 -854h-84z" />
    <glyph glyph-name="zero" unicode="0" horiz-adv-x="702" 
d="M655 328q0 -85 -33 -164t-100 -128t-162 -49q-94 0 -161.5 49.5t-100.5 128t-33 163.5t33 163.5t100.5 128t161.5 49.5q95 0 162 -49.5t100 -128t33 -163.5zM360 639q-164 0 -164 -311q0 -302 164 -302t164 302q0 311 -164 311z" />
    <glyph glyph-name="one" unicode="1" horiz-adv-x="702" 
d="M176 456l-14 31q127 43 225 168h47v-632h86v-23h-290v23h86v500q-13 -8 -48 -26.5t-92 -40.5z" />
    <glyph glyph-name="two" unicode="2" horiz-adv-x="702" 
d="M112 433v180q18 14 77 35t165 21q115 0 185 -45.5t73 -131.5q0 -125 -207 -258q-70 -45 -150.5 -86.5t-92.5 -49.5h299q46 0 73 25q33 29 43 64h27v-187h-508v95q40 23 115 73t131 99q143 127 143 241q-3 66 -50 99.5t-114 33.5q-58 -2 -91 -28.5t-46.5 -57t-46.5 -122.5
h-25z" />
    <glyph glyph-name="three" unicode="3" horiz-adv-x="702" 
d="M125 210q25 -75 42.5 -110.5t55 -59t104.5 -25.5q72 0 124.5 38t54.5 134q0 70 -55.5 110.5t-127.5 40.5h-61v32h59q67 0 119.5 34t52.5 99q-2 138 -170 138q-44 -2 -73 -18.5t-47.5 -42.5t-35 -65t-34.5 -82h-19v180q19 14 79 35t167 21q116 0 183 -41.5t67 -127.5
q-2 -82 -86 -113.5t-139 -35.5q69 0 124 -20t87 -59.5t32 -94.5q-1 -99 -84 -144.5t-210 -45.5q-112 0 -232 55v168h23z" />
    <glyph glyph-name="four" unicode="4" horiz-adv-x="702" 
d="M332 0v23h81v175h-356v38l367 419h108v-427h92v-30h-92v-175h78v-23h-278zM413 228v367l-319 -367h319z" />
    <glyph glyph-name="five" unicode="5" horiz-adv-x="702" 
d="M112 305v350h459v-97h-418v-184q54 67 222 67q109 -5 176.5 -59t68.5 -159q0 -122 -78.5 -179.5t-207.5 -57.5q-89 0 -145.5 18.5t-76.5 31.5v170h21q34 -100 74 -145.5t122 -45.5q90 1 131.5 64t41.5 144q-2 75 -36.5 129t-107.5 62q-94 0 -153 -36t-72 -73h-21z" />
    <glyph glyph-name="six" unicode="6" horiz-adv-x="702" 
d="M559 472q-52 167 -176 167q-65 -3 -103.5 -59.5t-52.5 -121.5t-14 -100q18 30 69 48.5t111 18.5q50 0 82 -9q71 -16 114 -65t44 -121q0 -117 -72.5 -180t-189.5 -63q-291 4 -291 360q5 137 87 229.5t222 92.5q84 0 116 -11t75 -36v-150h-21zM217 200q0 -66 38 -122.5
t110 -57.5q49 0 81.5 27.5t47 69.5t14.5 83q0 76 -32 131.5t-113 55.5q-77 0 -111.5 -57t-34.5 -130z" />
    <glyph glyph-name="seven" unicode="7" horiz-adv-x="702" 
d="M100 485v170h512v-130q-27 -37 -76.5 -113.5t-76.5 -149.5q-39 -103 -39 -239h77v-23h-301v23h68q0 47 21 119.5t63 134.5q89 132 235 254v27h-450v-73h-33z" />
    <glyph glyph-name="eight" unicode="8" horiz-adv-x="702" 
d="M629 495q-2 -66 -41.5 -103t-124.5 -48q197 -22 197 -170q0 -100 -79.5 -145t-211.5 -45t-211.5 45t-79.5 145q0 148 197 170q-163 21 -166 151q0 79 66.5 126.5t193.5 47.5q126 0 193 -47.5t67 -126.5zM369 642q-75 0 -108 -41.5t-33 -97.5q0 -60 31.5 -102.5
t109.5 -42.5t109.5 42.5t31.5 102.5q0 56 -33.5 97.5t-107.5 41.5zM369 331q-84 0 -127.5 -44.5t-46.5 -104.5q0 -42 17 -80.5t56 -63t101 -24.5q90 0 132 50t42 118q-4 61 -46.5 105t-127.5 44z" />
    <glyph glyph-name="nine" unicode="9" horiz-adv-x="702" 
d="M152 181q24 -76 63.5 -121.5t112.5 -45.5q65 2 103.5 58.5t52.5 121.5t14 101q-18 -31 -69.5 -49t-110.5 -18q-50 0 -82 8q-71 17 -113.5 66t-44.5 121q0 78 34 132.5t94 82.5t134 28q105 -2 169.5 -47t93 -124t28.5 -190q-3 -87 -40 -161t-106.5 -117t-162.5 -43
q-43 0 -74.5 4t-51.5 11t-34.5 14.5t-30.5 16.5v151h21zM494 452q0 68 -38 123.5t-110 57.5q-72 0 -107.5 -56t-35.5 -125q0 -75 32 -130.5t113 -55.5q78 0 112 56.5t34 129.5z" />
    <glyph glyph-name="colon" unicode=":" horiz-adv-x="368" 
d="M181 456q-37 0 -58.5 19t-21.5 45t21 44.5t59 18.5q39 0 59.5 -18.5t20.5 -44.5t-21 -45t-59 -19zM190 66q-37 0 -58.5 19t-21.5 45q0 27 21 45.5t59 18.5q39 0 59.5 -18.5t20.5 -45.5q0 -26 -21 -45t-59 -19z" />
    <glyph glyph-name="semicolon" unicode=";" horiz-adv-x="377" 
d="M198 528q-37 0 -58 19t-21 45t20.5 44.5t58.5 18.5q39 0 59.5 -18.5t20.5 -44.5t-21 -45t-59 -19zM240 106q-3 -3 -13.5 -7.5t-31.5 -4.5q-8 0 -29 4t-35 21t-14 38t15 37q26 28 69 28q47 0 70 -24q29 -31 29 -88q0 -36 -13 -69q-20 -51 -74.5 -77.5t-87.5 -34.5l-12 18
q0 1 22.5 8t45.5 19t39 31q24 29 24 70q0 11 -1.5 19.5t-2.5 11.5z" />
    <glyph glyph-name="less" unicode="&#x3c;" horiz-adv-x="702" 
d="M604 86l-502 237l500 241v-90l-326 -151l328 -148v-89z" />
    <glyph glyph-name="equal" unicode="=" horiz-adv-x="821" 
d="M92 192v70h641v-70h-641zM733 398h-641v71h641v-71z" />
    <glyph glyph-name="greater" unicode="&#x3e;" horiz-adv-x="702" 
d="M110 175l328 148l-326 151v90l500 -241l-502 -237v89z" />
    <glyph glyph-name="question" unicode="?" horiz-adv-x="600" 
d="M391 342q-71 -76 -88 -164h-23q0 56 17 101.5t49 100.5t47.5 94t15.5 85q0 59 -38 100t-107 41q-44 0 -84.5 -21t-40.5 -60l13 -13l14 -14q20 -22 20 -40q0 -20 -16.5 -32t-44.5 -12q-32 0 -46 22t-14 50q0 46 33 80.5t85.5 52.5t109.5 18q73 0 128 -24.5t84 -63.5
t29 -82q0 -47 -26 -86t-76 -92zM368 46q0 -25 -23.5 -42.5t-51.5 -17.5q-30 0 -55 18t-25 42q0 25 24.5 44.5t55.5 19.5q28 0 51.5 -19t23.5 -45z" />
    <glyph glyph-name="at" unicode="@" horiz-adv-x="1245" 
d="M883 497l-109 -339q-6 -24 -6 -27q0 -20 25 -29q26 -10 49 -10q49 0 88 31q21 15 55.5 55t55.5 97q0 2 9 36t9 63q0 46 -14 78q-39 87 -122.5 152.5t-191.5 80.5q-16 1 -61 1q-61 0 -98 -4q-116 -18 -207 -67.5t-147.5 -119.5t-71.5 -148q-15 -87 -15 -108q0 -64 29 -133
q45 -112 155.5 -172t274.5 -60q107 0 170 16t156 55l24 -40l-159 -52l-136 -20h-98q-89 0 -185.5 31.5t-178 89t-125.5 128.5q-58 88 -58 193q0 35 10 72q16 46 68.5 119.5t122.5 121.5q150 102 330 133q40 9 123 9q55 0 73 -4q157 -27 238 -90q26 -18 68.5 -67t60.5 -100
q14 -34 14 -102q0 -48 -8 -78q-20 -77 -104 -169q-32 -35 -77 -54.5t-126 -19.5q-15 2 -25.5 3t-21.5 5t-31 15q-14 9 -21.5 17t-14.5 21.5t-13 25.5q-9 -8 -25 -23t-41.5 -30.5t-56.5 -23.5q-38 -11 -70 -11q-19 0 -47 5q-112 20 -112 178q18 104 87.5 178t159.5 99
q25 6 60 6t61 -8q37 -13 68 -59l18 53h115zM439 162q0 -70 83 -70q35 4 70 26.5t49 42.5q20 25 50 97t30 120q-1 39 -14.5 56t-40.5 28q-12 4 -19 4q-36 0 -86 -33.5t-86 -90t-36 -124.5v-56z" />
    <glyph glyph-name="A" unicode="A" horiz-adv-x="977" 
d="M825 126q30 -52 55 -78t74 -26v-22h-344v22q52 0 73 8t21 28t-33 83l-49 93h-354q-4 -12 -26.5 -55t-34 -68.5t-11.5 -44.5q0 -44 93 -44v-22h-269v22q57 3 88.5 43.5t85.5 144.5l275 521h26zM293 278h311l-158 297z" />
    <glyph glyph-name="B" unicode="B" horiz-adv-x="901" 
d="M157 630q0 65 -131 65v21h363q371 0 371 -183q0 -122 -181 -156v-2q97 -14 161.5 -59.5t64.5 -118.5q0 -95 -94.5 -146t-258.5 -51h-426v22q131 0 131 65v543zM295 97q0 -31 20.5 -44.5t89.5 -13.5q116 0 180 36t64 125q0 153 -287 153h-67v-256zM405 397q104 0 160.5 34
t56.5 99q0 118 -159 140q-78 4 -95 4q-41 0 -57 -7t-16 -26v-244h110z" />
    <glyph glyph-name="C" unicode="C" horiz-adv-x="901" 
d="M844 487h-31q-30 93 -105 146t-188 53q-160 0 -239.5 -92t-79.5 -245q0 -80 35.5 -152.5t108.5 -118t177 -45.5q96 0 170.5 26.5t145.5 81.5l22 -21q-39 -39 -97 -70t-123.5 -47.5t-129.5 -16.5q-133 0 -238.5 44t-166 128t-60.5 200q0 105 59 190.5t164.5 134
t237.5 48.5q74 0 153 -19.5t91 -19.5q36 0 55 38h29z" />
    <glyph glyph-name="D" unicode="D" horiz-adv-x="977" 
d="M26 0v22q119 0 119 65v543q0 65 -119 65v21h349q174 0 299 -39t191.5 -120.5t66.5 -200.5q0 -111 -61 -190.5t-183 -122.5t-301 -43h-361zM284 97q0 -49 64 -52q213 0 324.5 81.5t111.5 227.5q0 104 -53 176t-149 108.5t-222 36.5q-50 0 -63 -8t-13 -46v-524z" />
    <glyph glyph-name="E" unicode="E" horiz-adv-x="825" 
d="M16 0v22q119 0 119 65v543q0 65 -119 65v21h717v-154h-29q-11 48 -49 79t-104 31h-219q-26 0 -43 -11t-17 -31v-233h191q78 0 123 22.5t45 82.5h28v-255h-28q0 59 -44.5 82.5t-123.5 23.5h-191v-266q0 -42 35 -42h180q71 0 116 7t89.5 37.5t77.5 94.5h37l-62 -184h-729z
" />
    <glyph glyph-name="F" unicode="F" horiz-adv-x="751" 
d="M16 0v22q119 0 119 65v543q0 65 -119 65v21h719v-154h-33q-9 72 -52 91t-140 19h-178q-60 0 -60 -42v-233h178q79 0 123.5 22.5t44.5 82.5h29v-255h-29q0 59 -44.5 82.5t-123.5 23.5h-178v-266q0 -65 123 -65v-22h-379z" />
    <glyph glyph-name="G" unicode="G" horiz-adv-x="977" 
d="M844 502h-31q-83 186 -299 186q-107 0 -180 -45t-107 -121.5t-34 -174.5q0 -133 90 -225t252 -92q89 0 151 23q29 12 34 20.5t5 32.5v161q0 54 -20 75.5t-99 21.5v22h347v-22q-61 0 -79 -22t-18 -75v-205q-63 -28 -162.5 -52t-177.5 -24q-120 0 -230 41t-179.5 125
t-69.5 204q0 105 59.5 191t165.5 135t238 49q65 0 148 -18t100 -18q40 0 57 36h29z" />
    <glyph glyph-name="H" unicode="H" horiz-adv-x="977" 
d="M694 389v241q0 65 -121 65v21h377v-21q-119 0 -119 -65v-543q0 -65 119 -65v-22h-377v22q121 0 121 65v257h-410v-257q0 -65 119 -65v-22h-377v22q119 0 119 65v543q0 65 -119 65v21h377v-21q-119 0 -119 -65v-241h410z" />
    <glyph glyph-name="I" unicode="I" horiz-adv-x="450" 
d="M295 87q0 -65 133 -65v-22h-404v22q133 0 133 65v543q0 65 -133 65v21h404v-21q-133 0 -133 -65v-543z" />
    <glyph glyph-name="J" unicode="J" horiz-adv-x="526" 
d="M375 215q0 -74 -29.5 -126t-80 -77.5t-114.5 -25.5q-42 0 -83.5 14t-49.5 48l-4 16q0 21 18 37t46 16t45.5 -12t17.5 -23q0 -23 11.5 -39.5t29.5 -16.5q27 0 41 30t14 67v507q0 65 -133 65v21h404v-21q-133 0 -133 -65v-415z" />
    <glyph glyph-name="K" unicode="K" horiz-adv-x="977" 
d="M286 87q0 -65 121 -65v-22h-381v22q123 0 123 65v543q0 65 -123 65v21h385v-21q-125 0 -125 -65v-255q58 42 137 98.5t143.5 110t64.5 75.5q0 23 -23.5 28.5t-69.5 7.5v21h355v-21q-66 0 -111 -22.5t-106 -70.5l-244 -194l213 -180l90 -80q54 -50 79.5 -72t62.5 -38
t81 -16v-22h-411v22q94 0 94 26q0 10 -8 21q-50 67 -181 170l-131 103l-35 -22v-233z" />
    <glyph glyph-name="L" unicode="L" horiz-adv-x="825" 
d="M16 0v22q119 0 119 65v543q0 65 -119 65v21h375v-21q-119 0 -119 -65v-543q0 -42 135 -42q113 0 175 7.5t110.5 38.5t81.5 98h35l-66 -189h-727z" />
    <glyph glyph-name="M" unicode="M" horiz-adv-x="1202" 
d="M1059 87q0 -65 118 -65v-22h-376v22q118 0 118 65v529l-346 -616h-18l-338 590v-503q0 -65 131 -65v-22h-322v22q131 0 131 65v543q0 65 -129 65v21h269l311 -546l299 546h268v-21q-118 0 -118 -65z" />
    <glyph glyph-name="N" unicode="N" horiz-adv-x="977" 
d="M827 -14h-20l-600 594v-493q0 -65 131 -65v-22h-322v22q131 0 131 65v549l-10 11q-36 31 -55 39.5t-66 8.5v21h232l520 -521v435q0 65 -131 65v21h321v-21q-131 0 -131 -65v-644z" />
    <glyph glyph-name="O" unicode="O" horiz-adv-x="977" 
d="M930 358q0 -79 -31 -146.5t-89 -118.5t-140.5 -79t-181.5 -28q-119 0 -221 46t-162 130.5t-60 195.5q0 105 55 190.5t155.5 134t232.5 48.5q122 0 223 -47t160 -132.5t59 -193.5zM199 358q0 -158 79.5 -245.5t209.5 -87.5q105 5 170 56t91.5 124t26.5 153q0 90 -29 165.5
t-94 122t-165 46.5q-289 -14 -289 -334z" />
    <glyph glyph-name="P" unicode="P" horiz-adv-x="751" 
d="M133 630q0 65 -111 65v21h340q165 0 268 -48.5t103 -139.5q0 -112 -98.5 -163.5t-245.5 -51.5q-60 0 -117 5v-231q0 -65 119 -65v-22h-377v22q119 0 119 65v543zM272 358q10 0 32 -2t34 -2q247 0 247 165q0 85 -71 120.5t-182 35.5q-42 0 -51 -7.5t-9 -41.5v-268z" />
    <glyph glyph-name="Q" unicode="Q" horiz-adv-x="977" 
d="M948 -191q-118 0 -212.5 11.5t-169 38.5t-130.5 71q-15 12 -39 34t-34 28q-20 14 -47 18q-84 18 -146 71.5t-93.5 127t-31.5 149.5q0 104 53.5 190t154.5 134.5t235 48.5q132 0 233 -49t155 -134.5t54 -189.5q0 -76 -29.5 -142t-81 -116t-116 -78t-129.5 -30
q77 -78 167.5 -120t206.5 -44v-19zM199 358q0 -158 78 -245.5t211 -87.5q69 0 123 24t90.5 68t55.5 105.5t19 135.5q0 159 -78 246.5t-210 87.5q-139 -2 -214 -87.5t-75 -246.5z" />
    <glyph glyph-name="R" unicode="R" horiz-adv-x="901" 
d="M131 630q0 65 -115 65v21h356q173 0 267 -48t94 -142q0 -80 -69.5 -124.5t-176.5 -55.5l268 -265q32 -30 59.5 -44t69.5 -15v-22h-219l-321 333l-76 -2v-244q0 -65 119 -65v-22h-371v22q115 0 115 65v543zM268 370q160 6 238.5 39t78.5 117q0 76 -59 112.5t-158 36.5
q-50 0 -68 -2.5t-25 -12.5t-7 -35v-255z" />
    <glyph glyph-name="S" unicode="S" horiz-adv-x="751" 
d="M57 218h31q33 -82 106 -137t174 -55q69 0 113.5 35.5t44.5 86.5q0 20 -6 39q-18 49 -66.5 78t-153 77t-154.5 93.5t-50 114.5q0 80 69 130.5t171 50.5q57 0 120.5 -18t73.5 -18q31 0 45 36h29l31 -229h-35q-15 50 -50 92.5t-85 67t-111 24.5q-64 0 -102.5 -26.5
t-38.5 -76.5q0 -68 143 -136q135 -65 185 -92t86 -68.5t36 -102.5q0 -80 -77 -139t-207 -59q-42 0 -75 6t-75.5 17t-60.5 11q-36 0 -41 -34h-29z" />
    <glyph glyph-name="T" unicode="T" horiz-adv-x="825" 
d="M600 0h-375v22q119 0 119 65v583h-98q-63 0 -95.5 -6.5t-57.5 -35.5t-40 -95h-31l8 183h764l9 -183h-33q-14 65 -39 94.5t-58 36t-96 6.5h-96v-583q0 -65 119 -65v-22z" />
    <glyph glyph-name="U" unicode="U" horiz-adv-x="977" 
d="M141 630q0 65 -119 65v21h375v-21q-119 0 -119 -65v-364q0 -85 23.5 -136t74.5 -74t136 -23q116 0 172 39t69 91t13 126v341q0 65 -127 65v21h313v-21q-127 0 -127 -65v-341q0 -71 -10.5 -119.5t-46.5 -88t-109 -67.5t-172 -28q-184 0 -265 69t-81 219v356z" />
    <glyph glyph-name="V" unicode="V" horiz-adv-x="977" 
d="M176 570q-32 60 -64.5 92.5t-85.5 32.5v21h361v-21q-62 0 -82.5 -9t-20.5 -31q0 -15 64 -127l197 -354l192 385q33 62 33 90q0 46 -101 46v21h279v-21q-76 0 -113 -77q-72 -139 -165.5 -329t-147.5 -303h-18z" />
    <glyph glyph-name="W" unicode="W" horiz-adv-x="1276" 
d="M205 454q-75 161 -105 200q-23 36 -88 41v21h332v-21h-21q-39 -5 -53 -11t-14 -34q0 -5 9.5 -26t10.5 -24l189 -395l145 305q-52 107 -70 136q-17 28 -42.5 38.5t-69.5 10.5v21h360v-21q-102 0 -102 -33q0 -10 6 -27t6 -19l203 -414l162 354q25 75 26 91q0 16 -6 23
q-17 21 -86 25v21h268v-21q-53 -3 -84 -29q-20 -25 -28 -48l-277 -632h-18l-217 460l-209 -460h-19z" />
    <glyph glyph-name="X" unicode="X" horiz-adv-x="977" 
d="M542 398l252 -286q48 -53 80.5 -71.5t79.5 -18.5v-22h-401v22q104 0 104 31q0 7 -8 22q-12 29 -72 95l-118 141l-150 -150q-56 -52 -74 -80q-6 -8 -6 -17q0 -18 27 -30t76 -12v-22h-316v22q52 0 95 31t112 101l201 199l-138 161q-90 108 -137.5 143.5t-115.5 37.5v21h407
v-21q-62 0 -82 -6.5t-20 -26.5q0 -39 125 -172l47 -52l141 139q1 1 22.5 21.5t32.5 35t11 27.5q0 34 -95 34v21h322v-21q-64 0 -113.5 -32t-99.5 -80z" />
    <glyph glyph-name="Y" unicode="Y" horiz-adv-x="977" 
d="M534 375l187 235q26 39 26 49q0 6 -4 16q-9 20 -90 20v21h297v-21q-61 -6 -105 -41.5t-92 -91.5l-190 -234v-241q0 -65 137 -65v-22h-411v22q137 0 137 65v231l-168 196q-34 41 -62.5 75.5t-52.5 57t-51 35t-62 13.5v21h377v-21q-96 0 -96 -29q0 -26 33 -61z" />
    <glyph glyph-name="Z" unicode="Z" horiz-adv-x="825" 
d="M10 0v14l592 661h-282q-75 0 -123.5 -10.5t-78 -41.5t-40.5 -92h-37l29 185h713v-13l-586 -662h330q113 0 167 31t82 118h31l-33 -190h-764z" />
    <glyph glyph-name="bracketleft" unicode="[" horiz-adv-x="450" 
d="M119 -169v885h285v-28h-105q-47 0 -62.5 -11.5t-15.5 -48.5v-700q0 -42 17 -55.5t65 -13.5h101v-28h-285z" />
    <glyph glyph-name="backslash" unicode="\" horiz-adv-x="375" 
d="M-14 738l502 -738h-96l-504 738h98z" />
    <glyph glyph-name="bracketright" unicode="]" horiz-adv-x="450" 
d="M332 -169h-287v28h95q60 2 75 14t15 60v669q0 51 -10 68.5t-54 17.5h-121v28h287v-885z" />
    <glyph glyph-name="asciicircum" unicode="^" horiz-adv-x="635" 
d="M18 277l254 439h90l254 -439h-98l-201 364l-201 -364h-98z" />
    <glyph glyph-name="underscore" unicode="_" horiz-adv-x="676" 
d="M39 -144v54h602v-54h-602z" />
    <glyph glyph-name="grave" unicode="`" horiz-adv-x="450" 
d="M327 549h-53l-194 98q-58 25 -58 47q0 39 41 39q19 0 43 -10.5t35 -24.5z" />
    <glyph glyph-name="a" unicode="a" horiz-adv-x="600" 
d="M498 84q0 -34 29 -34q27 0 71 25v-29q-19 -19 -52.5 -38t-57.5 -19q-95 0 -99 83q-112 -83 -196 -83q-60 0 -102 33.5t-42 80.5q0 46 33.5 80.5t84.5 57.5t108 40.5t108 32.5q0 90 -19 123t-79 33q-25 0 -52 -7.5t-36 -21.5q-4 -5 -4 -19q0 -7 1 -21.5t1 -23.5
q0 -19 -18.5 -33t-41.5 -14q-59 0 -59 44q0 23 14 40q54 81 213 81q111 0 153 -41t42 -143v-227zM383 286q-43 -13 -78 -23.5t-66 -25t-51 -38t-20 -58.5q0 -39 25 -63.5t71 -24.5q22 0 65.5 16t53.5 31v186z" />
    <glyph glyph-name="b" unicode="b" horiz-adv-x="676" 
d="M100 606q0 44 -14 54t-74 10v20q107 21 117 24l86 24v-330q27 42 78.5 64.5t113.5 22.5q73 0 126.5 -34t80.5 -87.5t27 -111.5q0 -109 -90 -191t-224 -82q-129 0 -211 50q-16 10 -16 35v532zM215 90q0 -24 8 -31t43 -21q38 -13 82 -13q92 0 133 56t41 134q0 83 -40.5 148
t-133.5 65q-133 0 -133 -94v-244z" />
    <glyph glyph-name="c" unicode="c" horiz-adv-x="600" 
d="M557 161q-48 -81 -111 -126.5t-159 -45.5q-71 0 -129.5 32.5t-91.5 88.5t-33 121q0 112 80 188t223 76q42 0 88 -12t79 -35.5t36 -57.5q0 -20 -19 -34t-43 -14q-23 0 -42 15t-19 33q0 33 -26 53.5t-78 20.5q-83 0 -129 -57t-46 -132q0 -81 57 -145t154 -64q106 0 191 104
z" />
    <glyph glyph-name="d" unicode="d" horiz-adv-x="676" 
d="M574 97q0 -19 18.5 -25t71.5 -6v-18q-107 -24 -205 -62v80q-27 -35 -74.5 -56t-97.5 -21q-80 0 -137 33.5t-86 88.5t-29 117q0 65 36 126.5t101 101t148 39.5q47 0 85 -14t54 -29v154q0 32 -5 44t-22 16t-61 4v20q105 21 117 24l86 24v-641zM459 325q0 62 -35.5 99.5
t-105.5 37.5q-54 0 -91.5 -28.5t-56 -75t-18.5 -97.5q0 -103 51.5 -161.5t136.5 -58.5q53 0 86 27t33 58v199z" />
    <glyph glyph-name="e" unicode="e" horiz-adv-x="600" 
d="M123 298q1 -89 57 -162.5t162 -73.5q63 0 116.5 33t88.5 82l22 -7q-34 -77 -109.5 -129t-173.5 -52q-112 0 -184 71.5t-72 170.5q0 77 34 137t96 93.5t145 33.5q107 0 170.5 -54.5t66.5 -142.5h-419zM405 333q-3 53 -35 89t-94 36q-127 0 -149 -125h278z" />
    <glyph glyph-name="f" unicode="f" horiz-adv-x="450" 
d="M254 87q0 -37 24.5 -53t100.5 -19v-15h-353v15q68 3 90.5 19t22.5 53v363h-111v35h111q0 63 10 103q18 66 77.5 108t141.5 42q112 0 150 -63q0 -20 -15 -34.5t-38 -14.5q-33 0 -44 10t-26.5 34t-34.5 32q-16 6 -31 6q-11 0 -24 -5q-33 -7 -42 -34.5t-9 -68.5v-115h164
v-35h-164v-363z" />
    <glyph glyph-name="g" unicode="g" horiz-adv-x="676" 
d="M635 418h-113q27 -43 27 -93q0 -51 -29 -87.5t-79 -56.5t-109 -20q-16 0 -38 2t-36 3q-20 -4 -49 -29t-29 -45q19 -23 121 -23q144 -5 193.5 -9t89 -29t39.5 -83q0 -57 -58.5 -98.5t-141.5 -62.5t-152 -21q-109 0 -171.5 36t-62.5 76q0 19 17 37t44.5 37t71.5 50
q-71 25 -71 56q0 47 120 117q-125 46 -125 145q0 79 68 127t168 48q49 0 114.5 -19.5t125.5 -19.5q41 0 65 3v-41zM344 187q101 0 101 108q0 56 -35.5 113.5t-97.5 57.5q-107 0 -107 -104q0 -64 33 -119.5t106 -55.5zM133 -97q0 -32 47.5 -54.5t143.5 -22.5q119 0 190.5 28
t71.5 74q0 36 -46.5 46t-135.5 12q-133 0 -205 12q-66 -60 -66 -95z" />
    <glyph glyph-name="h" unicode="h" horiz-adv-x="676" 
d="M98 606q0 43 -14 53.5t-72 10.5v20q12 3 52 10.5t63 13.5l86 24v-330q79 87 194 87q97 0 133.5 -43.5t36.5 -138.5v-226q0 -36 18.5 -52.5t65.5 -19.5v-15h-284v15q49 3 67.5 19.5t18.5 52.5v224q0 61 -19 94t-84 33q-50 0 -78.5 -15t-68.5 -49v-287q0 -36 18.5 -52.5
t65.5 -19.5v-15h-285v15q49 3 67.5 19.5t18.5 52.5v519z" />
    <glyph glyph-name="i" unicode="i" horiz-adv-x="375" 
d="M110 682q0 23 20.5 39.5t49.5 16.5q28 0 48 -16t20 -40q0 -23 -20 -38.5t-48 -15.5q-29 0 -49.5 15.5t-20.5 38.5zM133 349q0 47 -9 64.5t-36 17.5q-16 0 -58 -8v15l218 57v-408q0 -37 21 -53t81 -19v-15h-320v15q60 3 81.5 19t21.5 53v262z" />
    <glyph glyph-name="j" unicode="j" horiz-adv-x="375" 
d="M279 14q0 -248 -231 -248q-68 0 -105 29q-16 16 -16 33q0 30 27 38q14 7 28 7q26 0 41 -15q33 -40 72 -52q6 -4 18 -4q52 0 52 98v470q0 33 -10.5 44.5t-41.5 11.5q-8 0 -49 -3v15l215 57v-481zM150 682q0 24 19.5 40t48.5 16t49 -16t20 -40q0 -23 -20 -38.5t-49 -15.5
t-48.5 15.5t-19.5 38.5z" />
    <glyph glyph-name="k" unicode="k" horiz-adv-x="676" 
d="M103 628q0 28 -7.5 35t-35.5 7h-45v20q111 23 118 24l84 24v-452l170 119q37 25 47 39q0 14 -13.5 19.5t-53.5 5.5v16h274v-16q-63 0 -112 -20.5t-100 -57.5t-117 -86l194 -199q86 -88 170 -91v-15h-295v15q49 0 49 19q0 10 -10 22l-203 213v-182q0 -37 21.5 -53
t81.5 -19v-15h-318v15q59 3 80 19t21 53v541z" />
    <glyph glyph-name="l" unicode="l" horiz-adv-x="375" 
d="M131 606q0 48 -9.5 58.5t-48.5 10.5h-47v15q105 16 220 48v-651q0 -37 21 -53t83 -19v-15h-324v15q62 3 83.5 19t21.5 53v519z" />
    <glyph glyph-name="m" unicode="m" horiz-adv-x="1050" 
d="M102 349q0 44 -16 58.5t-68 14.5v17l199 56v-70q0 -11 6 -11q4 0 10.5 5t15 12.5t15.5 12.5q86 51 164 51q51 0 89 -25.5t50 -66.5q40 38 98 65t111 27q108 0 140 -55t32 -151v-202q0 -36 18.5 -52.5t65.5 -19.5v-15h-285v15q49 3 67.5 19.5t18.5 52.5v219
q0 79 -21 105.5t-85 26.5q-91 0 -146 -66v-285q0 -36 19 -52.5t67 -19.5v-15h-284v15q47 3 65.5 19.5t18.5 52.5v224q0 58 -17 92.5t-75 34.5q-45 0 -89 -18t-69 -46v-287q0 -36 18.5 -52.5t67.5 -19.5v-15h-285v15q48 3 66 19.5t18 52.5v262z" />
    <glyph glyph-name="n" unicode="n" horiz-adv-x="676" 
d="M98 351q0 52 -14 65.5t-72 13.5v14l201 51v-87q96 87 207 87q157 0 157 -173v-235q0 -36 18.5 -52.5t65.5 -19.5v-15h-284v15q49 3 67.5 19.5t18.5 52.5v233q0 57 -19.5 87.5t-83.5 30.5q-74 0 -147 -63v-288q0 -36 18.5 -52.5t65.5 -19.5v-15h-285v15q49 3 67.5 19.5
t18.5 52.5v264z" />
    <glyph glyph-name="o" unicode="o" horiz-adv-x="676" 
d="M635 258q0 -72 -37 -134t-106 -98.5t-160 -36.5q-126 0 -208.5 72.5t-82.5 174.5q0 73 34.5 132t100.5 93t156 34q89 0 157.5 -30t107 -84.5t38.5 -122.5zM510 206q0 96 -45 176t-149 80q-71 0 -110.5 -47t-39.5 -120q0 -121 49.5 -197t141.5 -76q74 0 113.5 54t39.5 130
z" />
    <glyph glyph-name="p" unicode="p" horiz-adv-x="676" 
d="M101 354q0 46 -15 61t-84 15v14l215 51v-65q9 0 35 17q63 48 162 48q107 0 164 -65.5t57 -167.5q0 -72 -37 -135t-104 -100.5t-152 -37.5q-69 0 -125 49v-185q0 -38 22.5 -53.5t88.5 -18.5v-15h-326v15q58 3 78.5 19t20.5 53v501zM217 110q0 -23 11.5 -35.5t40.5 -28.5
q40 -21 86 -21q48 0 85 25.5t57.5 69.5t20.5 100q0 86 -37.5 150t-132.5 64q-60 0 -106 -34q-18 -14 -21.5 -21.5t-3.5 -27.5v-241z" />
    <glyph glyph-name="q" unicode="q" horiz-adv-x="676" 
d="M459 66q-107 -77 -197 -77q-83 0 -134.5 35.5t-73 90t-21.5 116.5q0 70 38.5 130.5t108 97t158.5 36.5q86 0 150 -34l63 33q4 3 12 3q11 0 11 -22v-622q0 -37 21.5 -53t78.5 -19v-15h-326v15q65 3 88 19t23 53v213zM459 349q0 46 -10 69.5t-53 40.5q-30 10 -64 10
q-62 0 -103.5 -31t-60 -77t-18.5 -95q0 -93 44 -152.5t122 -59.5q69 0 123 33q20 15 20 64v198z" />
    <glyph glyph-name="r" unicode="r" horiz-adv-x="450" 
d="M107 323q0 60 -11.5 82.5t-42.5 22.5q-22 0 -47 -6v16l215 57v-97q28 37 69 67t85 30q76 0 76 -70q-6 -35 -55 -35q-16 0 -25.5 4.5t-23.5 14.5t-22 14.5t-20 4.5q-20 0 -52 -31t-32 -53v-257q0 -37 21.5 -53t81.5 -19v-15h-318v15q59 3 80 19t21 53v236z" />
    <glyph glyph-name="s" unicode="s" horiz-adv-x="526" 
d="M69 166h23q31 -151 176 -151q45 0 76 21t31 56q0 38 -36 61t-113 57.5t-117 67.5t-40 84q0 42 26 72t69 45.5t94 15.5q33 0 100 -20q12 -3 27 -3q14 0 22 13h19v-146h-23q-20 64 -52.5 97.5t-94.5 33.5q-41 0 -72 -19.5t-31 -50.5q0 -35 36.5 -59t117.5 -61t122.5 -68.5
t41.5 -77.5q0 -67 -58 -106t-145 -39q-20 0 -96 16q-33 9 -56 9q-22 0 -28 -16h-19v168z" />
    <glyph glyph-name="t" unicode="t" horiz-adv-x="375" 
d="M211 158q0 -112 59 -112q20 0 39 7q23 7 51 33l17 -12q-81 -85 -174 -85q-65 0 -86 33t-21 117v311h-41q-24 0 -29.5 2t-5.5 14q37 20 66.5 44t71 65.5t53.5 52.5v-143h133v-35h-133v-292z" />
    <glyph glyph-name="u" unicode="u" horiz-adv-x="676" 
d="M563 130q0 -46 14.5 -61t69.5 -15v-15q-47 -11 -191 -50v93l-28 -24q-76 -69 -172 -69q-79 0 -118.5 40.5t-39.5 112.5v248q0 50 -15.5 64.5t-70.5 14.5v16h201v-337q0 -95 100 -95q51 0 107 34q18 12 23 26t5 49v227q0 36 -6 52t-26.5 22t-65.5 6v16h213v-355z" />
    <glyph glyph-name="v" unicode="v" horiz-adv-x="676" 
d="M360 18q-15 -29 -24 -29q-10 0 -25 29l-211 392q-32 59 -86 59v16h264v-16q-61 0 -61 -31q0 -9 18 -51l131 -257l105 219q31 69 31 89q0 31 -58 31v16h189v-16q-19 0 -32.5 -8t-23 -20.5t-18 -29t-21.5 -41.5z" />
    <glyph glyph-name="w" unicode="w" horiz-adv-x="977" 
d="M671 -3q-5 -8 -10 -8q-6 0 -12 8l-145 292l-175 -292q-5 -8 -12 -8q-5 0 -10 8l-188 373q-21 43 -26.5 54t-14.5 22.5t-20 17t-30 5.5v16h244v-16q-32 0 -47.5 -7t-15.5 -29q0 -17 27 -74.5t48 -94.5l68 -138l121 210q-28 78 -49.5 105.5t-69.5 27.5v16h274v-16
q-79 0 -79 -33q0 -20 22 -66l115 -237l110 216q35 68 35 89q0 31 -59 31v16h166v-16q-16 -5 -28 -17t-18 -22.5t-16 -29.5z" />
    <glyph glyph-name="x" unicode="x" horiz-adv-x="676" 
d="M526 92q64 -77 121 -77v-15h-272v15q69 6 69 24q0 7 -6 14l-139 160l-99 -123q-36 -44 -36 -59q0 -16 55 -16v-15h-197v15q34 0 56 15.5t53 51.5l145 168l-117 142q-13 18 -28 36.5t-36 28.5t-62 12v16h280v-16q-57 0 -57 -28q0 -15 80 -115q8 9 33.5 35.5t42 48.5
t16.5 34q0 25 -56 25v16h213v-16q-65 0 -118 -59l-103 -116z" />
    <glyph glyph-name="y" unicode="y" horiz-adv-x="676" 
d="M522 425q4 9 4 14q0 26 -65 30v16h182v-16q-18 0 -39.5 -21.5t-30.5 -41.5l-198 -414q-33 -68 -58.5 -111t-71 -79t-106.5 -36t-90 34q-8 20 -8 28q0 12 6 22q14 24 63 24q10 0 21 -2t30.5 -8t30.5 -8q34 0 60 25.5t59 94.5q14 30 14 50l-229 396q-24 42 -76 47v16h279
v-16q-80 0 -80 -31q0 -12 14 -41l156 -274z" />
    <glyph glyph-name="z" unicode="z" horiz-adv-x="600" 
d="M76 485h471v-16l-367 -436h173q79 0 118 13q25 6 37 22.5t18.5 37.5t14.5 45l24 -5l-18 -146h-514v15l363 435h-170q-55 0 -82.5 -10.5t-35.5 -29t-11 -52.5h-25z" />
    <glyph glyph-name="braceleft" unicode="{" horiz-adv-x="1034" 
d="M636 293q0 -11 -24 -24l-19 -10l-19 -5v-46q0 -14 -9 -15l-13 6l-80 48l-9 3l-7 2q-8 0 -12 -6q0 -7 12 -17l65 -59l5 -9q0 -7 -21 -7l-46 5q0 -50 65 -126l38 -44l3 -3l4 -4l8 -8l6 -4l11 -11l17 -15q8 -7 10 -13q0 -7 -9 -8q-17 0 -76 43q-128 95 -169 193l-71 -11
q-16 0 -16 7q4 10 6 12l58 66q9 6 9 14t-9 10q-8 0 -22 -11l-67 -47q-9 -6 -19 -9q-13 0 -13 20v44q-14 1 -38 14.5t-24 24.5q0 18 62 42v49q0 13 13 13l7 -1l8 -6l75 -52l16 -5q7 0 11 9l-4 8l-59 67l-7 14q0 7 20 7l68 -8q36 89 138 169q86 67 104 67q13 0 13 -8l-33 -33
l-43 -40l-21 -28l-28 -39l-29 -52q-9 -26 -9 -36l48 2h4q10 0 11 -5q0 -7 -11 -17l-64 -59q-5 -5 -6 -9q0 -4 11 -7l12 3l78 47q12 7 19 7q8 0 9 -10v-47q9 0 19 -5l20 -10q23 -11 23 -27zM490 414l-66 -8q18 62 35 86v40q-18 -14 -46 -59t-31 -65l-65 12l45 -57l4 23h23
l19 27l2 -27h22v-20zM611 294q0 8 -25 19q-11 5 -36 8v45l-73 -44l43 -2v-16q16 0 30 -10l-14 -5l-16 -3v-16h-43l73 -46v43q61 9 61 27zM452 296q0 15 -16.5 27t-35.5 12q-18 0 -35 -12q-4 -2 -12 -12l-4 -15q0 -39 51 -39q52 0 52 39zM322 319l-75 47v-45q-12 0 -34 -10
q-26 -9 -28 -17q0 -4 26 -16l36 -11v-43l73 42l-42 3v16l-17 3q-6 1 -14 6l15 6l16 3v16h44zM433 224v-22h-23v-26l-20 26h-23v24l-49 -57l66 12q0 -19 29 -64q8 -14 26 -37l22 -23v40q-16 26 -37 85l64 -8z" />
    <glyph glyph-name="bar" unicode="|" horiz-adv-x="387" 
d="M235 959l-1 -1121q0 -44 -42 -44t-42 41v1127q0 43 42 43q43 0 43 -46z" />
    <glyph glyph-name="braceright" unicode="}" horiz-adv-x="718" 
d="M184 320l20 10q10 5 19 5v47q1 10 9 10q7 0 19 -7l78 -47l13 -3q10 3 10 7t-5 9l-64 59q-12 10 -12 17q2 5 12 5h3l48 -2q0 10 -8 36l-30 52l-27 39l-22 28l-43 40l-33 33q0 8 13 8q19 0 105 -67q101 -80 138 -169l68 8q20 0 20 -7l-8 -14l-59 -67l-4 -8q4 -9 12 -9l16 5
l74 52l8 6l8 1q12 0 12 -13v-49q62 -24 62 -42q0 -11 -24 -24.5t-38 -14.5v-44q0 -20 -12 -20q-11 3 -19 9l-67 47q-14 11 -23 11q-9 -2 -9 -10t9 -14l58 -66q2 -2 6 -12q0 -7 -16 -7l-71 11q-40 -98 -169 -193q-59 -43 -76 -43q-8 1 -8 8q1 6 10 13l16 15l11 11l7 4l7 8
l4 4l4 3l38 44q64 76 64 126l-45 -5q-22 0 -22 7l5 9l66 59q11 10 11 17q-4 6 -11 6l-8 -2l-8 -3l-80 -48l-14 -6q-9 1 -9 15v46l-19 5l-19 10q-24 13 -24 24q0 16 23 27zM366 366v20h21l3 27l19 -27h23l3 -23l46 57l-66 -12q-3 20 -31 65t-46 59v-40q18 -24 35 -86l-65 8z
M247 267v-43l73 46h-42v16l-17 3l-14 5q14 10 31 10v16l42 2l-73 44v-45q-25 -3 -35 -8q-25 -11 -25 -19q0 -18 60 -27zM397 257q51 0 51 39l-4 15q-7 10 -11 12q-18 12 -36 12q-19 0 -35 -12t-16 -27q0 -39 51 -39zM520 319v-16l15 -3l15 -6q-7 -5 -14 -6l-16 -3v-16
l-43 -3l73 -42v43l37 11q25 12 25 16q-1 8 -28 17q-21 10 -34 10v45l-74 -47h44zM309 174l64 8q-21 -59 -36 -85v-40l21 23q18 23 27 37q29 45 29 64l66 -12l-50 57v-24h-22l-21 -26v26h-22v22z" />
    <glyph glyph-name="asciitilde" unicode="~" horiz-adv-x="1156" 
d="M1006 679q0 -41 -95 -99t-152 -58q-81 0 -198.5 88t-163.5 88q-54 0 -121.5 -60t-85.5 -60q-40 0 -40 32q0 12 26 39q115 116 219 116q82 0 199 -87.5t159 -87.5q61 0 127 60.5t86 60.5q40 0 40 -32z" />
    <glyph glyph-name="nonbreakingspace" unicode="&#xa0;" 
d="M546 1138l334 -571l-334 -567h-89l-313 567l313 571h89zM502 1060l-272 -493l272 -492l288 492z" />
    <glyph glyph-name="exclamdown" unicode="&#xa1;" horiz-adv-x="547" 
d="M397 778q0 -44 -30 -74.5t-74 -30.5h-39q-43 0 -73.5 30.5t-30.5 73.5q0 44 30 74t74 30h39q43 0 73.5 -30t30.5 -73zM355 -306v-3q0 -32 -22 -54q-24 -23 -59 -23q-82 0 -82 82q0 -2 2 33l37 645q3 58 42 58q40 0 43 -58z" />
    <glyph glyph-name="cent" unicode="&#xa2;" horiz-adv-x="1038" 
d="M886 404q0 -54 -130 -101q-104 -38 -179 -42v-207q0 -56 -42 -56t-42 56v207q-148 18 -245.5 126t-97.5 257q0 155 97 257q89 93 246 127v250q0 56 42 56t42 -56v-247q128 -4 218 -75q10 34 41 34q43 0 43 -51v-127q0 -57 -42 -57q-25 0 -44 53q-24 68 -66 99
q-61 43 -170 43q-139 0 -229 -82q-94 -86 -94 -223q0 -133 90 -218.5t224 -85.5q93 0 201 52q98 48 98 52h-1q40 0 40 -41z" />
    <glyph glyph-name="sterling" unicode="&#xa3;" horiz-adv-x="1198" 
d="M1050 196q0 -77 -48 -134q-51 -60 -127 -60h-669q-56 0 -56 42q0 28 45 41q59 18 81 40q52 53 83 154q28 89 28 174q0 67 -12 116h-169q-56 0 -56 42t56 42h148q-57 177 -57 253q0 122 86 210t208 88q105 0 187 -67t82 -107q0 -39 -42 -39q-6 0 -75 64t-149 64
q-88 0 -150 -62.5t-62 -150.5q0 -46 58 -253h205q56 0 56 -42t-56 -42h-186q10 -62 10 -121q0 -212 -118 -362h519q53 0 75 40q2 5 22 75q11 40 40 40q43 0 43 -45z" />
    <glyph glyph-name="currency" unicode="&#xa4;" horiz-adv-x="1105" 
d="M966 241q0 -42 -43 -42q-21 0 -82 61l-72 76q-96 -72 -211 -72t-210 72q-36 -38 -73 -77q-60 -60 -82 -60q-43 0 -43 43q0 22 61 82q39 36 77 72q-74 97 -74 212t72 211l-76 72q-60 60 -60 82q0 42 43 42q21 0 81 -60l72 -76q91 73 213 73q120 0 211 -73l72 76
q60 60 82 60q42 0 42 -43q0 -22 -60 -82q-38 -35 -76 -71q72 -95 72 -210q0 -119 -73 -213l76 -72q61 -61 61 -83zM818 608q0 109 -75.5 184.5t-184.5 75.5q-108 0 -183.5 -76t-75.5 -184t75.5 -183.5t183.5 -75.5t184 75.5t76 183.5z" />
    <glyph glyph-name="yen" unicode="&#xa5;" horiz-adv-x="1371" 
d="M1221 1128q0 -43 -56 -43h-71l-361 -555h53q53 0 53 -43q0 -42 -53 -42h-55v-115h55q53 0 53 -43q0 -42 -53 -42h-55v-162h71q56 0 56 -43q0 -42 -56 -42h-227q-56 0 -56 42q0 43 56 43h71v163h-73q-53 0 -53 43q0 42 53 42h73v115h-73q-53 0 -53 43q0 42 53 42h71
l-367 554h-71q-56 0 -56 43q0 42 56 42h246q56 0 56 -42q0 -43 -56 -43h-71l308 -473l301 473h-71q-56 0 -56 43q0 42 56 42h246q56 0 56 -42z" />
    <glyph glyph-name="brokenbar" unicode="&#xa6;" horiz-adv-x="384" 
d="M235 1135l-1 -376v-72q-7 -45 -42 -45q-42 0 -42 80v450q0 80 42 80q35 0 42 -45q1 -5 1 -72zM235 239l-1 -385v-71q-7 -45 -42 -45q-42 0 -42 79v450q0 80 42 80q35 0 42 -41q1 -7 1 -67z" />
    <glyph glyph-name="section" unicode="&#xa7;" horiz-adv-x="1229" 
d="M1085 384q0 -82 -75 -126q-62 -37 -149 -38q34 -53 34 -107q0 -107 -75 -175t-182 -68h-406v219q0 40 30 40q31 0 31 -40v-158h344q79 0 137 47q61 51 61 129q0 95 -179 210q-167 100 -334 199q-179 120 -179 227q0 80 77 124q61 35 149 40q-34 51 -34 99q0 101 73 175
t174 74h415v-217q0 -40 -29 -40q-31 0 -31 40v156h-350q-74 0 -133 -53.5t-59 -126.5q0 -95 179 -206q166 -96 332 -193q179 -118 179 -231zM1025 382q0 79 -153 182q-25 16 -213 122q-160 90 -242 163q-66 -9 -131 -18q-83 -21 -83 -92q0 -60 133 -156q70 -51 268 -168
q169 -100 210 -140q61 10 121 20q90 17 90 87z" />
    <glyph glyph-name="dieresis" unicode="&#xa8;" horiz-adv-x="892" 
d="M742 1143q0 -34 -24 -57.5t-58 -23.5t-57.5 23.5t-23.5 57.5t23.5 58t57.5 24t58 -24t24 -58zM313 1143q0 -34 -24 -57.5t-58 -23.5q-33 0 -57 24t-24 57q0 34 23.5 58t57.5 24t58 -24t24 -58z" />
    <glyph glyph-name="copyright" unicode="&#xa9;" horiz-adv-x="1523" 
d="M1373 589q0 -255 -178.5 -433t-433.5 -178t-433 178t-178 433t178 433.5t433 178.5q256 0 434 -178t178 -434zM1305 589q0 228 -158 386t-386 158q-227 0 -385.5 -158.5t-158.5 -385.5t158.5 -385t385.5 -158t385.5 158t158.5 385zM989 415q0 -11 -21 -35
q-83 -93 -196 -93q-122 0 -210 110q-59 74 -59 159v85q0 105 72.5 183t176.5 78t179 -71q0 58 21 58t21 -28v-117q0 -28 -21 -28q-8 0 -14 6q-1 0 -10 35q-9 32 -42 59q-58 44 -132 44q-90 0 -149.5 -67.5t-59.5 -157.5v-73q0 -93 66.5 -163t159.5 -70q73 0 136.5 52.5
t61.5 52.5q20 0 20 -19z" />
    <glyph glyph-name="ordfeminine" unicode="&#xaa;" horiz-adv-x="950" 
d="M804 783q0 -39 -50 -39h-141v60q-115 -80 -240 -80q-90 0 -151 40q-72 48 -72 133q0 101 104 154q82 41 193 41q70 0 166 -16v66q0 89 -154 89q-38 0 -110.5 -20t-94.5 -20q-39 0 -39 39q0 34 106 59q84 19 141 19q87 0 153 -38q79 -47 79 -128v-321h66q44 -6 44 -38z
M613 903l-1 95q-64 17 -157 17q-75 0 -138 -23q-86 -32 -86 -95q0 -96 139 -96q127 0 243 102z" />
    <glyph glyph-name="guillemotleft" unicode="&#xab;" horiz-adv-x="1229" 
d="M1102 43q0 -42 -42 -42q-19 0 -44 23l-448 410l448 410q26 24 44 24q42 0 42 -43q0 -16 -22 -41l-313 -350l313 -349q22 -25 22 -42zM633 43q0 -42 -42 -42q-19 0 -44 23l-448 410l448 410q26 24 44 24q42 0 42 -43q0 -15 -23 -41l-313 -350l313 -349q23 -26 23 -42z" />
    <glyph glyph-name="logicalnot" unicode="&#xac;" horiz-adv-x="1359" 
d="M1211 763v-507q0 -53 -42 -53q-43 0 -43 56v420h-920q-56 0 -56 42t53 42h1008z" />
    <glyph glyph-name="registered" unicode="&#xae;" horiz-adv-x="1523" 
d="M1373 582q0 -255 -178.5 -433t-433.5 -178t-433 178t-178 433t178 433.5t433 178.5q256 0 434 -178t178 -434zM1305 582q0 228 -158 386t-386 158q-227 0 -385.5 -158.5t-158.5 -385.5t158.5 -385t385.5 -158t385.5 158t158.5 385zM1055 321q0 -21 -26 -21h-71l-169 261
h-144v-219h36q28 0 28 -21t-28 -21h-113q-28 0 -28 21t28 21h35v501h-35q-28 0 -28 22q0 21 28 21l233 -1q71 0 126 -45q60 -47 60 -117q0 -102 -145 -151l150 -230h35q28 0 28 -21zM945 725q0 50 -49 86q-45 32 -96 32h-155v-240h115q63 0 118 29q67 35 67 93z" />
    <glyph glyph-name="degree" unicode="&#xb0;" horiz-adv-x="570" 
d="M422 1255q0 -56 -40 -94.5t-96 -38.5t-96 38.5t-40 94.5t40 95t96 39t96 -39t40 -95zM377 1255q0 37 -27 63t-64 26t-64 -26t-27 -63t27 -62.5t64 -25.5t64 25.5t27 62.5z" />
    <glyph glyph-name="plusminus" unicode="&#xb1;" horiz-adv-x="1229" 
d="M1085 718q0 -42 -56 -42h-372v-420q0 -56 -43 -56q-42 0 -42 56v420h-372q-56 0 -56 42t56 42h372v418q0 56 43 56q42 0 42 -56v-418h372q56 0 56 -42zM1085 42q0 -42 -78 -42h-785q-78 0 -78 42q0 36 45 42q4 1 72 1l707 -1h72q45 -6 45 -42z" />
    <glyph glyph-name="twosuperior" unicode="&#xb2;" horiz-adv-x="800" 
d="M592 529h-386v62q79 71 181 175q137 141 154 186q8 20 8 40q0 57 -45 97t-103 40q-120 0 -153 -110q-2 -6 -7 -15q-6 -5 -14 -5q-20 0 -20 19q0 24 26 65q56 88 167 88q75 0 133.5 -52t58.5 -126q0 -29 -10 -53q-20 -52 -153 -190q-105 -110 -182 -176v-3h303q0 44 21 44
q20 0 23 -37l-1 7q-1 0 -1 -56z" />
    <glyph glyph-name="threesuperior" unicode="&#xb3;" horiz-adv-x="800" 
d="M601 705q0 -84 -67 -139q-63 -52 -147 -52q-54 0 -112 23q-74 29 -74 59q0 20 20 20q0 -2 52 -30q57 -30 115 -30q65 0 116 40q55 43 55 107q0 67 -61 111q-56 40 -125 40q-28 0 -28 21t61 21q52 0 89 30q41 33 41 84q0 54 -44 88q-40 31 -95 31q-90 0 -138 -56
q-13 -14 -22 -14q-21 0 -21 19q0 20 44 51q60 42 137 42q74 0 126 -43q56 -46 56 -118q0 -94 -97 -140q119 -53 119 -165z" />
    <glyph glyph-name="acute" unicode="&#xb4;" horiz-adv-x="705" 
d="M492 1278q0 -19 -25 -41l-237 -204q-23 -20 -38 -20q-42 0 -42 43q0 19 25 41l236 204q23 20 39 20q42 0 42 -43z" />
    <glyph glyph-name="paragraph" unicode="&#xb6;" horiz-adv-x="1229" 
d="M1062 -112q0 -42 -56 -42h-483q-56 0 -56 42q0 43 56 43h71l3 633q-294 20 -402 196q-22 36 -25 95v-2q1 0 1 101q0 144 153 230q126 71 282 71l398 -1q17 -2 43 -12q13 -12 13 -30q0 -43 -56 -43h-71l2 -1238h71q56 0 56 -43zM597 627l-1 542q-122 -11 -201 -56
q-103 -59 -103 -164v-77q0 -107 103 -176q86 -59 202 -69zM852 1169h-176l2 -1238h173z" />
    <glyph glyph-name="periodcentered" unicode="&#xb7;" horiz-adv-x="717" 
d="M363 928q105 0 178 -73t73 -178t-73 -178t-178 -73t-178 73t-73 178t73 178t178 73z" />
    <glyph glyph-name="cedilla" unicode="&#xb8;" horiz-adv-x="605" 
d="M472 -220q0 -57 -45 -89q-40 -28 -99 -28q-44 0 -104 19q-74 23 -74 56q0 30 30 30q5 0 57 -22.5t91 -22.5q83 0 83 59q0 51 -117 51v153q0 40 30 40q31 0 33 -58q-1 25 -2 25t-1 -103q118 -17 118 -110z" />
    <glyph glyph-name="onesuperior" unicode="&#xb9;" horiz-adv-x="800" 
d="M490 556q0 -21 -28 -21h-113q-28 0 -28 21t28 21h35v536q-11 -3 -24 -12q-8 -5 -20 -5q-20 0 -20 21q0 15 21 23l85 31v-594h36q28 0 28 -21z" />
    <glyph glyph-name="ordmasculine" unicode="&#xba;" horiz-adv-x="912" 
d="M786 1017q0 -126 -97 -211q-93 -81 -221 -81q-127 0 -221 81q-97 85 -97 211t97 211q93 81 221 81t221 -81q97 -85 97 -211zM705 1017q0 94 -73 156q-69 59 -164 59t-164 -59q-73 -63 -73 -156t73 -156q69 -59 164 -59t164 59q73 63 73 156z" />
    <glyph glyph-name="guillemotright" unicode="&#xbb;" horiz-adv-x="1229" 
d="M1130 434l-448 -410q-25 -23 -44 -23q-42 0 -42 42q0 17 22 42l313 349l-313 350q-22 25 -22 42q0 42 42 42q18 0 44 -24zM661 434l-449 -410q-25 -23 -43 -23q-42 0 -42 42q0 17 22 42l313 349l-313 350q-22 25 -22 42q0 42 42 42q17 0 43 -24z" />
    <glyph glyph-name="onequarter" unicode="&#xbc;" horiz-adv-x="1280" 
d="M1013 1149q5 -8 5 -19q0 -15 -10 -34l-498 -968q-11 -23 -23 -30q-13 -8 -24 -8q-20 0 -33 24q-5 8 -5 19q0 15 10 34l498 968q11 23 23 30q13 8 24 8q20 0 33 -24zM513 556q0 -21 -28 -21h-113q-28 0 -28 21t28 21h35v536q-11 -3 -24 -12q-8 -5 -20 -5q-20 0 -20 21
q0 15 21 23l85 31v-594h36q28 0 28 -21zM1130 21q0 -21 -28 -21h-113q-28 0 -28 21q0 22 28 22h36l-1 133h-278v49l233 403h88v-410q63 0 63 -21t-63 -21v-133h35q28 0 28 -22zM1024 218v368h-22l-212 -368h234z" />
    <glyph glyph-name="onehalf" unicode="&#xbd;" horiz-adv-x="1280" 
d="M973 1149q5 -8 5 -19q0 -15 -10 -34l-498 -968q-11 -23 -23 -30q-13 -8 -24 -8q-20 0 -33 24q-5 8 -5 19q0 15 10 34l498 968q11 23 23 30q13 8 24 8q20 0 33 -24zM513 556q0 -21 -28 -21h-113q-28 0 -28 21t28 21h35v536q-11 -3 -24 -12q-8 -5 -20 -5q-20 0 -20 21
q0 15 21 23l85 31v-594h36q28 0 28 -21zM1129 0h-386v62q79 71 181 176q137 140 154 185q8 20 8 40q0 58 -45 97.5t-103 39.5q-120 0 -153 -109q-2 -6 -7 -16q-6 -5 -14 -5q-20 0 -20 20q0 24 26 65q56 88 167 88q75 0 133.5 -52.5t58.5 -125.5q0 -29 -10 -54
q-20 -52 -153 -190q-105 -109 -182 -176v-3h303q0 45 21 45q20 0 23 -37l-1 7q-1 0 -1 -57z" />
    <glyph glyph-name="threequarters" unicode="&#xbe;" horiz-adv-x="1280" 
d="M1013 1149q5 -8 5 -19q0 -15 -10 -34l-498 -968q-11 -23 -23 -30q-13 -8 -24 -8q-20 0 -33 24q-5 8 -5 19q0 15 10 34l498 968q11 23 23 30q13 8 24 8q20 0 33 -24zM1130 21q0 -21 -28 -21h-113q-28 0 -28 21q0 22 28 22h36l-1 133h-278v49l233 403h88v-410q63 0 63 -21
t-63 -21v-133h35q28 0 28 -22zM601 705q0 -84 -67 -139q-63 -52 -147 -52q-54 0 -112 23q-74 29 -74 59q0 20 20 20q0 -2 52 -30q57 -30 115 -30q65 0 116 40q55 43 55 107q0 67 -61 111q-56 40 -125 40q-28 0 -28 21t61 21q52 0 89 30q41 33 41 84q0 54 -44 88
q-40 31 -95 31q-90 0 -138 -56q-13 -14 -22 -14q-21 0 -21 19q0 20 44 51q60 42 137 42q74 0 126 -43q56 -46 56 -118q0 -94 -97 -140q119 -53 119 -165zM1024 218v368h-22l-212 -368h234z" />
    <glyph glyph-name="questiondown" unicode="&#xbf;" horiz-adv-x="1029" 
d="M683 779q0 -44 -30 -74t-74 -30h-84q-43 0 -73.5 30t-30.5 73q0 44 30 74.5t74 30.5h84q43 0 73.5 -30.5t30.5 -73.5zM878 -295q-123 -55 -173 -71q-92 -30 -185 -30q-161 0 -264 96q-106 99 -106 258q0 127 115 214q63 48 228 118q0 87 -2 87v-2q6 57 45 57q42 0 42 -57
v-141q-148 -54 -216 -96q-128 -80 -128 -179q0 -120 88 -197q83 -74 205 -74q118 0 267 71v76q6 49 42 49q42 0 42 -57v-122z" />
    <glyph glyph-name="Agrave" unicode="&#xc0;" horiz-adv-x="1504" 
d="M790 1268q0 -43 -43 -43q-15 0 -38 20l-236 204q-25 22 -25 41q0 43 43 43q25 0 159 -120q125 -110 137 -129q3 -9 3 -16zM1356 45q0 -42 -56 -42h-226q-56 0 -56 42q0 43 56 43h71l-115 307h-552l-107 -307h61q56 0 56 -43q0 -42 -56 -42h-226q-56 0 -56 42q0 43 56 43
h71l406 1087l140 -1l406 -1086h71q56 0 56 -43zM998 479l-232 611h-31l-225 -611h488z" />
    <glyph glyph-name="Aacute" unicode="&#xc1;" horiz-adv-x="1504" 
d="M1050 1490q0 -19 -25 -41l-236 -204q-23 -20 -38 -20q-43 0 -43 43q0 7 3 16q12 19 137 129q134 120 159 120q43 0 43 -43zM1356 45q0 -42 -56 -42h-226q-56 0 -56 42q0 43 56 43h71l-115 307h-552l-107 -307h61q56 0 56 -43q0 -42 -56 -42h-226q-56 0 -56 42q0 43 56 43
h71l406 1087l140 -1l406 -1086h71q56 0 56 -43zM998 479l-232 611h-31l-225 -611h488z" />
    <glyph glyph-name="Acircumflex" unicode="&#xc2;" horiz-adv-x="1504" 
d="M1041 1266q0 -42 -43 -42q-21 0 -132 87q-62 49 -124 99q-62 -50 -123 -100q-111 -86 -133 -86q-42 0 -42 42q0 21 28 42l270 206l271 -206q28 -21 28 -42zM1356 45q0 -42 -56 -42h-226q-56 0 -56 42q0 43 56 43h71l-115 307h-552l-107 -307h61q56 0 56 -43
q0 -42 -56 -42h-226q-56 0 -56 42q0 43 56 43h71l406 1087l140 -1l406 -1086h71q56 0 56 -43zM998 479l-232 611h-31l-225 -611h488z" />
    <glyph glyph-name="Atilde" unicode="&#xc3;" horiz-adv-x="1504" 
d="M1070 1351q0 -40 -74 -85q-68 -42 -113 -42q-56 0 -146 61t-117 61q-34 0 -82.5 -40.5t-64.5 -40.5q-41 0 -41 40q0 38 74 83q69 42 113 42q54 0 143.5 -60.5t120.5 -60.5q30 0 80.5 40.5t64.5 40.5q42 0 42 -39zM1356 45q0 -42 -56 -42h-226q-56 0 -56 42q0 43 56 43h71
l-115 307h-552l-107 -307h61q56 0 56 -43q0 -42 -56 -42h-226q-56 0 -56 42q0 43 56 43h71l406 1087l140 -1l406 -1086h71q56 0 56 -43zM998 479l-232 611h-31l-225 -611h488z" />
    <glyph glyph-name="Adieresis" unicode="&#xc4;" horiz-adv-x="1504" 
d="M980 1301q0 -32 -22.5 -54.5t-54.5 -22.5t-54.5 22.5t-22.5 54.5t22.5 54.5t54.5 22.5t54.5 -23t22.5 -54zM680 1301q0 -32 -22.5 -54.5t-54.5 -22.5t-54.5 22.5t-22.5 54.5t22.5 54.5t54.5 22.5t54.5 -23t22.5 -54zM1356 45q0 -42 -56 -42h-226q-56 0 -56 42q0 43 56 43
h71l-115 307h-552l-107 -307h61q56 0 56 -43q0 -42 -56 -42h-226q-56 0 -56 42q0 43 56 43h71l406 1087l140 -1l406 -1086h71q56 0 56 -43zM998 479l-232 611h-31l-225 -611h488z" />
    <glyph glyph-name="Aring" unicode="&#xc5;" horiz-adv-x="1504" 
d="M889 1359q0 -56 -40 -95t-96 -39t-96 39t-40 95q0 55 40 94t96 39t96 -39t40 -94zM1356 45q0 -42 -56 -42h-226q-56 0 -56 42q0 43 56 43h71l-115 307h-552l-107 -307h61q56 0 56 -43q0 -42 -56 -42h-226q-56 0 -56 42q0 43 56 43h71l406 1087l140 -1l406 -1086h71
q56 0 56 -43zM844 1359q0 37 -27 62.5t-64 25.5t-64 -25.5t-27 -62.5t27 -63t64 -26t64 25.5t27 63.5zM998 479l-232 611h-31l-225 -611h488z" />
    <glyph glyph-name="AE" unicode="&#xc6;" horiz-adv-x="1620" 
d="M1470 -1l-805 -1q-17 2 -43 12q-13 12 -13 30q0 43 56 43h71v308h-258l-107 -307h61q56 0 56 -43q0 -42 -56 -42h-226q-56 0 -56 42q0 43 56 43h71l369 1003q-37 6 -37 41q0 42 56 42l761 -1v-155q0 -56 -42 -56q-43 0 -43 54v2l1 71h-522v-437h251v71q0 56 43 56
q42 0 42 -56v-226q0 -56 -42 -56q-43 0 -43 56v71h-251v-481h566l-1 71v2q0 54 43 54q42 0 42 -56v-155zM736 475v607l-226 -607h226z" />
    <glyph glyph-name="Ccedilla" unicode="&#xc7;" horiz-adv-x="1229" 
d="M1123 220q0 -22 -43 -70q-154 -173 -367 -184q0 -19 -2 -46t-2 -28q118 -17 118 -110q0 -57 -45 -89q-40 -28 -99 -28q-44 0 -104 19q-74 23 -74 56q0 30 30 30q5 0 57 -22.5t91 -22.5q83 0 83 59q0 51 -117 51v131q-217 14 -380 219q-119 148 -119 317v171
q0 211 145 366.5t354 155.5q208 0 358 -142v71q7 44 42 44q42 0 42 -56v-233q0 -57 -42 -57q-17 0 -28 12q-2 1 -20 71q-17 65 -85 117q-116 89 -264 89q-178 0 -300 -137q-118 -133 -118 -313v-147q0 -186 133 -324q134 -141 319 -141q108 0 202 54q59 34 127 102
q55 54 68 54q40 0 40 -39z" />
    <glyph glyph-name="Egrave" unicode="&#xc8;" horiz-adv-x="1241" 
d="M671 1265q0 -43 -43 -43q-15 0 -38 20l-236 204q-25 22 -25 41q0 43 43 43q25 0 159 -120q125 -110 137 -129q3 -9 3 -16zM1091 0l-885 -1q-17 2 -43 12q-13 12 -13 30q0 43 56 43h71v1002h-71q-56 0 -56 43q0 42 56 42l841 -1v-155q0 -56 -42 -56q-43 0 -43 54v2l1 71
h-602v-437h301v71q0 56 43 56q42 0 42 -56v-226q0 -56 -42 -56q-43 0 -43 56v71h-301v-481h646l-1 71v2q0 54 43 54q42 0 42 -56v-155z" />
    <glyph glyph-name="Eacute" unicode="&#xc9;" horiz-adv-x="1241" 
d="M921 1487q0 -19 -25 -41l-236 -204q-23 -20 -38 -20q-43 0 -43 43q0 7 3 16q12 19 137 129q134 120 159 120q43 0 43 -43zM1091 0l-885 -1q-17 2 -43 12q-13 12 -13 30q0 43 56 43h71v1002h-71q-56 0 -56 43q0 42 56 42l841 -1v-155q0 -56 -42 -56q-43 0 -43 54v2l1 71
h-602v-437h301v71q0 56 43 56q42 0 42 -56v-226q0 -56 -42 -56q-43 0 -43 56v71h-301v-481h646l-1 71v2q0 54 43 54q42 0 42 -56v-155z" />
    <glyph glyph-name="Ecircumflex" unicode="&#xca;" horiz-adv-x="1241" 
d="M921 1262q0 -42 -43 -42q-21 0 -132 87q-62 49 -124 99q-62 -50 -123 -100q-111 -86 -133 -86q-42 0 -42 42q0 21 28 42l270 206l271 -206q28 -21 28 -42zM1091 0l-885 -1q-17 2 -43 12q-13 12 -13 30q0 43 56 43h71v1002h-71q-56 0 -56 43q0 42 56 42l841 -1v-155
q0 -56 -42 -56q-43 0 -43 54v2l1 71h-602v-437h301v71q0 56 43 56q42 0 42 -56v-226q0 -56 -42 -56q-43 0 -43 56v71h-301v-481h646l-1 71v2q0 54 43 54q42 0 42 -56v-155z" />
    <glyph glyph-name="Edieresis" unicode="&#xcb;" horiz-adv-x="1241" 
d="M862 1297q0 -32 -22.5 -54.5t-54.5 -22.5t-54.5 22.5t-22.5 54.5t22.5 54.5t54.5 22.5t54.5 -23t22.5 -54zM562 1297q0 -32 -22.5 -54.5t-54.5 -22.5t-54.5 22.5t-22.5 54.5t22.5 54.5t54.5 22.5t54.5 -23t22.5 -54zM1091 0l-885 -1q-17 2 -43 12q-13 12 -13 30
q0 43 56 43h71v1002h-71q-56 0 -56 43q0 42 56 42l841 -1v-155q0 -56 -42 -56q-43 0 -43 54v2l1 71h-602v-437h301v71q0 56 43 56q42 0 42 -56v-226q0 -56 -42 -56q-43 0 -43 56v71h-301v-481h646l-1 71v2q0 54 43 54q42 0 42 -56v-155z" />
    <glyph glyph-name="Igrave" unicode="&#xcc;" horiz-adv-x="638" 
d="M471 1265q0 -43 -43 -43q-15 0 -38 20l-236 204q-25 22 -25 41q0 43 43 43q25 0 159 -120q125 -110 137 -129q3 -9 3 -16zM488 41q0 -42 -56 -42h-226q-56 0 -56 42q0 43 56 43h71v1002h-71q-56 0 -56 43q0 42 56 42h226q56 0 56 -42q0 -43 -56 -43h-71v-1002h71
q56 0 56 -43z" />
    <glyph glyph-name="Iacute" unicode="&#xcd;" horiz-adv-x="638" 
d="M511 1487q0 -19 -25 -41l-236 -204q-23 -20 -38 -20q-43 0 -43 43q0 7 3 16q12 19 137 129q134 120 159 120q43 0 43 -43zM488 41q0 -42 -56 -42h-226q-56 0 -56 42q0 43 56 43h71v1002h-71q-56 0 -56 43q0 42 56 42h226q56 0 56 -42q0 -43 -56 -43h-71v-1002h71
q56 0 56 -43z" />
    <glyph glyph-name="Icircumflex" unicode="&#xce;" horiz-adv-x="638" 
d="M621 1262q0 -42 -43 -42q-21 0 -132 87q-62 49 -124 99q-62 -50 -123 -100q-111 -86 -133 -86q-42 0 -42 42q0 21 28 42l270 206l271 -206q28 -21 28 -42zM488 41q0 -42 -56 -42h-226q-56 0 -56 42q0 43 56 43h71v1002h-71q-56 0 -56 43q0 42 56 42h226q56 0 56 -42
q0 -43 -56 -43h-71v-1002h71q56 0 56 -43z" />
    <glyph glyph-name="Idieresis" unicode="&#xcf;" horiz-adv-x="638" 
d="M552 1297q0 -32 -22.5 -54.5t-54.5 -22.5t-54.5 22.5t-22.5 54.5t22.5 54.5t54.5 22.5t54.5 -23t22.5 -54zM252 1297q0 -32 -22.5 -54.5t-54.5 -22.5t-54.5 22.5t-22.5 54.5t22.5 54.5t54.5 22.5t54.5 -23t22.5 -54zM488 41q0 -42 -56 -42h-226q-56 0 -56 42q0 43 56 43
h71v1002h-71q-56 0 -56 43q0 42 56 42h226q56 0 56 -42q0 -43 -56 -43h-71v-1002h71q56 0 56 -43z" />
    <glyph glyph-name="Eth" unicode="&#xd0;" horiz-adv-x="1283" 
d="M1134 527q0 -207 -133 -363q-139 -164 -343 -164l-452 -1q-17 2 -43 12q-13 12 -13 30q0 43 56 43h71v459h-71q-56 0 -56 42t56 42h71v457h-71q-56 0 -56 43q0 42 56 42l452 1q316 0 447 -345q29 -76 29 -298zM1050 509v152q0 159 -111 289q-116 136 -273 136h-305v-459
h74q56 0 56 -42t-56 -42h-74v-459h305q155 0 272 136q112 131 112 289z" />
    <glyph glyph-name="Ntilde" unicode="&#xd1;" horiz-adv-x="1364" 
d="M990 1347q0 -40 -74 -85q-68 -42 -113 -42q-56 0 -146 61t-117 61q-34 0 -82.5 -40.5t-64.5 -40.5q-41 0 -41 40q0 38 74 83q69 42 113 42q54 0 143.5 -60.5t120.5 -60.5q30 0 80.5 40.5t64.5 40.5q42 0 42 -39zM1215 1129q0 -43 -56 -43h-71v-1086h-108l-619 1047v-963
h71q56 0 56 -43q0 -42 -56 -42h-226q-56 0 -56 42q0 43 56 43h71v1002h-71q-56 0 -56 43q0 42 56 42l178 -1l620 -1049v965h-71q-56 0 -56 43q0 42 56 42h226q56 0 56 -42z" />
    <glyph glyph-name="Ograve" unicode="&#xd2;" horiz-adv-x="1324" 
d="M701 1295q0 -43 -43 -43q-15 0 -38 20l-236 204q-25 22 -25 41q0 43 43 43q25 0 159 -120q125 -110 137 -129q3 -9 3 -16zM1174 584q0 -240 -133 -418q-147 -197 -379 -197t-379 197q-133 179 -133 418t133 418q147 197 379 197t378 -197q134 -179 134 -418zM1089 584
q0 202 -110 358q-123 173 -317 173t-317 -174q-111 -155 -111 -357q0 -201 111 -357q123 -174 317 -174t317 173q110 155 110 358z" />
    <glyph glyph-name="Oacute" unicode="&#xd3;" horiz-adv-x="1324" 
d="M961 1517q0 -19 -25 -41l-236 -204q-23 -20 -38 -20q-43 0 -43 43q0 7 3 16q12 19 137 129q134 120 159 120q43 0 43 -43zM1174 584q0 -240 -133 -418q-147 -197 -379 -197t-379 197q-133 179 -133 418t133 418q147 197 379 197t378 -197q134 -179 134 -418zM1089 584
q0 202 -110 358q-123 173 -317 173t-317 -174q-111 -155 -111 -357q0 -201 111 -357q123 -174 317 -174t317 173q110 155 110 358z" />
    <glyph glyph-name="Ocircumflex" unicode="&#xd4;" horiz-adv-x="1324" 
d="M951 1282q0 -42 -43 -42q-21 0 -132 87q-62 49 -124 99q-62 -50 -123 -100q-111 -86 -133 -86q-42 0 -42 42q0 21 28 42l270 206l271 -206q28 -21 28 -42zM1174 584q0 -240 -133 -418q-147 -197 -379 -197t-379 197q-133 179 -133 418t133 418q147 197 379 197t378 -197
q134 -179 134 -418zM1089 584q0 202 -110 358q-123 173 -317 173t-317 -174q-111 -155 -111 -357q0 -201 111 -357q123 -174 317 -174t317 173q110 155 110 358z" />
    <glyph glyph-name="Otilde" unicode="&#xd5;" horiz-adv-x="1324" 
d="M990 1367q0 -40 -74 -85q-68 -42 -113 -42q-56 0 -146 61t-117 61q-34 0 -82.5 -40.5t-64.5 -40.5q-41 0 -41 40q0 38 74 83q69 42 113 42q54 0 143.5 -60.5t120.5 -60.5q30 0 80.5 40.5t64.5 40.5q42 0 42 -39zM1174 584q0 -240 -133 -418q-147 -197 -379 -197t-379 197
q-133 179 -133 418t133 418q147 197 379 197t378 -197q134 -179 134 -418zM1089 584q0 202 -110 358q-123 173 -317 173t-317 -174q-111 -155 -111 -357q0 -201 111 -357q123 -174 317 -174t317 173q110 155 110 358z" />
    <glyph glyph-name="Odieresis" unicode="&#xd6;" horiz-adv-x="1324" 
d="M882 1317q0 -32 -22.5 -54.5t-54.5 -22.5t-54.5 22.5t-22.5 54.5t22.5 54.5t54.5 22.5t54.5 -23t22.5 -54zM582 1317q0 -32 -22.5 -54.5t-54.5 -22.5t-54.5 22.5t-22.5 54.5t22.5 54.5t54.5 22.5t54.5 -23t22.5 -54zM1174 584q0 -240 -133 -418q-147 -197 -379 -197
t-379 197q-133 179 -133 418t133 418q147 197 379 197t378 -197q134 -179 134 -418zM1089 584q0 202 -110 358q-123 173 -317 173t-317 -174q-111 -155 -111 -357q0 -201 111 -357q123 -174 317 -174t317 173q110 155 110 358z" />
    <glyph glyph-name="multiply" unicode="&#xd7;" horiz-adv-x="985" 
d="M840 282q0 -43 -43 -43q-16 0 -39 23l-263 263l-263 -263q-22 -22 -39 -22q-43 0 -43 43q0 16 23 39l262 263l-263 263q-22 22 -22 39q0 43 43 43q16 0 39 -23l263 -263l261 262q22 22 40 22q42 0 42 -43q0 -17 -22 -39l-261 -261l263 -263q22 -22 22 -40z" />
    <glyph glyph-name="Oslash" unicode="&#xd8;" horiz-adv-x="1324" 
d="M1195 1208q0 -14 -154 -210q133 -177 133 -417q0 -238 -134 -418q-147 -197 -378 -197q-184 0 -325 137l-78 -106q-65 -82 -90 -82q-43 0 -43 43q0 13 155 210q-131 181 -131 412q0 240 133 419q147 197 379 197q183 0 322 -134q39 53 78 107q65 82 91 82q42 0 42 -43z
M930 994q-121 118 -268 118q-194 0 -317 -174q-111 -156 -111 -357q0 -191 102 -343zM1089 581q0 196 -103 347l-596 -757q121 -121 272 -121q193 0 317 174q110 156 110 357z" />
    <glyph glyph-name="Ugrave" unicode="&#xd9;" horiz-adv-x="1360" 
d="M701 1295q0 -43 -43 -43q-15 0 -38 20l-236 204q-25 22 -25 41q0 43 43 43q25 0 159 -120q125 -110 137 -129q3 -9 3 -16zM1215 1130q0 -43 -56 -43h-71v-702q0 -174 -114 -294q-117 -123 -289 -123q-173 0 -290.5 121.5t-117.5 295.5v702h-71q-56 0 -56 43q0 42 56 42
h226q56 0 56 -42q0 -43 -56 -43h-71v-702q0 -136 92 -233q93 -100 228 -100t229 99t94 234v702h-71q-56 0 -56 43q0 42 56 42h226q56 0 56 -42z" />
    <glyph glyph-name="Uacute" unicode="&#xda;" horiz-adv-x="1360" 
d="M961 1517q0 -19 -25 -41l-236 -204q-23 -20 -38 -20q-43 0 -43 43q0 7 3 16q12 19 137 129q134 120 159 120q43 0 43 -43zM1215 1130q0 -43 -56 -43h-71v-702q0 -174 -114 -294q-117 -123 -289 -123q-173 0 -290.5 121.5t-117.5 295.5v702h-71q-56 0 -56 43q0 42 56 42
h226q56 0 56 -42q0 -43 -56 -43h-71v-702q0 -136 92 -233q93 -100 228 -100t229 99t94 234v702h-71q-56 0 -56 43q0 42 56 42h226q56 0 56 -42z" />
    <glyph glyph-name="Ucircumflex" unicode="&#xdb;" horiz-adv-x="1360" 
d="M951 1282q0 -42 -43 -42q-21 0 -132 87q-62 49 -124 99q-62 -50 -123 -100q-111 -86 -133 -86q-42 0 -42 42q0 21 28 42l270 206l271 -206q28 -21 28 -42zM1215 1130q0 -43 -56 -43h-71v-702q0 -174 -114 -294q-117 -123 -289 -123q-173 0 -290.5 121.5t-117.5 295.5v702
h-71q-56 0 -56 43q0 42 56 42h226q56 0 56 -42q0 -43 -56 -43h-71v-702q0 -136 92 -233q93 -100 228 -100t229 99t94 234v702h-71q-56 0 -56 43q0 42 56 42h226q56 0 56 -42z" />
    <glyph glyph-name="Udieresis" unicode="&#xdc;" horiz-adv-x="1360" 
d="M882 1317q0 -32 -22.5 -54.5t-54.5 -22.5t-54.5 22.5t-22.5 54.5t22.5 54.5t54.5 22.5t54.5 -23t22.5 -54zM582 1317q0 -32 -22.5 -54.5t-54.5 -22.5t-54.5 22.5t-22.5 54.5t22.5 54.5t54.5 22.5t54.5 -23t22.5 -54zM1215 1130q0 -43 -56 -43h-71v-702q0 -174 -114 -294
q-117 -123 -289 -123q-173 0 -290.5 121.5t-117.5 295.5v702h-71q-56 0 -56 43q0 42 56 42h226q56 0 56 -42q0 -43 -56 -43h-71v-702q0 -136 92 -233q93 -100 228 -100t229 99t94 234v702h-71q-56 0 -56 43q0 42 56 42h226q56 0 56 -42z" />
    <glyph glyph-name="Yacute" unicode="&#xdd;" horiz-adv-x="1371" 
d="M961 1517q0 -19 -25 -41l-236 -204q-23 -20 -38 -20q-43 0 -43 43q0 7 3 16q12 19 137 129q134 120 159 120q43 0 43 -43zM1221 1128q0 -43 -56 -43h-71l-363 -558v-444h71q56 0 56 -43q0 -42 -56 -42h-227q-56 0 -56 42q0 43 56 43h71v444l-369 558h-71q-56 0 -56 43
q0 42 56 42h246q56 0 56 -42q0 -43 -56 -43h-71l308 -473l301 473h-71q-56 0 -56 43q0 42 56 42h246q56 0 56 -42z" />
    <glyph glyph-name="Thorn" unicode="&#xde;" horiz-adv-x="1196" 
d="M1045 590q0 -237 -276 -329q-53 -18 -131 -23q-33 -2 -77 -2q-30 0 -65 1q-119 4 -134 4v-154h71q56 0 56 -43q0 -42 -56 -42h-227q-56 0 -56 42q0 43 56 43h72l-1 1002h-71q-56 0 -56 43q0 42 56 42h227q56 0 56 -42q0 -43 -56 -43h-71v-157h291q173 0 282.5 -102.5
t109.5 -239.5zM961 590q0 113 -96 188q-88 69 -204 69h-299v-521h268q123 0 221 69q110 77 110 195z" />
    <glyph glyph-name="germandbls" unicode="&#xdf;" horiz-adv-x="1201" 
d="M1051 335q0 -139 -65 -244q-77 -122 -209 -122q-98 0 -160 74q-58 69 -58 169q0 47 42 47q29 0 42 -53q19 -80 31 -100q31 -53 104 -53q91 0 144 99q44 82 44 182q0 153 -110 257.5t-264 104.5q-59 0 -59 43q0 17 13 30q65 17 131 34q115 43 115 154q0 89 -64.5 152
t-154.5 63q-82 0 -144 -48q-67 -52 -67 -132v-906h71q56 0 56 -43q0 -42 -56 -42h-227q-56 0 -56 42q0 43 56 43h71l1 906q0 115 91 192q87 73 204 73q127 0 215 -88t88 -215q0 -125 -120 -207q295 -124 295 -412z" />
    <glyph glyph-name="agrave" unicode="&#xe0;" horiz-adv-x="1146" 
d="M610 1052q0 -43 -43 -43q-15 0 -38 20l-236 204q-25 21 -25 41q0 43 43 43q24 0 159 -120q124 -111 137 -129q3 -9 3 -16zM997 42q0 -42 -56 -42h-147v109q-165 -139 -353 -139q-119 0 -199 58q-91 65 -91 180q0 141 136 215q109 60 261 60q108 0 246 -28v123
q0 81 -80 122q-62 32 -151 32q-57 0 -163.5 -30.5t-121.5 -30.5q-35 0 -35 38q0 14 9 25q17 20 147 48q121 27 168 27q116 0 203 -56q101 -64 101 -175l-1 -493h71q56 0 56 -43zM794 210v167q-103 30 -238 30q-117 0 -209 -42q-120 -54 -120 -157q0 -82 67 -125
q57 -37 144 -37q185 0 356 164z" />
    <glyph glyph-name="aacute" unicode="&#xe1;" horiz-adv-x="1146" 
d="M866 1274q0 -20 -25 -41l-236 -204q-24 -20 -38 -20q-43 0 -43 43q0 7 3 16q12 18 137 129q134 120 159 120q43 0 43 -43zM997 42q0 -42 -56 -42h-147v109q-165 -139 -353 -139q-119 0 -199 58q-91 65 -91 180q0 141 136 215q109 60 261 60q108 0 246 -28v123
q0 81 -80 122q-62 32 -151 32q-57 0 -163.5 -30.5t-121.5 -30.5q-35 0 -35 38q0 14 9 25q17 20 147 48q121 27 168 27q116 0 203 -56q101 -64 101 -175l-1 -493h71q56 0 56 -43zM794 210v167q-103 30 -238 30q-117 0 -209 -42q-120 -54 -120 -157q0 -82 67 -125
q57 -37 144 -37q185 0 356 164z" />
    <glyph glyph-name="acircumflex" unicode="&#xe2;" horiz-adv-x="1146" 
d="M860 1051q0 -42 -43 -42q-21 0 -132 86l-124 100l-124 -100q-110 -86 -132 -86q-42 0 -42 42q0 20 28 42l270 206l271 -206q28 -22 28 -42zM997 42q0 -42 -56 -42h-147v109q-165 -139 -353 -139q-119 0 -199 58q-91 65 -91 180q0 141 136 215q109 60 261 60
q108 0 246 -28v123q0 81 -80 122q-62 32 -151 32q-57 0 -163.5 -30.5t-121.5 -30.5q-35 0 -35 38q0 14 9 25q17 20 147 48q121 27 168 27q116 0 203 -56q101 -64 101 -175l-1 -493h71q56 0 56 -43zM794 210v167q-103 30 -238 30q-117 0 -209 -42q-120 -54 -120 -157
q0 -82 67 -125q57 -37 144 -37q185 0 356 164z" />
    <glyph glyph-name="atilde" unicode="&#xe3;" horiz-adv-x="1146" 
d="M864 1136q0 -41 -74 -86q-69 -41 -113 -41q-56 0 -146 61t-117 61q-34 0 -82.5 -40.5t-64.5 -40.5q-41 0 -41 40q0 38 74 83q69 42 113 42q54 0 143.5 -60.5t120.5 -60.5q29 0 80 40.5t65 40.5q42 0 42 -39zM997 42q0 -42 -56 -42h-147v109q-165 -139 -353 -139
q-119 0 -199 58q-91 65 -91 180q0 141 136 215q109 60 261 60q108 0 246 -28v123q0 81 -80 122q-62 32 -151 32q-57 0 -163.5 -30.5t-121.5 -30.5q-35 0 -35 38q0 14 9 25q17 20 147 48q121 27 168 27q116 0 203 -56q101 -64 101 -175l-1 -493h71q56 0 56 -43zM794 210v167
q-103 30 -238 30q-117 0 -209 -42q-120 -54 -120 -157q0 -82 67 -125q57 -37 144 -37q185 0 356 164z" />
    <glyph glyph-name="adieresis" unicode="&#xe4;" horiz-adv-x="1146" 
d="M791 1083q0 -31 -22.5 -53.5t-54.5 -22.5t-54.5 22t-22.5 54t22.5 54.5t54.5 22.5t54.5 -22.5t22.5 -54.5zM491 1083q0 -31 -22.5 -53.5t-54.5 -22.5t-54.5 22t-22.5 54t22.5 54.5t54.5 22.5t54.5 -22.5t22.5 -54.5zM997 42q0 -42 -56 -42h-147v109q-165 -139 -353 -139
q-119 0 -199 58q-91 65 -91 180q0 141 136 215q109 60 261 60q108 0 246 -28v123q0 81 -80 122q-62 32 -151 32q-57 0 -163.5 -30.5t-121.5 -30.5q-35 0 -35 38q0 14 9 25q17 20 147 48q121 27 168 27q116 0 203 -56q101 -64 101 -175l-1 -493h71q56 0 56 -43zM794 210v167
q-103 30 -238 30q-117 0 -209 -42q-120 -54 -120 -157q0 -82 67 -125q57 -37 144 -37q185 0 356 164z" />
    <glyph glyph-name="aring" unicode="&#xe5;" horiz-adv-x="1146" 
d="M702 1142q0 -56 -40 -94.5t-95 -38.5q-56 0 -96 38.5t-40 94.5t40 95t96 39q55 0 95 -39t40 -95zM997 42q0 -42 -56 -42h-147v109q-165 -139 -353 -139q-119 0 -199 58q-91 65 -91 180q0 141 136 215q109 60 261 60q108 0 246 -28v123q0 81 -80 122q-62 32 -151 32
q-57 0 -163.5 -30.5t-121.5 -30.5q-35 0 -35 38q0 14 9 25q17 20 147 48q121 27 168 27q116 0 203 -56q101 -64 101 -175l-1 -493h71q56 0 56 -43zM657 1142q0 37 -26.5 63t-63.5 26q-38 0 -64.5 -26t-26.5 -63t27 -62.5t64 -25.5t63.5 25.5t26.5 62.5zM794 210v167
q-103 30 -238 30q-117 0 -209 -42q-120 -54 -120 -157q0 -82 67 -125q57 -37 144 -37q185 0 356 164z" />
    <glyph glyph-name="ae" unicode="&#xe6;" horiz-adv-x="1784" 
d="M1641 125q0 -55 -168 -115q-111 -39 -227 -39q-240 0 -366 174v-89q-2 -17 -12 -43q-12 -13 -31 -13q-18 0 -30 13l-12 43l-1 53q-165 -139 -353 -139q-119 0 -199 58q-91 65 -91 180q0 141 136 215q109 60 261 60q107 0 245 -28l1 10v113q0 81 -80 122q-62 32 -151 32
q-57 0 -163.5 -30.5t-121.5 -30.5q-35 0 -35 38q0 14 9 25q17 20 147 48q121 27 168 27q98 0 179 -42q92 -47 117 -131q125 174 352 174q190 0 308 -123q116 -121 116 -307v-6h-769v-23q27 -140 129 -222t247 -82q187 0 329 102q19 14 30 14q36 0 36 -38zM1563 450
q-23 128 -120 205.5t-228 77.5q-128 0 -222.5 -72.5t-121.5 -195.5v-15h692zM794 210v137q-2 16 -3 31q-102 29 -235 29q-117 0 -209 -42q-120 -54 -120 -157q0 -82 67 -125q57 -37 144 -37q185 0 356 164z" />
    <glyph glyph-name="ccedilla" unicode="&#xe7;" horiz-adv-x="1094" 
d="M988 159q0 -39 -92 -99q-128 -85 -286 -95q0 -18 -2 -43.5t-2 -27.5q118 -17 118 -110q0 -57 -45 -89q-40 -28 -99 -28q-44 0 -104 19q-74 23 -74 56q0 30 30 30q5 0 57 -22.5t91 -22.5q83 0 83 59q0 51 -117 51v127q-174 8 -285 122.5t-111 290.5q0 184 120 304.5
t304 120.5q174 0 293 -104q0 77 37 77q39 0 39 -51v-172q0 -51 -39 -51q-15 0 -25 10q-1 1 -18 59q-15 51 -79 98q-78 57 -212 57q-154 0 -249 -96.5t-95 -250.5q0 -151 97.5 -245t248.5 -94q190 0 346 138q21 18 33 18q37 0 37 -36z" />
    <glyph glyph-name="egrave" unicode="&#xe8;" horiz-adv-x="1150" 
d="M618 1053q0 -43 -43 -43q-15 0 -38 20l-236 204q-25 21 -25 41q0 43 43 43q25 0 159 -120q125 -111 137 -129q3 -9 3 -16zM1001 125q0 -55 -168 -115q-111 -39 -227 -39q-190 0 -323 124t-133 313q0 173 127 289q124 113 298 113q190 0 308 -123q116 -121 116 -307v-6
h-772q20 -150 123.5 -238.5t255.5 -88.5q187 0 329 102q19 14 30 14q36 0 36 -38zM923 450q-23 128 -120 205.5t-228 77.5q-132 0 -228 -77t-119 -206h695z" />
    <glyph glyph-name="eacute" unicode="&#xe9;" horiz-adv-x="1150" 
d="M874 1275q0 -20 -25 -41l-236 -204q-23 -20 -38 -20q-43 0 -43 43q0 7 3 16q12 18 137 129q135 120 159 120q43 0 43 -43zM1001 125q0 -55 -168 -115q-111 -39 -227 -39q-190 0 -323 124t-133 313q0 173 127 289q124 113 298 113q190 0 308 -123q116 -121 116 -307v-6
h-772q20 -150 123.5 -238.5t255.5 -88.5q187 0 329 102q19 14 30 14q36 0 36 -38zM923 450q-23 128 -120 205.5t-228 77.5q-132 0 -228 -77t-119 -206h695z" />
    <glyph glyph-name="ecircumflex" unicode="&#xea;" horiz-adv-x="1150" 
d="M858 1052q0 -42 -43 -42q-21 0 -132 86l-124 100q-62 -50 -123 -100q-111 -86 -133 -86q-42 0 -42 42q0 20 28 42l270 206l271 -206q28 -22 28 -42zM1001 125q0 -55 -168 -115q-111 -39 -227 -39q-190 0 -323 124t-133 313q0 173 127 289q124 113 298 113q190 0 308 -123
q116 -121 116 -307v-6h-772q20 -150 123.5 -238.5t255.5 -88.5q187 0 329 102q19 14 30 14q36 0 36 -38zM923 450q-23 128 -120 205.5t-228 77.5q-132 0 -228 -77t-119 -206h695z" />
    <glyph glyph-name="edieresis" unicode="&#xeb;" horiz-adv-x="1150" 
d="M792 1086q0 -31 -22.5 -53.5t-54.5 -22.5t-54.5 22t-22.5 54t22.5 54.5t54.5 22.5t54.5 -22.5t22.5 -54.5zM492 1086q0 -31 -22.5 -53.5t-54.5 -22.5t-54.5 22t-22.5 54t22.5 54.5t54.5 22.5t54.5 -22.5t22.5 -54.5zM1001 125q0 -55 -168 -115q-111 -39 -227 -39
q-190 0 -323 124t-133 313q0 173 127 289q124 113 298 113q190 0 308 -123q116 -121 116 -307v-6h-772q20 -150 123.5 -238.5t255.5 -88.5q187 0 329 102q19 14 30 14q36 0 36 -38zM923 450q-23 128 -120 205.5t-228 77.5q-132 0 -228 -77t-119 -206h695z" />
    <glyph glyph-name="igrave" unicode="&#xec;" horiz-adv-x="638" 
d="M455 1005q0 -43 -43 -43q-15 0 -38 20l-236 204q-25 22 -25 41q0 43 43 43q25 0 159 -120q125 -110 137 -129q3 -9 3 -16zM278 84v593h-71q-56 0 -56 43q0 42 56 42h155v-678h-84zM435 84q56 0 56 -43q0 -42 -56 -42h-226q-56 0 -56 42q0 43 56 43h226z" />
    <glyph glyph-name="iacute" unicode="&#xed;" horiz-adv-x="638" 
d="M496 1227q0 -19 -25 -41l-236 -204q-23 -20 -38 -20q-43 0 -43 43q0 7 3 16q12 19 137 129q134 120 159 120q43 0 43 -43zM278 84v593h-71q-56 0 -56 43q0 42 56 42h155v-678h-84zM435 84q56 0 56 -43q0 -42 -56 -42h-226q-56 0 -56 42q0 43 56 43h226z" />
    <glyph glyph-name="icircumflex" unicode="&#xee;" horiz-adv-x="638" 
d="M617 1004q0 -42 -43 -42q-21 0 -132 87q-62 49 -124 99q-62 -50 -123 -100q-111 -86 -133 -86q-42 0 -42 42q0 21 28 42l270 206l271 -206q28 -21 28 -42zM278 84v593h-71q-56 0 -56 43q0 42 56 42h155v-678h-84zM435 84q56 0 56 -43q0 -42 -56 -42h-226q-56 0 -56 42
q0 43 56 43h226z" />
    <glyph glyph-name="idieresis" unicode="&#xef;" horiz-adv-x="638" 
d="M529 1039q0 -32 -22.5 -54.5t-54.5 -22.5t-54.5 22.5t-22.5 54.5t22.5 54.5t54.5 22.5t54.5 -23t22.5 -54zM229 1039q0 -32 -22.5 -54.5t-54.5 -22.5t-54.5 22.5t-22.5 54.5t22.5 54.5t54.5 22.5t54.5 -23t22.5 -54zM278 84v593h-71q-56 0 -56 43q0 42 56 42h155v-678
h-84zM435 84q56 0 56 -43q0 -42 -56 -42h-226q-56 0 -56 42q0 43 56 43h226z" />
    <glyph glyph-name="eth" unicode="&#xf0;" horiz-adv-x="1148" 
d="M999 450q0 -214 -105 -340q-114 -136 -323 -136q-177 0 -299 119.5t-122 296.5q0 171 121 285.5t293 114.5q231 0 350 -189q-35 138 -85 215q-45 68 -158 169q-290 -101 -308 -101q-39 0 -39 34q0 12 14 26q32 32 256 82q-79 15 -172 42q-13 11 -13 26q0 36 50 36
q117 0 229 -69q46 18 92 37q61 23 94 23t33 -36q0 -39 -129 -65l-25 -5q246 -226 246 -565zM916 379q0 145 -100 241q-98 93 -244 93q-144 0 -244 -91q-104 -95 -104 -237q0 -140 105.5 -240t245.5 -100q145 0 243 95t98 239z" />
    <glyph glyph-name="ntilde" unicode="&#xf1;" horiz-adv-x="1282" 
d="M949 1119q0 -40 -74 -85q-68 -42 -113 -42q-56 0 -146 61t-117 61q-34 0 -82.5 -40.5t-64.5 -40.5q-41 0 -41 40q0 38 74 83q69 42 113 42q54 0 143.5 -60.5t120.5 -60.5q30 0 80.5 40.5t64.5 40.5q42 0 42 -39zM1132 41q0 -42 -56 -42h-226q-56 0 -56 42q0 43 56 43h71
l-1 411q0 98 -72 157q-67 55 -167 55q-102 0 -181 -59q-46 -34 -137 -141l1 -423h71q56 0 56 -43q0 -42 -56 -42h-226q-56 0 -56 42q0 43 56 43h71l-1 593h-71q-56 0 -56 43q0 42 56 42h155v-127q155 157 319 157q128 0 222 -76q100 -81 100 -207l1 -425h71q56 0 56 -43z
" />
    <glyph glyph-name="ograve" unicode="&#xf2;" horiz-adv-x="1146" 
d="M617 1050q0 -43 -43 -43q-15 0 -38 20l-236 204q-25 21 -25 41q0 43 43 43q25 0 159 -120q125 -111 137 -129q3 -9 3 -16zM997 387q0 -175 -123.5 -297t-299.5 -122t-300 121.5t-124 297.5t124 298t300 122t299.5 -122t123.5 -298zM921 387q0 144 -101.5 243.5
t-246.5 99.5q-144 0 -245.5 -99.5t-101.5 -243.5q0 -143 102 -243t245 -100q144 0 246 99.5t102 243.5z" />
    <glyph glyph-name="oacute" unicode="&#xf3;" horiz-adv-x="1146" 
d="M873 1272q0 -20 -25 -41l-236 -204q-23 -20 -38 -20q-43 0 -43 43q0 7 3 16q12 18 137 129q135 120 159 120q43 0 43 -43zM997 387q0 -175 -123.5 -297t-299.5 -122t-300 121.5t-124 297.5t124 298t300 122t299.5 -122t123.5 -298zM921 387q0 144 -101.5 243.5
t-246.5 99.5q-144 0 -245.5 -99.5t-101.5 -243.5q0 -143 102 -243t245 -100q144 0 246 99.5t102 243.5z" />
    <glyph glyph-name="ocircumflex" unicode="&#xf4;" horiz-adv-x="1146" 
d="M867 1049q0 -42 -43 -42q-20 0 -132 86l-124 100q-62 -50 -123 -100q-111 -86 -133 -86q-42 0 -42 42q0 20 28 42l270 206l271 -206q28 -22 28 -42zM997 387q0 -175 -123.5 -297t-299.5 -122t-300 121.5t-124 297.5t124 298t300 122t299.5 -122t123.5 -298zM921 387
q0 144 -101.5 243.5t-246.5 99.5q-144 0 -245.5 -99.5t-101.5 -243.5q0 -143 102 -243t245 -100q144 0 246 99.5t102 243.5z" />
    <glyph glyph-name="otilde" unicode="&#xf5;" horiz-adv-x="1146" 
d="M861 1134q0 -41 -74 -86q-68 -41 -113 -41q-55 0 -145.5 61t-117.5 61q-34 0 -82.5 -40.5t-64.5 -40.5q-41 0 -41 40q0 38 74 83q70 42 113 42q55 0 144 -60.5t120 -60.5q30 0 80.5 40.5t64.5 40.5q42 0 42 -39zM997 387q0 -175 -123.5 -297t-299.5 -122t-300 121.5
t-124 297.5t124 298t300 122t299.5 -122t123.5 -298zM921 387q0 144 -101.5 243.5t-246.5 99.5q-144 0 -245.5 -99.5t-101.5 -243.5q0 -143 102 -243t245 -100q144 0 246 99.5t102 243.5z" />
    <glyph glyph-name="odieresis" unicode="&#xf6;" horiz-adv-x="1146" 
d="M791 1083q0 -31 -22.5 -53.5t-54.5 -22.5t-54.5 22t-22.5 54t22.5 54.5t54.5 22.5t54.5 -22.5t22.5 -54.5zM491 1083q0 -31 -22.5 -53.5t-54.5 -22.5t-54.5 22t-22.5 54t22.5 54.5t54.5 22.5t54.5 -22.5t22.5 -54.5zM997 387q0 -175 -123.5 -297t-299.5 -122t-300 121.5
t-124 297.5t124 298t300 122t299.5 -122t123.5 -298zM921 387q0 144 -101.5 243.5t-246.5 99.5q-144 0 -245.5 -99.5t-101.5 -243.5q0 -143 102 -243t245 -100q144 0 246 99.5t102 243.5z" />
    <glyph glyph-name="divide" unicode="&#xf7;" horiz-adv-x="1239" 
d="M702 976q0 -34 -23.5 -58t-57.5 -24t-58 24t-24 58t24 57.5t58 23.5t57.5 -23.5t23.5 -57.5zM1091 583q0 -42 -78 -42h-785q-78 0 -78 42t78 42h785q78 0 78 -42zM702 190q0 -34 -24 -57.5t-58 -23.5t-57.5 23.5t-23.5 57.5t23.5 57.5t57.5 23.5t58 -23.5t24 -57.5z" />
    <glyph glyph-name="oslash" unicode="&#xf8;" horiz-adv-x="1171" 
d="M1042 827q0 -15 -130 -148q110 -119 110 -279q0 -177 -129 -298t-307 -121q-146 0 -268 90q-134 -137 -150 -137q-38 0 -38 39q0 14 131 148q-111 120 -111 280q0 177 129 298t307 121q151 0 269 -90q132 136 149 136q38 0 38 -39zM945 400q0 127 -87 225l-487 -499
q96 -69 216 -69q146 0 252 98.5t106 244.5zM801 675q-96 68 -215 68q-147 0 -252 -97q-107 -100 -107 -246q0 -124 87 -224z" />
    <glyph glyph-name="ugrave" unicode="&#xf9;" horiz-adv-x="1273" 
d="M632 1005q0 -43 -43 -43q-15 0 -38 20l-236 204q-25 22 -25 41q0 43 43 43q25 0 159 -120q125 -110 137 -129q3 -9 3 -16zM1126 42q0 -42 -56 -42h-155v123q-172 -156 -372 -156q-121 0 -195.5 75.5t-74.5 196.5v438q-77 0 -77 -1q-50 6 -50 44q0 42 56 42h155v-523
q0 -81 51 -134.5t131 -53.5q205 0 376 188v438q-77 0 -77 -1q-50 6 -50 44q0 42 56 42h155v-678q77 0 77 1h-1q51 -6 51 -43z" />
    <glyph glyph-name="uacute" unicode="&#xfa;" horiz-adv-x="1273" 
d="M875 1227q0 -19 -25 -41l-236 -204q-23 -20 -38 -20q-43 0 -43 43q0 7 3 16q12 19 137 129q134 120 159 120q43 0 43 -43zM1126 42q0 -42 -56 -42h-155v123q-172 -156 -372 -156q-121 0 -195.5 75.5t-74.5 196.5v438q-77 0 -77 -1q-50 6 -50 44q0 42 56 42h155v-523
q0 -81 51 -134.5t131 -53.5q205 0 376 188v438q-77 0 -77 -1q-50 6 -50 44q0 42 56 42h155v-678q77 0 77 1h-1q51 -6 51 -43z" />
    <glyph glyph-name="ucircumflex" unicode="&#xfb;" horiz-adv-x="1273" 
d="M907 1004q0 -42 -43 -42q-21 0 -132 87q-62 49 -124 99q-62 -50 -123 -100q-111 -86 -133 -86q-42 0 -42 42q0 21 28 42l270 206l271 -206q28 -21 28 -42zM1126 42q0 -42 -56 -42h-155v123q-172 -156 -372 -156q-121 0 -195.5 75.5t-74.5 196.5v438q-77 0 -77 -1
q-50 6 -50 44q0 42 56 42h155v-523q0 -81 51 -134.5t131 -53.5q205 0 376 188v438q-77 0 -77 -1q-50 6 -50 44q0 42 56 42h155v-678q77 0 77 1h-1q51 -6 51 -43z" />
    <glyph glyph-name="udieresis" unicode="&#xfc;" horiz-adv-x="1273" 
d="M834 1039q0 -32 -22.5 -54.5t-54.5 -22.5t-54.5 22.5t-22.5 54.5t22.5 54.5t54.5 22.5t54.5 -23t22.5 -54zM534 1039q0 -32 -22.5 -54.5t-54.5 -22.5t-54.5 22.5t-22.5 54.5t22.5 54.5t54.5 22.5t54.5 -23t22.5 -54zM1126 42q0 -42 -56 -42h-155v123q-172 -156 -372 -156
q-121 0 -195.5 75.5t-74.5 196.5v438q-77 0 -77 -1q-50 6 -50 44q0 42 56 42h155v-523q0 -81 51 -134.5t131 -53.5q205 0 376 188v438q-77 0 -77 -1q-50 6 -50 44q0 42 56 42h155v-678q77 0 77 1h-1q51 -6 51 -43z" />
    <glyph glyph-name="yacute" unicode="&#xfd;" horiz-adv-x="1419" 
d="M994 1227q0 -19 -25 -41l-236 -204q-23 -20 -38 -20q-43 0 -43 43q0 7 3 16q12 19 137 129q134 120 159 120q43 0 43 -43zM1258 750q13 -12 13 -30q0 -38 -51 -44h1q0 1 -77 1zM485 750q13 -12 13 -30q0 -38 -51 -44h1q0 1 -77 1zM1271 720q0 -38 -51 -44h1q0 1 -77 1
l-635 -1078q77 0 77 1h-1q51 -6 51 -44q0 -42 -53 -42h-240q-53 0 -53 42q0 38 51 44h-1q0 -1 77 -1l235 401l-373 677q-77 0 -77 -1h1q-51 6 -51 44q0 42 53 42h240q53 0 53 -42q0 -38 -51 -44h1q0 1 -77 1l336 -585l345 585q-77 0 -77 -1h1q-51 6 -51 44q0 42 53 42h240
q53 0 53 -42zM623 -474q13 12 13 30q0 38 -51 44h1q0 -1 -77 -1z" />
    <glyph glyph-name="thorn" unicode="&#xfe;" horiz-adv-x="1229" 
d="M1127 375q0 -176 -123.5 -298t-299.5 -122q-218 0 -347 178v-535q77 0 77 1q50 -6 50 -43q0 -42 -56 -42h-225q-57 0 -57 42q0 37 50 43q0 -1 77 -1v1566q-77 0 -77 -1q-50 6 -50 43q0 42 57 42h154l1 -631q129 177 346 177q176 0 299.5 -122t123.5 -297zM1051 375
q0 144 -102 243.5t-246 99.5q-143 0 -245 -100t-102 -243q0 -144 101.5 -243.5t245.5 -99.5q145 0 246.5 99.5t101.5 243.5z" />
    <glyph glyph-name="ydieresis" unicode="&#xff;" horiz-adv-x="1419" 
d="M1258 750q13 -12 13 -30q0 -38 -51 -44h1q0 1 -77 1zM922 1038q0 -31 -22.5 -53.5t-54.5 -22.5t-54.5 22.5t-22.5 53.5q0 33 22.5 55.5t54.5 22.5t54.5 -23t22.5 -55zM622 1038q0 -31 -22.5 -53.5t-54.5 -22.5t-54.5 22.5t-22.5 53.5q0 33 22.5 55.5t54.5 22.5t54.5 -23
t22.5 -55zM485 750q13 -12 13 -30q0 -38 -51 -44h1q0 1 -77 1zM1271 720q0 -38 -51 -44h1q0 1 -77 1l-635 -1078q77 0 77 1h-1q51 -6 51 -44q0 -42 -53 -42h-240q-53 0 -53 42q0 38 51 44h-1q0 -1 77 -1l235 401l-373 677q-77 0 -77 -1h1q-51 6 -51 44q0 42 53 42h240
q53 0 53 -42q0 -38 -51 -44h1q0 1 -77 1l336 -585l345 585q-77 0 -77 -1h1q-51 6 -51 44q0 42 53 42h240q53 0 53 -42zM623 -474q13 12 13 30q0 38 -51 44h1q0 -1 -77 -1z" />
    <glyph glyph-name="Amacron" unicode="&#x100;" horiz-adv-x="1504" 
d="M1026 1316q0 -42 -53 -42h-478q-52 0 -52 43q0 42 52 42h478q53 0 53 -43zM1356 45q0 -42 -56 -42h-226q-56 0 -56 42q0 43 56 43h71l-115 307h-552l-107 -307h61q56 0 56 -43q0 -42 -56 -42h-226q-56 0 -56 42q0 43 56 43h71l406 1087l140 -1l406 -1086h71q56 0 56 -43z
M998 479l-232 611h-31l-225 -611h488z" />
    <glyph glyph-name="amacron" unicode="&#x101;" horiz-adv-x="1146" 
d="M849 1051q0 -42 -52 -42h-478q-53 0 -53 43q0 42 53 42h478q52 0 52 -43zM997 42q0 -42 -56 -42h-147v109q-165 -139 -353 -139q-119 0 -199 58q-91 65 -91 180q0 141 136 215q109 60 261 60q108 0 246 -28v123q0 81 -80 122q-62 32 -151 32q-57 0 -163.5 -30.5
t-121.5 -30.5q-35 0 -35 38q0 14 9 25q17 20 147 48q121 27 168 27q116 0 203 -56q101 -64 101 -175l-1 -493h71q56 0 56 -43zM794 210v167q-103 30 -238 30q-117 0 -209 -42q-120 -54 -120 -157q0 -82 67 -125q57 -37 144 -37q185 0 356 164z" />
    <glyph glyph-name="middot" unicode="&#x108;" horiz-adv-x="903" 
d="M555 678q0 -42 -30 -72t-72 -30q-43 0 -73 29.5t-30 72.5t30 73t73 30t72.5 -30t29.5 -73z" />
    <glyph glyph-name="Emacron" unicode="&#x112;" horiz-adv-x="1241" 
d="M916 1316q0 -42 -53 -42h-478q-52 0 -52 43q0 42 52 42h478q53 0 53 -43zM1091 0l-885 -1q-17 2 -43 12q-13 12 -13 30q0 43 56 43h71v1002h-71q-56 0 -56 43q0 42 56 42l841 -1v-155q0 -56 -42 -56q-43 0 -43 54v2l1 71h-602v-437h301v71q0 56 43 56q42 0 42 -56v-226
q0 -56 -42 -56q-43 0 -43 56v71h-301v-481h646l-1 71v2q0 54 43 54q42 0 42 -56v-155z" />
    <glyph glyph-name="emacron" unicode="&#x113;" horiz-adv-x="1150" 
d="M859 1051q0 -42 -52 -42h-478q-53 0 -53 43q0 42 53 42h478q52 0 52 -43zM1001 125q0 -55 -168 -115q-111 -39 -227 -39q-190 0 -323 124t-133 313q0 173 127 289q124 113 298 113q190 0 308 -123q116 -121 116 -307v-6h-772q20 -150 123.5 -238.5t255.5 -88.5
q187 0 329 102q19 14 30 14q36 0 36 -38zM923 450q-23 128 -120 205.5t-228 77.5q-132 0 -228 -77t-119 -206h695z" />
    <glyph glyph-name="Imacron" unicode="&#x12a;" horiz-adv-x="638" 
d="M616 1316q0 -42 -53 -42h-478q-52 0 -52 43q0 42 52 42h478q53 0 53 -43zM488 41q0 -42 -56 -42h-226q-56 0 -56 42q0 43 56 43h71v1002h-71q-56 0 -56 43q0 42 56 42h226q56 0 56 -42q0 -43 -56 -43h-71v-1002h71q56 0 56 -43z" />
    <glyph glyph-name="imacron" unicode="&#x12b;" horiz-adv-x="638" 
d="M589 1051q0 -42 -52 -42h-478q-53 0 -53 43q0 42 53 42h478q52 0 52 -43zM278 84v593h-71q-56 0 -56 43q0 42 56 42h155v-678h-84zM435 84q56 0 56 -43q0 -42 -56 -42h-226q-56 0 -56 42q0 43 56 43h226z" />
    <glyph glyph-name="Omacron" unicode="&#x14c;" horiz-adv-x="1324" 
d="M966 1316q0 -42 -53 -42h-478q-52 0 -52 43q0 42 52 42h478q53 0 53 -43zM1174 584q0 -240 -133 -418q-147 -197 -379 -197t-379 197q-133 179 -133 418t133 418q147 197 379 197t378 -197q134 -179 134 -418zM1089 584q0 202 -110 358q-123 173 -317 173t-317 -174
q-111 -155 -111 -357q0 -201 111 -357q123 -174 317 -174t317 173q110 155 110 358z" />
    <glyph glyph-name="omacron" unicode="&#x14d;" horiz-adv-x="1146" 
d="M849 1051q0 -42 -52 -42h-478q-53 0 -53 43q0 42 53 42h478q52 0 52 -43zM997 387q0 -175 -123.5 -297t-299.5 -122t-300 121.5t-124 297.5t124 298t300 122t299.5 -122t123.5 -298zM921 387q0 144 -101.5 243.5t-246.5 99.5q-144 0 -245.5 -99.5t-101.5 -243.5
q0 -143 102 -243t245 -100q144 0 246 99.5t102 243.5z" />
    <glyph glyph-name="uni0156" unicode="&#x156;" horiz-adv-x="1229" 
d="M862 637q0 -103 -72.5 -175.5t-175.5 -72.5t-175 72.5t-72 175.5t72 175t175 72t175.5 -72t72.5 -175z" />
    <glyph glyph-name="U0047U0331" unicode="&#x15d;" horiz-adv-x="1327" 
d="M1179 475q0 -42 -86 -42v-360q-194 -107 -382 -107q-251 0 -404 144q-157 147 -157 395v154q0 222 147 379.5t368 157.5q203 0 343 -111q0 44 3 55q8 29 40 29q42 0 42 -56v-190q0 -56 -42 -56q-26 0 -35 32q-18 62 -25 75q-27 50 -91 84q-104 54 -228 54
q-245 0 -384 -243q-54 -94 -54 -211v-153q0 -216 134 -338q128 -117 347 -117q136 0 293 72v311h-289q-56 0 -56 42q0 43 56 43l404 -1q56 0 56 -42zM999 -243q0 -42 -54 -42h-491q-53 0 -53 42q0 43 56 43h486q56 0 56 -43z" />
    <glyph glyph-name="U0067U0331" unicode="&#x15e;" horiz-adv-x="1300" 
d="M1127 720q0 -43 -56 -43h-71l1 -835q0 -136 -102 -232t-239 -96h-238q-56 0 -56 42q0 43 56 43l241 -1h2q153 0 230 149q22 41 22 107l2 289q-130 -175 -345 -175q-176 0 -300 121.5t-124 297.5t124 298t300 122q212 0 342 -173v128h155q56 0 56 -42zM889 -606
q0 -42 -54 -42h-492q-52 0 -52 42q0 43 56 43h486q56 0 56 -43zM921 387q0 144 -101.5 243.5t-246.5 99.5q-144 0 -245.5 -99.5t-101.5 -243.5q0 -143 102 -243t245 -100q144 0 246 99.5t102 243.5z" />
    <glyph glyph-name="U0050U0331" unicode="&#x163;" horiz-adv-x="1192" 
d="M1044 828q0 -121 -81 -210q-73 -80 -195 -120q-52 -17 -130 -22q-27 -1 -63 -1t-80 1q-120 3 -134 3v-396h71q56 0 56 -43q0 -42 -56 -42h-226q-56 0 -56 42q0 43 56 43h71v1002h-71q-56 0 -56 43q0 42 56 42l446 -1q156 0 270 -91q122 -97 122 -250zM915 -243
q0 -42 -54 -42h-492q-52 0 -52 42q0 43 56 43h486q56 0 56 -43zM960 828q0 113 -96 188q-88 69 -204 69h-299v-522h268q123 0 221 69q110 78 110 196z" />
    <glyph glyph-name="U0070U0331" unicode="&#x164;" horiz-adv-x="1229" 
d="M1127 387q0 -175 -123.5 -297t-299.5 -122q-217 0 -346 177l-1 -547q77 0 77 1q50 -6 50 -43q0 -42 -56 -42h-225q-57 0 -57 42q0 37 50 43q0 -1 77 -1v1079h-71q-56 0 -56 43q0 42 56 42h155v-133q129 178 347 178q176 0 299.5 -122t123.5 -298zM979 -606q0 -42 -54 -42
h-492q-52 0 -52 42q0 43 56 43h486q56 0 56 -43zM1051 387q0 144 -101.5 243.5t-246.5 99.5q-144 0 -245.5 -99.5t-101.5 -243.5q0 -143 102 -243t245 -100q144 0 246 99.5t102 243.5z" />
    <glyph glyph-name="Umacron" unicode="&#x16a;" horiz-adv-x="1360" 
d="M976 1316q0 -42 -53 -42h-478q-52 0 -52 43q0 42 52 42h478q53 0 53 -43zM1215 1130q0 -43 -56 -43h-71v-702q0 -174 -114 -294q-117 -123 -289 -123q-173 0 -290.5 121.5t-117.5 295.5v702h-71q-56 0 -56 43q0 42 56 42h226q56 0 56 -42q0 -43 -56 -43h-71v-702
q0 -136 92 -233q93 -100 228 -100t229 99t94 234v702h-71q-56 0 -56 43q0 42 56 42h226q56 0 56 -42z" />
    <glyph glyph-name="umacron" unicode="&#x16b;" horiz-adv-x="1273" 
d="M899 1051q0 -42 -52 -42h-478q-53 0 -53 43q0 42 53 42h478q52 0 52 -43zM1126 42q0 -42 -56 -42h-155v123q-172 -156 -372 -156q-121 0 -195.5 75.5t-74.5 196.5v438q-77 0 -77 -1q-50 6 -50 44q0 42 56 42h155v-523q0 -81 51 -134.5t131 -53.5q205 0 376 188v438
q-77 0 -77 -1q-50 6 -50 44q0 42 56 42h155v-678q77 0 77 1h-1q51 -6 51 -43z" />
    <glyph glyph-name="U0640ThreeQuart" unicode="&#x16d;" horiz-adv-x="270" 
d="M285 0h-301v158h301v-158z" />
    <glyph glyph-name="U0640Quart" unicode="&#x16e;" horiz-adv-x="90" 
d="M94 0h-164v158h164v-158z" />
    <glyph glyph-name="U0640Half" unicode="&#x16f;" horiz-adv-x="180" 
d="M180 0h-250v158h250v-158z" />
    <glyph glyph-name="U0710Medi2" unicode="&#x1e6;" horiz-adv-x="582" 
d="M591 0h-514v162q78 34 170.5 173.5t92.5 226.5q0 96 -72 104q1 0 -40 -1h-6q-83 0 -83 79q0 49 40 93.5t87 44.5q64 0 104 -74q33 -62 33 -137q0 -72 -78 -513h266v-158z" />
    <glyph glyph-name="U0710Fina1" unicode="&#x1e7;" horiz-adv-x="546" 
d="M555 0h-310v-220q0 -43 -9 -43q-12 0 -27 51q-22 71 -63 129q-50 72 -105 81v164q78 34 170.5 173.5t92.5 226.5q0 96 -72 104q2 0 -40 -1h-6q-82 0 -82 79q0 49 40 93.5t86 44.5q65 0 104 -74q33 -62 33 -137q0 -72 -78 -513h266v-158z" />
    <glyph glyph-name="U0710Fina2" unicode="&#x1e8;" horiz-adv-x="546" 
d="M555 0h-310v-220q0 -43 -9 -43q-12 0 -27 51q-22 71 -63 129q-50 72 -105 81v164q78 34 170.5 173.5t92.5 226.5q0 96 -72 104q2 0 -40 -1h-6q-82 0 -82 79q0 49 40 93.5t86 44.5q65 0 104 -74q33 -62 33 -137q0 -72 -78 -513h266v-158z" />
    <glyph glyph-name="U0710Fina3" unicode="&#x1e9;" horiz-adv-x="582" 
d="M591 0h-514v162q78 34 170.5 173.5t92.5 226.5q0 96 -72 104q1 0 -40 -1h-6q-83 0 -83 79q0 49 40 93.5t87 44.5q64 0 104 -74q33 -62 33 -137q0 -72 -78 -513h266v-158z" />
    <glyph glyph-name="U0712Init" unicode="&#x1ea;" horiz-adv-x="855" 
d="M797 0h-797v158h639v284h-278q-80 0 -115 19q-54 31 -54 122q0 87 22 87q3 0 11 -18q9 -22 33 -34q35 -18 103 -18h319q58 0 82 35q21 31 21 34v1q14 0 14 -70v-600z" />
    <glyph glyph-name="U0712Medi" unicode="&#x1eb;" horiz-adv-x="894" 
d="M797 0h-797v158h639v284h-278q-80 0 -115 19q-54 31 -54 122q0 87 22 87q3 0 11 -18q9 -22 33 -34q35 -18 103 -18h319q58 0 82 35q21 31 21 34v1q14 0 14 -70v-442h107v-158h-48l-59 56v-56z" />
    <glyph glyph-name="U0712Fina" unicode="&#x1ec;" horiz-adv-x="1017" 
d="M1026 0h-749q-90 0 -130 25q-70 43 -70 174q0 85 27 85q2 0 17 -33q18 -39 46 -60q42 -33 110 -33h591v284h-278q-80 0 -115 19q-54 31 -54 122q0 87 22 87q3 0 11 -18q9 -22 33 -34q35 -18 103 -18h320q57 0 81 35q22 32 22 35q13 0 13 -70v-600z" />
    <glyph glyph-name="U0713Init" unicode="&#x1ed;" horiz-adv-x="1019" 
d="M1076 -470h-142v104l-291 366h-643v158h515l-279 504q-56 102 -56 118q0 14 104 174q33 49 38 49q3 0 5 -36q3 -49 22 -88l591 -1208h136v-141z" />
    <glyph glyph-name="U0713Medi" unicode="&#x1ee;" horiz-adv-x="954" 
d="M906 -475h-143v103l-404 372h-359v158h535l-287 504q-56 99 -56 118q0 29 91 169q43 65 56 65q9 0 9 -12q0 -4 -3 -23.5t-3 -33.5q0 -38 19 -69l313 -642l28 -38l67 -38h194v-158h-206l-53 11l-36 16l-45 32l-12 -32q-8 -8 -36 -20q-15 -8 -34 -8q-6 0 -12 1l233 -336
l144 1v-140z" />
    <glyph glyph-name="U0713Fina" unicode="&#x1ef;" horiz-adv-x="1109" 
d="M409 662q-56 99 -56 118q0 29 91 169q43 65 56 65q9 0 9 -12q0 -4 -3 -23.5t-3 -33.5q0 -38 19 -69l313 -642l28 -38l67 -38h194v-158h-206l-53 11l-36 16l-45 32l-12 -32q-8 -8 -36 -20q-15 -8 -34 -8q-6 0 -12 1l238 -336h137l2 -139h-143v103l-404 372h-280
q-90 0 -130 25q-70 43 -70 174q0 85 27 85q2 0 17 -33q18 -39 46 -60q42 -33 110 -33h456z" />
    <glyph glyph-name="U0714Init" unicode="&#x1f0;" horiz-adv-x="206" 
d="M210 0h-5q-31 0 -68 22q-70 43 -71 147q0 85 27 85q2 0 17 -33q18 -39 54 -58q30 -5 42 -5h4v-158z" />
    <glyph glyph-name="U0714Medi" unicode="&#x1f1;" horiz-adv-x="206" 
d="M210 0h-5q-31 0 -68 22q-70 43 -71 147q0 85 27 85q2 0 17 -33q18 -39 54 -58q30 -5 42 -5h4v-158z" />
    <glyph glyph-name="U0714Fina" unicode="&#x1f2;" horiz-adv-x="206" 
d="M210 0h-5q-31 0 -68 22q-70 43 -71 147q0 85 27 85q2 0 17 -33q18 -39 54 -58q30 -5 42 -5h4v-158z" />
    <glyph glyph-name="U0715Fina" unicode="&#x1f3;" horiz-adv-x="726" 
d="M736 0h-35l-37 63l-14 -63h-510v158h352q0 2 3 75v4q0 57 -51 125q-59 80 -141 80q-6 0 -13 -1q-71 -5 -106 -46q-32 -38 -32 -41q-14 0 -14 49v170q56 35 142 35q384 0 384 -439v-11h72v-158zM379 -298h-158v159h158v-159z" />
    <glyph glyph-name="U0716Fina" unicode="&#x1f4;" horiz-adv-x="726" 
d="M379 -298h-158v159h158v-159zM736 0h-35l-37 63l-14 -63h-510v158h352q0 2 3 75v4q0 57 -51 125q-59 80 -141 80q-6 0 -13 -1q-71 -5 -106 -46q-32 -38 -32 -41q-14 0 -14 49v170q56 35 142 35q384 0 384 -439v-11h72v-158z" />
    <glyph glyph-name="U0717Fina" unicode="&#x1f5;" horiz-adv-x="963" 
d="M972 0h-88l2 -117q0 -31 -12 -31q-13 0 -16 30l-46 560h-127q0 -218 -35 -305q-58 -145 -238 -145q-130 0 -211 82q-84 84 -84 224q0 100 56 193q64 109 160 109h436q41 0 68 23t31 23q10 0 10 -30l5 -458h89v-158zM583 360q0 34 -9 82h-236q-38 0 -65 -41
q-22 -36 -22 -72q0 -65 46 -120q49 -59 115 -59q171 0 171 210z" />
    <glyph glyph-name="U0718Fina" unicode="&#x1f6;" horiz-adv-x="762" 
d="M775 0h-80l-23 61l-38 -42q-38 -27 -222 -27q-177 0 -221 37q-90 77 -90 239q0 140 73 239q80 109 209 109q330 0 330 -369v-5q0 -39 -5 -84h67v-158zM555 287q0 74 -43 122.5t-121 48.5q-62 0 -99 -51q-33 -47 -33 -113q0 -144 155 -144q141 0 141 137z" />
    <glyph glyph-name="U0719Fina" unicode="&#x1f7;" horiz-adv-x="504" 
d="M517 0h-141q-7 -13 -16 -26q-118 -182 -147 -182q-24 0 -24 26q0 13 33 46q14 14 52 79q42 73 47 104q-63 63 -127 126q-77 91 -77 199q0 75 45.5 128.5t117.5 53.5q93 0 138 -97q33 -72 33 -174q0 -65 -13 -125h79v-158z" />
    <glyph glyph-name="U071aInit" unicode="&#x1f8;" horiz-adv-x="1003" 
d="M930 -12q-165 60 -283 187l-38 -187q-213 50 -304 170l-28 -158h-286v158h245l43 226q114 -115 130 -128q78 -65 170 -81l41 191q81 -75 229 -175q26 -16 53.5 -33t27.5 -32v-138z" />
    <glyph glyph-name="U071aMedi" unicode="&#x1f9;" horiz-adv-x="963" 
d="M970 0h-41q-120 0 -282 175l-38 -187q-213 50 -304 170l-28 -158h-277v158h236l43 226q114 -115 130 -128q78 -65 170 -81l41 191q224 -208 309 -208h41v-158z" />
    <glyph glyph-name="U071aFina" unicode="&#x1fa;" horiz-adv-x="1220" 
d="M1227 0h-41q-120 0 -282 175l-38 -187q-213 50 -304 170l-28 -158h-321q-90 0 -130 25q-70 43 -70 174q0 85 27 85q2 0 17 -33q18 -39 46 -60q42 -33 110 -33h280l43 226q113 -115 129 -128q79 -65 171 -81l41 191q224 -208 309 -208h41v-158z" />
    <glyph glyph-name="U071bInit" unicode="&#x1fb;" horiz-adv-x="1280" 
d="M1242 -18l-294 -486q-12 -21 -20 -21q-7 0 -23 26l-297 499h-608v158h531l-316 584q-17 32 -17 45q0 29 110 157q66 77 74 77t8 -8q-1 0 -16 -42q-17 -45 -17 -79q0 -37 16 -68l337 -666h532v-176zM1178 0h-384l175 -346z" />
    <glyph glyph-name="U071bMedi" unicode="&#x1fc;" horiz-adv-x="1226" 
d="M1236 -18l-294 -486q-12 -21 -20 -21q-7 0 -23 26l-297 499h-602v158h525l-316 584q-17 32 -17 45q0 29 110 157q66 77 74 77t8 -8q-1 0 -16 -42q-17 -45 -17 -79q0 -37 16 -68l337 -666h532v-176zM1172 0h-384l175 -346z" />
    <glyph glyph-name="U071bFina" unicode="&#x1fd;" horiz-adv-x="1454" 
d="M1463 -18l-293 -486q-13 -21 -20 -21t-23 26l-297 499h-617q-90 0 -130 25q-70 43 -70 174q0 85 27 85q2 0 17 -33q18 -39 46 -60q42 -33 110 -33h539l-316 584q-17 32 -17 45q0 29 110 157q67 77 75 77q7 0 7 -8q0 3 -16 -42t-16 -79q0 -37 15 -68l337 -666h532v-176z
M1400 0h-385l175 -346z" />
    <glyph glyph-name="U071cInit" unicode="&#x1fe;" horiz-adv-x="1211" 
d="M1164 -117q0 -31 -12 -31q-14 0 -16 30l-46 560h-128q0 -218 -34 -305q-58 -145 -238 -145q-114 0 -192.5 65t-97.5 177l-269 -287q-35 -37 -43 -37q-20 0 -20 19q0 9 25 36l213 232l-209 188q-37 33 -37 46q0 12 47.5 69t66.5 57q12 0 41 -26l187 -169q18 93 69 160
q60 78 139 78h437q41 0 68 23t31 23q10 0 10 -30zM861 360q0 34 -9 82h-237q-37 0 -64 -41q-22 -36 -22 -72q0 -65 46 -120q49 -59 115 -59q171 0 171 210z" />
    <glyph glyph-name="U071cMedi" unicode="&#x1ff;" horiz-adv-x="1241" 
d="M1250 0h-88l2 -117q0 -31 -12 -31q-14 0 -16 30l-46 560h-128q0 -218 -34 -305q-58 -145 -238 -145q-114 0 -192.5 65t-97.5 177l-269 -287q-35 -37 -43 -37q-20 0 -20 19q0 9 25 36l213 232l-209 188q-37 33 -37 46q0 12 47.5 69t66.5 57q12 0 41 -26l187 -169
q18 93 69 160q60 78 139 78h437q40 0 67.5 23t31.5 23q10 0 10 -30l5 -458h89v-158zM861 360q0 34 -9 82h-237q-37 0 -64 -41q-22 -36 -22 -72q0 -65 46 -120q49 -59 115 -59q171 0 171 210z" />
    <glyph glyph-name="U071cFina" unicode="&#x200;" horiz-adv-x="1241" 
d="M1250 0h-88l2 -117q0 -31 -12 -31q-14 0 -16 30l-46 560h-128q0 -218 -34 -305q-58 -145 -238 -145q-114 0 -192.5 65t-97.5 177l-269 -287q-35 -37 -43 -37q-20 0 -20 19q0 9 25 36l213 232l-209 188q-37 33 -37 46q0 12 47.5 69t66.5 57q12 0 41 -26l187 -169
q18 93 69 160q60 78 139 78h437q40 0 67.5 23t31.5 23q10 0 10 -30l5 -458h89v-158zM861 360q0 34 -9 82h-237q-37 0 -64 -41q-22 -36 -22 -72q0 -65 46 -120q49 -59 115 -59q171 0 171 210z" />
    <glyph glyph-name="U071dInit" unicode="&#x201;" horiz-adv-x="658" 
d="M600 -12q-205 74 -268 143l-24 -131h-308v158h256l17 221q82 -77 247 -188q26 -16 53 -33t27 -32v-138z" />
    <glyph glyph-name="U071dMedi" unicode="&#x202;" horiz-adv-x="633" 
d="M642 0h-40q-131 0 -266 146l-28 -146h-308v158h256l17 221q64 -60 157 -128q126 -93 172 -93h40v-158z" />
    <glyph glyph-name="U071dFina" unicode="&#x203;" horiz-adv-x="780" 
d="M785 0h-40q-72 0 -157 47q-70 38 -114 86l-22 -133h-239q-90 0 -130 25q-70 43 -70 174q0 85 27 85q2 0 17 -33q18 -39 46 -60q42 -33 110 -33h186l17 221q65 -60 157 -128q126 -93 172 -93h40v-158z" />
    <glyph glyph-name="U071eFina" unicode="&#x204;" horiz-adv-x="1241" 
d="M1249 0h-187q8 84 8 151q-1 126 -20 186q-33 101 -124 101q-52 0 -80 -48q-21 -38 -21 -86v-146h138v-158h-612q-37 -43 -73 -87q-66 -75 -79 -75q-16 0 -16 17q0 2 42 49q216 241 319 436l-363 189q-59 31 -59 73q0 32 11 77q14 57 16 77q5 38 21 38q9 0 28 -60
q22 -68 62 -89l340 -180q28 80 28 145q0 14 -5 37q-67 -18 -114 -18t-76 35q-28 32 -28 80q0 54 50 105t104 51q58 0 94 -74q29 -60 29 -125q0 -128 -44 -256l110 -59q15 88 64 150q56 72 135 72q203 0 208 -357q0 -41 -2 -93h96v-158zM743 207q0 29 -54 57l-105 55
q-43 -83 -103 -161h262v49z" />
    <glyph glyph-name="U071fInit" unicode="&#x205;" horiz-adv-x="883" 
d="M827 146q0 -49 -19 -92q-25 -54 -68 -54h-740v158h644q5 12 5 30q0 78 -84 158.5t-163 80.5q-65 0 -102.5 -51t-44.5 -51q-10 0 -10 10q3 105 45 181q52 96 146 96q55 0 113 -33q114 -65 194 -183q84 -126 84 -250z" />
    <glyph glyph-name="U071fMedi" unicode="&#x206;" horiz-adv-x="888" 
d="M893 0h-37l-36 46l-7 -46h-813v158h644q5 12 5 30q0 78 -84 158.5t-163 80.5q-66 0 -103 -51t-44 -51q-10 0 -10 10q3 105 45 181q52 96 146 96q55 0 113 -33q111 -64 190 -178q84 -121 88 -243h66v-158z" />
    <glyph glyph-name="U071fFina" unicode="&#x207;" horiz-adv-x="936" 
d="M947 0h-425v298l-312 -47l-21 -64l450 -528q58 -68 89 -68q29 0 66.5 22t47.5 22t10 -14q0 -23 -116 -106q-57 -40 -85 -40q-25 0 -39 12.5t-85 95.5l-461 540l79 261q7 23 59 31l234 37q49 8 80 21q19 9 29 56q9 43 23 43q16 0 16 -40v-374h361v-158z" />
    <glyph glyph-name="U0720Init" unicode="&#x208;" horiz-adv-x="895" 
d="M859 103q0 -103 -153 -103h-718v158h712l-476 693q-32 48 -32 85q0 36 30 69q31 29 61 57q78 73 89 73q8 0 8 -10q0 -11 -16 -43.5t-16 -44.5q0 -21 17 -49l452 -744q42 -71 42 -141z" />
    <glyph glyph-name="U0720Medi" unicode="&#x209;" horiz-adv-x="1037" 
d="M1042 0h-155q-85 0 -144 62q-18 -22 -35 -44q-21 -18 -62 -18h-646v158h700l-476 693q-32 48 -32 85q0 36 30 69q31 29 61 57q78 73 89 73q8 0 8 -10q0 -11 -16 -43.5t-16 -44.5q0 -21 17 -49l452 -744q51 -86 139 -86h86v-158z" />
    <glyph glyph-name="U0720Fina" unicode="&#x20a;" horiz-adv-x="1220" 
d="M1225 0h-155q-85 0 -144 62q-18 -22 -35 -44q-21 -18 -62 -18h-587q-91 0 -131 25q-70 43 -70 174q0 85 27 85q3 0 18 -33q17 -39 45 -60q42 -33 111 -33h641l-476 693q-32 48 -32 85q0 36 30 69q31 29 61 57q78 73 89 73q8 0 8 -10q0 -11 -16 -43.5t-16 -44.5
q0 -21 17 -49l452 -744q51 -86 139 -86h86v-158z" />
    <glyph glyph-name="U0721Init" unicode="&#x20b;" horiz-adv-x="1061" 
d="M1011 311q0 -148 -51 -232q-48 -79 -126 -79h-155q-71 0 -97 11q-33 13 -68 63q-25 -74 -121 -74h-402v158h486q-18 60 -18 126l-280 177q-40 25 -40 55q0 29 32 120q11 32 21 65q9 29 17 29q10 0 10 -12q0 -9 -4.5 -31t-4.5 -32q0 -23 34 -44l253 -151q75 140 244 140
q142 0 217 -114q53 -82 53 -175zM869 306q0 136 -128 136q-62 0 -101.5 -37.5t-39.5 -98.5q0 -148 141 -148q128 0 128 148z" />
    <glyph glyph-name="U0721Medi" unicode="&#x20c;" horiz-adv-x="1082" 
d="M1088 0h-81l-40 59l-38 -59h-250q-71 0 -97 11q-33 13 -68 63q-25 -74 -121 -74h-393v158h477q-18 60 -18 126l-280 177q-40 25 -40 55q0 29 32 120q11 32 21 65q9 29 17 29q10 0 10 -12q0 -9 -4.5 -31t-4.5 -32q0 -23 34 -44l253 -151q75 140 244 140q142 0 217 -114
q53 -82 53 -175q0 -86 -18 -153h95v-158zM869 306q0 136 -128 136q-62 0 -101.5 -37.5t-39.5 -98.5q0 -148 141 -148q128 0 128 148z" />
    <glyph glyph-name="U0721Fina" unicode="&#x20d;" horiz-adv-x="939" 
d="M947 0h-753l-108 -142q-19 -25 -32 -25q-7 3 -7 8q0 6 9 22l323 579h-224q-71 0 -95 19q-34 29 -34 122q0 104 22 104q3 0 11 -23q9 -27 33 -42q35 -22 103 -22h531q69 0 104 22q23 15 33 42q8 23 10 23q17 0 17 -63q0 -29 -7 -83.5t-7 -84.5q0 -110 13 -192l22 -106h36
v-158zM754 158v284h-296l-174 -284h470z" />
    <glyph glyph-name="U0722Init" unicode="&#x20e;" horiz-adv-x="675" 
d="M632 0h-647v158h422v280h-131q-18 0 -18 15q0 6 6 26l30 93q10 28 37 28h181q25 0 25 -15q0 -8 -8 -33l-36 -110q14 -79 46 -157q42 -105 93 -127v-158z" />
    <glyph glyph-name="U0722Medi" unicode="&#x20f;" horiz-adv-x="675" 
d="M683 0h-139q-76 0 -118 46q-27 -30 -36 -36q-17 -10 -62 -10h-328v158h407v280h-131q-18 0 -18 15q0 6 6 26l30 93q10 28 37 28h181q25 0 25 -15q0 -8 -8 -33l-36 -110q20 -115 67 -204q43 -80 91 -80h32v-158z" />
    <glyph glyph-name="U0722Fina" unicode="&#x210;" horiz-adv-x="486" 
d="M494 0h-258v-18q0 -153 65 -292q22 -47 69 -133q36 -63 36 -72q0 -10 -6 -10q-41 0 -164 191q-135 212 -135 610q0 40 10 40q8 0 18 -32q24 -80 106 -108q53 -18 157 -18h102v-158z" />
    <glyph glyph-name="U0723Init" unicode="&#x211;" horiz-adv-x="1052" 
d="M1007 289q0 -137 -91 -217t-233 -80q-150 0 -302 111l-11 -103h-370v158h302l2 11q-112 123 -112 266q0 102 72 173t171 71q131 0 243 -160q53 44 131 44q106 0 160 -110q38 -78 38 -164zM849 293q0 112 -111 112q-54 0 -78 -33q-13 -17 -40 -96.5t-32 -114.5
q41 -11 107 -11q154 0 154 143zM582 386q0 55 -39.5 95t-96.5 40q-96 0 -96 -95q0 -65 51 -133.5t130 -107.5q51 148 51 201z" />
    <glyph glyph-name="U0723Medi" unicode="&#x212;" horiz-adv-x="1055" 
d="M1062 0h-177v42l-60 -42q-40 -8 -142 -8q-150 0 -302 111l-11 -103h-370v158h302l2 11q-112 123 -112 266q0 102 72 173t171 71q131 0 243 -160q53 44 131 44q106 0 160 -110q38 -78 38 -164q0 -72 -27 -131h82v-158zM849 293q0 112 -111 112q-54 0 -78 -33
q-13 -17 -40 -96.5t-32 -114.5q41 -11 107 -11q154 0 154 143zM582 386q0 55 -39.5 95t-96.5 40q-96 0 -96 -95q0 -65 51 -133.5t130 -107.5q51 148 51 201z" />
    <glyph glyph-name="U0723Fina" unicode="&#x213;" horiz-adv-x="1139" 
d="M1146 0h-183l-2 30l-76 -30q-40 -8 -118 -8q-150 0 -302 111l-11 -103h-212q-91 0 -131 25q-70 43 -70 174q0 85 27 85q3 0 18 -33q17 -39 45 -60q42 -33 111 -33h144l2 11q-112 123 -112 266q0 102 72 173t171 71q131 0 243 -160q53 44 132 44q105 0 159 -110
q38 -78 38 -164q0 -72 -27 -131h82v-158zM933 293q0 112 -111 112q-53 0 -78 -33q-13 -17 -40 -96.5t-32 -114.5q41 -11 107 -11q154 0 154 143zM666 386q0 55 -39.5 95t-96.5 40q-96 0 -96 -95q0 -65 51 -133.5t130 -107.5q51 148 51 201z" />
    <glyph glyph-name="U0724Init" unicode="&#x214;" horiz-adv-x="1037" 
d="M1007 289q0 -137 -91 -217t-233 -80q-150 0 -302 111l-11 -103h-370v158h302l2 11q-112 123 -112 266q0 102 72 173t171 71q131 0 243 -160q53 44 131 44q106 0 160 -110q38 -78 38 -164zM849 293q0 112 -111 112q-54 0 -78 -33q-13 -17 -40 -96.5t-32 -114.5
q41 -11 107 -11q154 0 154 143zM582 386q0 55 -39.5 95t-96.5 40q-96 0 -96 -95q0 -65 51 -133.5t130 -107.5q51 148 51 201z" />
    <glyph glyph-name="U0724Medi" unicode="&#x215;" horiz-adv-x="1052" 
d="M1062 0h-177v42l-60 -42q-40 -8 -142 -8q-150 0 -302 111l-11 -103h-370v158h302l2 11q-112 123 -112 266q0 102 72 173t171 71q131 0 243 -160q53 44 131 44q106 0 160 -110q38 -78 38 -164q0 -72 -27 -131h82v-158zM849 293q0 112 -111 112q-54 0 -78 -33
q-13 -17 -40 -96.5t-32 -114.5q41 -11 107 -11q154 0 154 143zM582 386q0 55 -39.5 95t-96.5 40q-96 0 -96 -95q0 -65 51 -133.5t130 -107.5q51 148 51 201z" />
    <glyph glyph-name="U0724Fina" unicode="&#x216;" horiz-adv-x="1139" 
d="M242 0q-91 0 -131 25q-70 43 -70 174q0 85 27 85q3 0 18 -33q17 -39 45 -60q42 -33 111 -33h144l2 11q-112 123 -112 266q0 102 72 173t171 71q131 0 243 -160q53 44 132 44q105 0 159 -110q38 -78 38 -164q0 -72 -27 -131h82v-158h-179v44l-55 -28q-53 -24 -145 -24
q-27 0 -76.5 4t-80.5 4h-368zM933 293q0 112 -111 112q-53 0 -78 -33q-13 -17 -40 -96.5t-32 -114.5q41 -11 107 -11q154 0 154 143zM666 386q0 55 -39.5 95t-96.5 40q-96 0 -96 -95q0 -65 51 -133.5t130 -107.5q51 148 51 201z" />
    <glyph glyph-name="U0725Init" unicode="&#x217;" horiz-adv-x="1105" 
d="M1056 243q0 -251 -216 -251q-73 0 -124 31q-32 19 -101 88l-43 -111h-572v158h552q-106 116 -316 386q-56 70 -56 118q0 15 104 174q33 50 38 50t6 -33q2 -99 54 -193q32 -58 150 -213q225 -297 336 -297q65 0 102 48q23 30 40 90q14 48 21 48q25 0 25 -93z" />
    <glyph glyph-name="U0725Medi" unicode="&#x218;" horiz-adv-x="1029" 
d="M1038 0h-168q-90 0 -126 14q-51 19 -129 97l-43 -111h-572v158h552q-106 116 -316 386q-56 70 -56 118q0 15 104 174q33 50 38 50t6 -33q2 -99 54 -194q32 -56 150 -212q109 -143 221 -236q63 -53 133 -53h152v-158z" />
    <glyph glyph-name="U0725Fina" unicode="&#x219;" horiz-adv-x="1265" 
d="M1275 0h-168q-90 0 -127 14q-51 19 -128 97l-43 -111h-567q-91 0 -131 25q-70 43 -70 174q0 85 27 85q3 0 18 -33q17 -39 45 -60q42 -33 111 -33h546q-106 116 -315 386q-57 70 -57 118q0 15 105 174q32 50 38 50q5 0 5 -33q2 -99 55 -193q32 -58 150 -213
q108 -143 220 -236q64 -53 133 -53h153v-158z" />
    <glyph glyph-name="U0726Init" unicode="&#x21a;" horiz-adv-x="885" 
d="M827 0h-842v158h640q22 0 22 63l-32 146h-112q-152 0 -219 38q-92 51 -92 195q0 150 172 201l162 49q48 14 92 46q38 28 44 28q7 0 7 -46q0 -69 13 -143q27 -147 90 -372q55 -199 55 -205v-158zM591 468l-52 240q-103 -17 -125 -26q-64 -28 -64 -99q0 -72 38 -97
q27 -18 97 -18h106z" />
    <glyph glyph-name="U0726Medi" unicode="&#x21b;" horiz-adv-x="807" 
d="M815 0h-839v158h637q22 0 22 63l-32 146h-112q-152 0 -219 38q-92 51 -92 195q0 150 172 201l162 49q48 14 92 46q38 28 44 28q7 0 7 -46q0 -69 13 -143q27 -147 90 -372q55 -199 55 -205v-158zM579 468l-52 240q-103 -17 -125 -26q-64 -28 -64 -99q0 -72 38 -97
q27 -18 97 -18h106z" />
    <glyph glyph-name="U0726Fina" unicode="&#x21c;" horiz-adv-x="1076" 
d="M1084 0h-871q-90 0 -130 25q-70 43 -70 174q0 85 27 85q2 0 17 -33q18 -39 46 -60q42 -33 110 -33h668q23 0 23 63l-32 146h-112q-153 0 -219 38q-93 51 -93 195q0 150 172 201l162 49q48 14 92 46q39 28 45 28q7 0 7 -46q0 -69 13 -143q27 -147 90 -372q55 -199 55 -205
v-158zM848 468l-52 240q-104 -17 -125 -26q-65 -28 -65 -99q0 -72 38 -97q28 -18 98 -18h106z" />
    <glyph glyph-name="U0727Init" unicode="&#x21d;" horiz-adv-x="924" 
d="M907 -10q-66 0 -152 80l-204 -292l-280 341q-28 -48 -91 -132q-79 -103 -103 -103q-11 0 -11 15q0 16 28 50q45 53 76 102q243 391 243 557q0 57 -45 71q-42 8 -83 16q-45 17 -45 80q0 39 36 89q39 54 77 54q57 0 85 -100q20 -71 20 -152q0 -96 -36 -207
q-15 -48 -77 -198l266 -345l125 181l-177 232q-31 43 -31 57q0 20 35 105q53 130 64 130q16 0 16 -17q0 -3 -6.5 -44.5t-6.5 -62.5q0 -37 33 -80l163 -215q21 -27 57 -59q24 -21 24 -34v-119z" />
    <glyph glyph-name="U0727Medi" unicode="&#x21e;" horiz-adv-x="915" 
d="M924 0h-75q-48 0 -94 70l-204 -292l-280 341q-28 -48 -91 -132q-79 -103 -103 -103q-11 0 -11 15q0 16 28 50q45 53 76 102q243 391 243 557q0 57 -45 71q-42 8 -83 16q-45 17 -45 80q0 39 36 89q39 54 77 54q57 0 85 -100q20 -71 20 -152q0 -96 -36 -207
q-15 -48 -77 -198l266 -345l125 181l-177 232q-31 43 -31 57q0 20 35 105q53 130 64 130q16 0 16 -17q0 -3 -6.5 -44.5t-6.5 -62.5q0 -37 33 -80l163 -215q33 -44 60 -44h38v-158z" />
    <glyph glyph-name="U0727Fina" unicode="&#x21f;" horiz-adv-x="915" 
d="M924 0h-75q-48 0 -94 70l-204 -292l-280 341q-28 -48 -91 -132q-79 -103 -103 -103q-11 0 -11 15q0 16 28 50q45 53 76 102q243 391 243 557q0 57 -45 71q-42 8 -83 16q-45 17 -45 80q0 39 36 89q39 54 77 54q57 0 85 -100q20 -71 20 -152q0 -96 -36 -207
q-15 -48 -77 -198l266 -345l125 181l-177 232q-31 43 -31 57q0 20 35 105q53 130 64 130q16 0 16 -17q0 -3 -6.5 -44.5t-6.5 -62.5q0 -37 33 -80l163 -215q33 -44 60 -44h38v-158z" />
    <glyph glyph-name="U0728Fina" unicode="&#x220;" horiz-adv-x="693" 
d="M701 0q-45 0 -70 16q-16 9 -54 50q-49 -74 -186 -74q-58 0 -126 12q50 -121 205 -252q105 -89 217 -152v-123q-263 -2 -275 -2q-294 0 -359 6q-21 1 -21 14q0 12 22 12l490 9q-215 162 -316 284q-160 194 -160 399q0 106 25 106q4 0 11 -18q22 -61 87 -100
q62 -37 130 -37q191 0 211 152q46 -63 73 -90q53 -54 96 -54v-158z" />
    <glyph glyph-name="U0729Init" unicode="&#x221;" horiz-adv-x="870" 
d="M814 382q0 -382 -90 -382h-352q-94 0 -152 97q-34 -97 -88 -97h-132v158h214q-22 59 -22 224q0 98 21 196q20 91 35 91q11 0 23.5 -34.5t78.5 -34.5h306q66 0 78.5 34.5t23.5 34.5q15 0 35 -91q21 -98 21 -196zM656 158v284h-306v-284h306z" />
    <glyph glyph-name="U0729Medi" unicode="&#x222;" horiz-adv-x="870" 
d="M879 0h-48l-49 56l-10 -56h-412q-94 0 -152 97q-34 -97 -88 -97h-120v158h202q-22 59 -22 224q0 98 21 196q20 91 35 91q11 0 23.5 -34.5t78.5 -34.5h306q66 0 78.5 34.5t23.5 34.5q15 0 35 -91q21 -98 21 -196q0 -138 -11 -224h88v-158zM644 158v284h-306v-284h306z" />
    <glyph glyph-name="U0729Fina" unicode="&#x223;" horiz-adv-x="1061" 
d="M1071 0h-62l-38 44l-13 -44h-406q-93 0 -151 97q-34 -97 -89 -97h-74q-91 0 -131 25q-70 43 -70 174q0 85 27 85q3 0 17 -33q18 -39 46 -60q42 -33 111 -33h157q-23 59 -23 224q0 98 22 196q19 91 34 91q12 0 24 -34.5t78 -34.5h307q66 0 78 34.5t24 34.5q15 0 34 -91
q22 -98 22 -196q0 -138 -12 -224h88v-158zM837 158v284h-307v-284h307z" />
    <glyph glyph-name="U072aFina" unicode="&#x224;" horiz-adv-x="723" 
d="M399 767h-158v158h158v-158zM736 0h-35l-37 63l-14 -63h-510v158h352q0 2 3 75v4q0 57 -51 125q-59 80 -141 80q-6 0 -13 -1q-71 -5 -106 -46q-32 -38 -32 -41q-14 0 -14 49v170q56 35 142 35q384 0 384 -439v-11h72v-158z" />
    <glyph glyph-name="U072bInit" unicode="&#x225;" horiz-adv-x="792" 
d="M797 0h-134q-87 0 -174 111q-33 -111 -60 -111h-429v158h422v284h-73q-80 0 -115 19q-54 31 -54 122q0 87 22 87q3 0 11 -18q9 -22 33 -34q35 -18 103 -18h231q69 0 104 18q23 12 32 34q8 18 11 18q23 0 23 -87q0 -91 -55 -122q-34 -19 -115 -19h-69q-6 -34 -6 -78
q0 -206 202 -206h90v-158z" />
    <glyph glyph-name="U072bMedi" unicode="&#x226;" horiz-adv-x="801" 
d="M809 0h-134q-87 0 -174 111q-33 -111 -60 -111h-441v158h434v284h-73q-80 0 -115 19q-54 31 -54 122q0 87 22 87q3 0 11 -18q9 -22 33 -34q35 -18 103 -18h231q69 0 104 18q23 12 32 34q8 18 11 18q23 0 23 -87q0 -91 -55 -122q-34 -19 -115 -19h-69q-6 -34 -6 -78
q0 -206 202 -206h90v-158z" />
    <glyph glyph-name="U072bFina" unicode="&#x227;" horiz-adv-x="966" 
d="M974 0h-134q-87 0 -174 111q-33 -111 -60 -111h-393q-90 0 -130 25q-70 43 -70 174q0 85 27 85q2 0 17 -33q18 -39 46 -60q42 -33 110 -33h386v284h-73q-80 0 -115 19q-54 31 -54 122q0 87 22 87q3 0 11 -18q9 -22 33 -34q35 -18 103 -18h231q69 0 104 18q23 12 33 34
q8 18 10 18q23 0 23 -87q0 -91 -55 -122q-34 -19 -115 -19h-69q-6 -34 -6 -78q0 -206 202 -206h90v-158z" />
    <glyph glyph-name="U072cFina" unicode="&#x228;" horiz-adv-x="987" 
d="M995 0h-104q-32 0 -131 105l-511 543l-105 -377l61 2q118 0 242 -91q100 -73 165 -171q13 -20 13 -23q0 -11 -13 -11q0 3 -60 66q-64 66 -117 66q-57 0 -146.5 -62t-123.5 -62q-108 0 -108 115q0 34 33 153l158 563q10 37 30 37q14 0 41 -30l510 -551l70 -80
q33 -34 56 -34h40v-158z" />
    <glyph glyph-name="U0720U0710Isol" unicode="&#x229;" horiz-adv-x="1511" 
d="M1492 103q0 -103 -153 -103h-1168q-36 -43 -73 -87q-65 -75 -78 -75q-16 0 -16 17q0 2 41 49q403 449 403 706q0 14 -4 37q-67 -18 -114 -18t-76 35q-28 32 -28 80q0 54 50 105t104 51q58 0 94 -74q29 -60 29 -125q0 -281 -201 -543h1031l-476 693q-32 48 -32 85
q0 36 30 69q31 29 61 57q78 73 89 73q8 0 8 -10q0 -11 -16 -43.5t-16 -44.5q0 -21 17 -49l452 -744q42 -71 42 -141z" />
    <glyph glyph-name="U0720U0710Fina" unicode="&#x22a;" horiz-adv-x="1604" 
d="M1609 0h-90q-86 0 -145 62q-17 -22 -35 -44q-20 -18 -62 -18h-1106q-36 -43 -73 -87q-65 -75 -78 -75q-16 0 -16 17q0 2 41 49q403 449 403 706q0 14 -4 37q-67 -18 -114 -18t-76 35q-28 32 -28 80q0 54 50 105t104 51q58 0 94 -74q29 -60 29 -125q0 -281 -201 -543h1031
l-476 693q-32 48 -32 85q0 36 30 69q31 29 61 57q78 73 89 73q8 0 8 -10q0 -11 -16 -43.5t-16 -44.5q0 -21 17 -49l452 -744q51 -86 101 -86h58v-158z" />
    <glyph glyph-name="U0728U0722Isol" unicode="&#x22b;" horiz-adv-x="1172" 
d="M1154 0q-45 0 -71 16q-15 9 -54 50q-48 -74 -186 -74q-58 0 -126 12q34 -80 114 -165q76 -4 200 -4q11 0 34.5 1.5t30.5 1.5q16 0 16 -8q0 -9 -63.5 -18t-175.5 -16q121 -114 266 -196v-123q-263 -2 -275 -2q-647 0 -713 6q-21 1 -21 14q0 12 22 12l844 9
q-204 154 -303 270q-87 -4 -127 -4q-147 0 -296 55q-182 67 -182 170q0 60 72 60q37 0 152 -83q127 -92 245 -116q39 -8 82 -14q-118 168 -118 345q0 106 25 106q4 0 10 -18q22 -61 88 -100q61 -37 130 -37q191 0 210 152q46 -63 73 -90q53 -54 97 -54v-158z" />
    <glyph glyph-name="U0728U0722Fina" unicode="&#x22c;" horiz-adv-x="1145" 
d="M1154 0q-45 0 -71 16q-15 9 -54 50q-48 -74 -186 -74q-58 0 -126 12q34 -80 114 -165q76 -4 200 -4q11 0 34.5 1.5t30.5 1.5q16 0 16 -8q0 -9 -63.5 -18t-175.5 -16q121 -114 266 -196v-123q-263 -2 -275 -2q-647 0 -713 6q-21 1 -21 14q0 12 22 12l844 9
q-204 154 -303 270q-87 -4 -127 -4q-147 0 -296 55q-182 67 -182 170q0 60 72 60q37 0 152 -83q127 -92 245 -116q38 -8 82 -14q-118 168 -118 345q0 106 25 106q4 0 10 -18q22 -61 88 -100q61 -37 130 -37q191 0 210 152q46 -63 73 -90q53 -54 97 -54v-158z" />
    <glyph glyph-name="U072cU0710Isol" unicode="&#x22d;" horiz-adv-x="924" 
d="M907 -10q-66 0 -152 80l-204 -292l-280 341q-28 -48 -91 -132q-79 -103 -103 -103q-11 0 -11 15q0 16 28 50q45 53 76 102q243 391 243 557q0 57 -45 71q-42 8 -83 16q-45 17 -45 80q0 39 36 89q39 54 77 54q57 0 85 -100q20 -71 20 -152q0 -96 -36 -207
q-15 -48 -77 -198l266 -345l125 181l-177 232q-31 43 -31 57q0 20 35 105q53 130 64 130q16 0 16 -17q0 -3 -6.5 -44.5t-6.5 -62.5q0 -37 33 -80l163 -215q21 -27 57 -59q24 -21 24 -34v-119z" />
    <glyph glyph-name="U072cU0710Fina" unicode="&#x22e;" horiz-adv-x="915" 
d="M924 0h-75q-48 0 -94 70l-204 -292l-280 341q-28 -48 -91 -132q-79 -103 -103 -103q-11 0 -11 15q0 16 28 50q45 53 76 102q243 391 243 557q0 57 -45 71q-42 8 -83 16q-45 17 -45 80q0 39 36 89q39 54 77 54q57 0 85 -100q20 -71 20 -152q0 -96 -36 -207
q-15 -48 -77 -198l266 -345l125 181l-177 232q-31 43 -31 57q0 20 35 105q53 130 64 130q16 0 16 -17q0 -3 -6.5 -44.5t-6.5 -62.5q0 -37 33 -80l163 -215q33 -44 60 -44h38v-158z" />
    <glyph glyph-name="U0717U071dIsol" unicode="&#x22f;" horiz-adv-x="1211" 
d="M1164 -117q0 -31 -12 -31q-14 0 -16 30l-46 560h-128q0 -218 -34 -305q-58 -145 -238 -145q-114 0 -192.5 65t-97.5 177l-269 -287q-35 -37 -43 -37q-20 0 -20 19q0 9 25 36l213 232l-209 188q-37 33 -37 46q0 12 47.5 69t66.5 57q12 0 41 -26l187 -169q18 93 69 160
q60 78 139 78h437q41 0 68 23t31 23q10 0 10 -30zM861 360q0 34 -9 82h-237q-37 0 -64 -41q-22 -36 -22 -72q0 -65 46 -120q49 -59 115 -59q171 0 171 210z" />
    <glyph glyph-name="U0717U071dFina" unicode="&#x230;" horiz-adv-x="1241" 
d="M1250 0h-88l2 -117q0 -31 -12 -31q-14 0 -16 30l-46 560h-128q0 -218 -34 -305q-58 -145 -238 -145q-114 0 -192.5 65t-97.5 177l-269 -287q-35 -37 -43 -37q-20 0 -20 19q0 9 25 36l213 232l-209 188q-37 33 -37 46q0 12 47.5 69t66.5 57q12 0 41 -26l187 -169
q18 93 69 160q60 78 139 78h437q40 0 67.5 23t31.5 23q10 0 10 -30l5 -458h89v-158zM861 360q0 34 -9 82h-237q-37 0 -64 -41q-22 -36 -22 -72q0 -65 46 -120q49 -59 115 -59q171 0 171 210z" />
    <glyph glyph-name="U072cU071dIsol" unicode="&#x231;" horiz-adv-x="1521" 
d="M1492 0q-67 45 -623 648l-105 -377l61 2q118 0 242 -91q100 -73 165 -171q13 -20 13 -23q0 -11 -13 -11q0 3 -60 66q-64 66 -117 66q-57 0 -146.5 -62t-123.5 -62q-52 0 -120 66q-48 53 -97 107l-8 -158h-238q-90 0 -130 25q-70 43 -70 174q0 85 26 85q3 0 18 -33
q17 -39 45 -60q42 -33 111 -33h186l17 221q78 -73 180 -145l5 19l158 563q10 37 30 37q14 0 41 -30l510 -551q43 -47 43 -138v-134z" />
    <glyph glyph-name="U072cU071dFina" unicode="&#x232;" horiz-adv-x="1604" 
d="M1615 0h-104q-32 0 -131 105l-511 543l-105 -377l61 2q118 0 242 -91q100 -73 165 -171q13 -20 13 -23q0 -11 -13 -11q0 3 -60 66q-64 66 -117 66q-57 0 -146.5 -62t-123.5 -62q-52 0 -120 66q-48 53 -97 107l-8 -158h-238q-90 0 -130 25q-70 43 -70 174q0 85 26 85
q3 0 18 -33q17 -39 45 -60q42 -33 111 -33h186l17 221q78 -73 180 -145l5 19l158 563q10 37 30 37q14 0 41 -30l510 -551l70 -80q33 -34 56 -34h40v-158z" />
    <glyph glyph-name="U072cU0710IsolAlt" unicode="&#x235;" horiz-adv-x="1203" 
d="M1155 251q2 -136 2 -199q0 -42 -1 -52h-85l-1 151q-1 126 -20 186q-33 101 -124 101q-52 0 -80 -48q-21 -38 -21 -86v-146h138v-158h-612q-37 -43 -73 -87q-66 -75 -79 -75q-16 0 -16 17q0 2 42 49q216 241 319 436l-363 189q-59 31 -59 73q0 32 11 77q14 57 16 77
q5 38 21 38q9 0 28 -60q22 -68 62 -89l340 -180q28 80 28 145q0 14 -5 37q-67 -18 -114 -18t-76 35q-28 32 -28 80q0 54 50 105t104 51q58 0 94 -74q29 -60 29 -125q0 -128 -44 -256l110 -59q15 88 64 150q56 72 135 72q203 0 208 -357zM743 207q0 29 -54 57l-105 55
q-43 -83 -103 -161h262v49z" />
    <glyph glyph-name="U072cU0710FinaAlt" unicode="&#x236;" horiz-adv-x="1241" 
d="M1249 0h-187q8 84 8 151q-1 126 -20 186q-33 101 -124 101q-52 0 -80 -48q-21 -38 -21 -86v-146h138v-158h-612q-37 -43 -73 -87q-66 -75 -79 -75q-16 0 -16 17q0 2 42 49q216 241 319 436l-363 189q-59 31 -59 73q0 32 11 77q14 57 16 77q5 38 21 38q9 0 28 -60
q22 -68 62 -89l340 -180q28 80 28 145q0 14 -5 37q-67 -18 -114 -18t-76 35q-28 32 -28 80q0 54 50 105t104 51q58 0 94 -74q29 -60 29 -125q0 -128 -44 -256l110 -59q15 88 64 150q56 72 135 72q203 0 208 -357q0 -41 -2 -93h96v-158zM743 207q0 29 -54 57l-105 55
q-43 -83 -103 -161h262v49z" />
    <glyph glyph-name="uni0237" unicode="&#x237;" horiz-adv-x="615" 
d="M631 158v-158h-460q-36 -43 -73 -87q-65 -75 -78 -75q-16 0 -16 17q0 2 41 49q403 449 403 706q0 14 -4 37q-67 -18 -114 -18t-76 35q-28 32 -28 80q0 54 50 105t104 51q58 0 94 -74q29 -60 29 -125q0 -281 -201 -543h329z" />
    <glyph glyph-name="U0726U032e" unicode="&#x238;" horiz-adv-x="1130" 
d="M1084 0h-871q-90 0 -130 25q-70 43 -70 174q0 85 27 85q2 0 17 -33q18 -39 46 -60q42 -33 110 -33h668q23 0 23 63l-32 146h-112q-153 0 -219 38q-93 51 -93 195q0 150 172 201l162 49q48 14 92 46q39 28 45 28q7 0 7 -46q0 -69 13 -143q27 -147 90 -372q55 -199 55 -205
v-158zM848 468l-52 240q-104 -17 -125 -26q-65 -28 -65 -99q0 -72 38 -97q28 -18 98 -18h106zM790 -92q0 -97 -76 -159q-67 -54 -149 -54h-6q-69 1 -126 53q-60 54 -71 132q-5 32 -5 55q0 38 12 55q4 -50 29 -97q58 -111 169 -111h2q80 1 131.5 42.5t66.5 108.5q9 43 9 54
q0 5 -1 5q1 -1 3 -6q12 -30 12 -78z" />
    <glyph glyph-name="U0726InitU032e" unicode="&#x239;" horiz-adv-x="885" 
d="M827 0h-827v158h625q22 0 22 63l-32 146h-112q-152 0 -219 38q-92 51 -92 195q0 150 172 201l162 49q48 14 92 46q38 28 44 28q7 0 7 -46q0 -69 13 -143q27 -147 90 -372q55 -199 55 -205v-158zM591 468l-52 240q-103 -17 -125 -26q-64 -28 -64 -99q0 -72 38 -97
q27 -18 97 -18h106zM626 -86q0 -97 -76 -159q-67 -54 -149 -54h-6q-69 1 -126 53q-60 54 -71 132q-5 32 -5 56q0 37 12 54q4 -50 29 -97q58 -111 169 -111h2q80 1 131 42.5t66 108.5q10 41 10 54q0 5 -2 5q1 -1 4 -6q12 -30 12 -78z" />
    <glyph glyph-name="U0726MediU032e" unicode="&#x23a;" horiz-adv-x="873" 
d="M815 0h-815v158h613q22 0 22 63l-32 146h-112q-152 0 -219 38q-92 51 -92 195q0 150 172 201l162 49q48 14 92 46q38 28 44 28q7 0 7 -46q0 -69 13 -143q27 -147 90 -372q55 -199 55 -205v-158zM579 468l-52 240q-103 -17 -125 -26q-64 -28 -64 -99q0 -72 38 -97
q27 -18 97 -18h106zM626 -86q0 -97 -76 -159q-67 -54 -149 -54h-6q-69 1 -126 53q-60 54 -71 132q-5 32 -5 56q0 37 12 54q4 -50 29 -97q58 -111 169 -111h2q80 1 131 42.5t66 108.5q10 41 10 54q0 5 -2 5q1 -1 4 -6q12 -30 12 -78z" />
    <glyph glyph-name="U0726FinaU032e" unicode="&#x23b;" horiz-adv-x="1073" 
d="M1084 0h-871q-90 0 -130 25q-70 43 -70 174q0 85 27 85q2 0 17 -33q18 -39 46 -60q42 -33 110 -33h668q23 0 23 63l-32 146h-112q-153 0 -219 38q-93 51 -93 195q0 150 172 201l162 49q48 14 92 46q39 28 45 28q7 0 7 -46q0 -69 13 -143q27 -147 90 -372q55 -199 55 -205
v-158zM848 468l-52 240q-104 -17 -125 -26q-65 -28 -65 -99q0 -72 38 -97q28 -18 98 -18h106zM790 -92q0 -97 -76 -159q-67 -54 -149 -54h-6q-69 1 -126 53q-60 54 -71 132q-5 32 -5 55q0 38 12 55q4 -50 29 -97q58 -111 169 -111h2q80 1 131.5 42.5t66.5 108.5q9 43 9 54
q0 5 -1 5q1 -1 3 -6q12 -30 12 -78z" />
    <glyph glyph-name="U072cU0710IsolAlt3" unicode="&#x23e;" horiz-adv-x="1420" 
d="M1422 0q-67 45 -623 648l-105 -377l61 2q118 0 242 -91q100 -73 165 -171q13 -20 13 -23q0 -11 -13 -11q0 3 -60 66q-64 66 -117 66q-57 0 -146.5 -62t-123.5 -62q-108 0 -108 115q0 34 33 153l158 563q10 37 30 37q14 0 41 -30l510 -551q43 -47 43 -138v-134zM478 0
h-273v-220q0 -43 -9 -43q-12 0 -27 51q-22 71 -63 129q-50 72 -105 81v164q78 34 170.5 173.5t92.5 226.5q0 96 -72 104q2 0 -40 -1h-6q-82 0 -82 79q0 49 40 93.5t86 44.5q65 0 104 -74q33 -62 33 -137q0 -72 -78 -513h229v-158z" />
    <glyph glyph-name="U072cU0710FinaAlt3" unicode="&#x23f;" horiz-adv-x="1529" 
d="M1535 0h-104q-32 0 -131 105l-511 543l-105 -377l61 2q118 0 242 -91q100 -73 165 -171q13 -20 13 -23q0 -11 -13 -11q0 3 -60 66q-64 66 -117 66q-57 0 -146.5 -62t-123.5 -62q-108 0 -108 115q0 34 33 153l158 563q10 37 30 37q14 0 41 -30l510 -551l70 -80
q33 -34 56 -34h40v-158zM482 0h-277v-220q0 -43 -9 -43q-12 0 -27 51q-22 71 -63 129q-50 72 -105 81v164q78 34 170.5 173.5t92.5 226.5q0 96 -72 104q2 0 -40 -1h-6q-82 0 -82 79q0 49 40 93.5t86 44.5q65 0 104 -74q33 -62 33 -137q0 -72 -78 -513h233v-158z" />
    <glyph glyph-name="uni0240" unicode="&#x240;" 
d="M546 1138l334 -571l-334 -567h-89l-313 567l313 571h89zM502 1060l-272 -493l272 -492l288 492z" />
    <glyph glyph-name="uni0241" unicode="&#x241;" 
d="M546 1138l334 -571l-334 -567h-89l-313 567l313 571h89zM502 1060l-272 -493l272 -492l288 492z" />
    <glyph glyph-name="uni0242" unicode="&#x242;" 
d="M546 1138l334 -571l-334 -567h-89l-313 567l313 571h89zM502 1060l-272 -493l272 -492l288 492z" />
    <glyph glyph-name="uni0243" unicode="&#x243;" 
d="M546 1138l334 -571l-334 -567h-89l-313 567l313 571h89zM502 1060l-272 -493l272 -492l288 492z" />
    <glyph glyph-name="uni0244" unicode="&#x244;" 
d="M546 1138l334 -571l-334 -567h-89l-313 567l313 571h89zM502 1060l-272 -493l272 -492l288 492z" />
    <glyph glyph-name="uni0245" unicode="&#x245;" 
d="M546 1138l334 -571l-334 -567h-89l-313 567l313 571h89zM502 1060l-272 -493l272 -492l288 492z" />
    <glyph glyph-name="uni0246" unicode="&#x246;" 
d="M546 1138l334 -571l-334 -567h-89l-313 567l313 571h89zM502 1060l-272 -493l272 -492l288 492z" />
    <glyph glyph-name="uni0247" unicode="&#x247;" 
d="M546 1138l334 -571l-334 -567h-89l-313 567l313 571h89zM502 1060l-272 -493l272 -492l288 492z" />
    <glyph glyph-name="uni0248" unicode="&#x248;" 
d="M546 1138l334 -571l-334 -567h-89l-313 567l313 571h89zM502 1060l-272 -493l272 -492l288 492z" />
    <glyph glyph-name="uni0249" unicode="&#x249;" 
d="M546 1138l334 -571l-334 -567h-89l-313 567l313 571h89zM502 1060l-272 -493l272 -492l288 492z" />
    <glyph glyph-name="uni024A" unicode="&#x24a;" 
d="M546 1138l334 -571l-334 -567h-89l-313 567l313 571h89zM502 1060l-272 -493l272 -492l288 492z" />
    <glyph glyph-name="uni024B" unicode="&#x24b;" 
d="M546 1138l334 -571l-334 -567h-89l-313 567l313 571h89zM502 1060l-272 -493l272 -492l288 492z" />
    <glyph glyph-name="uni024C" unicode="&#x24c;" 
d="M546 1138l334 -571l-334 -567h-89l-313 567l313 571h89zM502 1060l-272 -493l272 -492l288 492z" />
    <glyph glyph-name="uni024D" unicode="&#x24d;" 
d="M546 1138l334 -571l-334 -567h-89l-313 567l313 571h89zM502 1060l-272 -493l272 -492l288 492z" />
    <glyph glyph-name="uni024E" unicode="&#x24e;" 
d="M546 1138l334 -571l-334 -567h-89l-313 567l313 571h89zM502 1060l-272 -493l272 -492l288 492z" />
    <glyph glyph-name="uni024F" unicode="&#x24f;" 
d="M546 1138l334 -571l-334 -567h-89l-313 567l313 571h89zM502 1060l-272 -493l272 -492l288 492z" />
    <glyph glyph-name="uni0250" unicode="&#x250;" 
d="M546 1138l334 -571l-334 -567h-89l-313 567l313 571h89zM502 1060l-272 -493l272 -492l288 492z" />
    <glyph glyph-name="uni0251" unicode="&#x251;" 
d="M546 1138l334 -571l-334 -567h-89l-313 567l313 571h89zM502 1060l-272 -493l272 -492l288 492z" />
    <glyph glyph-name="uni0252" unicode="&#x252;" 
d="M546 1138l334 -571l-334 -567h-89l-313 567l313 571h89zM502 1060l-272 -493l272 -492l288 492z" />
    <glyph glyph-name="uni0253" unicode="&#x253;" 
d="M546 1138l334 -571l-334 -567h-89l-313 567l313 571h89zM502 1060l-272 -493l272 -492l288 492z" />
    <glyph glyph-name="uni0254" unicode="&#x254;" 
d="M546 1138l334 -571l-334 -567h-89l-313 567l313 571h89zM502 1060l-272 -493l272 -492l288 492z" />
    <glyph glyph-name="uni0255" unicode="&#x255;" 
d="M546 1138l334 -571l-334 -567h-89l-313 567l313 571h89zM502 1060l-272 -493l272 -492l288 492z" />
    <glyph glyph-name="uni0256" unicode="&#x256;" 
d="M546 1138l334 -571l-334 -567h-89l-313 567l313 571h89zM502 1060l-272 -493l272 -492l288 492z" />
    <glyph glyph-name="uni0257" unicode="&#x257;" 
d="M546 1138l334 -571l-334 -567h-89l-313 567l313 571h89zM502 1060l-272 -493l272 -492l288 492z" />
    <glyph glyph-name="uni0258" unicode="&#x258;" 
d="M546 1138l334 -571l-334 -567h-89l-313 567l313 571h89zM502 1060l-272 -493l272 -492l288 492z" />
    <glyph glyph-name="uni0259" unicode="&#x259;" 
d="M546 1138l334 -571l-334 -567h-89l-313 567l313 571h89zM502 1060l-272 -493l272 -492l288 492z" />
    <glyph glyph-name="uni025A" unicode="&#x25a;" 
d="M546 1138l334 -571l-334 -567h-89l-313 567l313 571h89zM502 1060l-272 -493l272 -492l288 492z" />
    <glyph glyph-name="uni025B" unicode="&#x25b;" 
d="M546 1138l334 -571l-334 -567h-89l-313 567l313 571h89zM502 1060l-272 -493l272 -492l288 492z" />
    <glyph glyph-name="uni025C" unicode="&#x25c;" 
d="M546 1138l334 -571l-334 -567h-89l-313 567l313 571h89zM502 1060l-272 -493l272 -492l288 492z" />
    <glyph glyph-name="uni025D" unicode="&#x25d;" 
d="M546 1138l334 -571l-334 -567h-89l-313 567l313 571h89zM502 1060l-272 -493l272 -492l288 492z" />
    <glyph glyph-name="uni025E" unicode="&#x25e;" 
d="M546 1138l334 -571l-334 -567h-89l-313 567l313 571h89zM502 1060l-272 -493l272 -492l288 492z" />
    <glyph glyph-name="uni025F" unicode="&#x25f;" 
d="M546 1138l334 -571l-334 -567h-89l-313 567l313 571h89zM502 1060l-272 -493l272 -492l288 492z" />
    <glyph glyph-name="uni0260" unicode="&#x260;" 
d="M546 1138l334 -571l-334 -567h-89l-313 567l313 571h89zM502 1060l-272 -493l272 -492l288 492z" />
    <glyph glyph-name="uni0261" unicode="&#x261;" 
d="M546 1138l334 -571l-334 -567h-89l-313 567l313 571h89zM502 1060l-272 -493l272 -492l288 492z" />
    <glyph glyph-name="uni0262" unicode="&#x262;" 
d="M546 1138l334 -571l-334 -567h-89l-313 567l313 571h89zM502 1060l-272 -493l272 -492l288 492z" />
    <glyph glyph-name="uni0263" unicode="&#x263;" 
d="M546 1138l334 -571l-334 -567h-89l-313 567l313 571h89zM502 1060l-272 -493l272 -492l288 492z" />
    <glyph glyph-name="uni0264" unicode="&#x264;" 
d="M546 1138l334 -571l-334 -567h-89l-313 567l313 571h89zM502 1060l-272 -493l272 -492l288 492z" />
    <glyph glyph-name="uni0265" unicode="&#x265;" 
d="M546 1138l334 -571l-334 -567h-89l-313 567l313 571h89zM502 1060l-272 -493l272 -492l288 492z" />
    <glyph glyph-name="uni0266" unicode="&#x266;" 
d="M546 1138l334 -571l-334 -567h-89l-313 567l313 571h89zM502 1060l-272 -493l272 -492l288 492z" />
    <glyph glyph-name="uni0267" unicode="&#x267;" 
d="M546 1138l334 -571l-334 -567h-89l-313 567l313 571h89zM502 1060l-272 -493l272 -492l288 492z" />
    <glyph glyph-name="uni0268" unicode="&#x268;" 
d="M546 1138l334 -571l-334 -567h-89l-313 567l313 571h89zM502 1060l-272 -493l272 -492l288 492z" />
    <glyph glyph-name="uni0269" unicode="&#x269;" 
d="M546 1138l334 -571l-334 -567h-89l-313 567l313 571h89zM502 1060l-272 -493l272 -492l288 492z" />
    <glyph glyph-name="uni026A" unicode="&#x26a;" 
d="M546 1138l334 -571l-334 -567h-89l-313 567l313 571h89zM502 1060l-272 -493l272 -492l288 492z" />
    <glyph glyph-name="uni026B" unicode="&#x26b;" 
d="M546 1138l334 -571l-334 -567h-89l-313 567l313 571h89zM502 1060l-272 -493l272 -492l288 492z" />
    <glyph glyph-name="uni026C" unicode="&#x26c;" 
d="M546 1138l334 -571l-334 -567h-89l-313 567l313 571h89zM502 1060l-272 -493l272 -492l288 492z" />
    <glyph glyph-name="uni026D" unicode="&#x26d;" 
d="M546 1138l334 -571l-334 -567h-89l-313 567l313 571h89zM502 1060l-272 -493l272 -492l288 492z" />
    <glyph glyph-name="uni026E" unicode="&#x26e;" 
d="M546 1138l334 -571l-334 -567h-89l-313 567l313 571h89zM502 1060l-272 -493l272 -492l288 492z" />
    <glyph glyph-name="uni026F" unicode="&#x26f;" 
d="M546 1138l334 -571l-334 -567h-89l-313 567l313 571h89zM502 1060l-272 -493l272 -492l288 492z" />
    <glyph glyph-name="uni0270" unicode="&#x270;" 
d="M546 1138l334 -571l-334 -567h-89l-313 567l313 571h89zM502 1060l-272 -493l272 -492l288 492z" />
    <glyph glyph-name="uni0271" unicode="&#x271;" 
d="M546 1138l334 -571l-334 -567h-89l-313 567l313 571h89zM502 1060l-272 -493l272 -492l288 492z" />
    <glyph glyph-name="uni0272" unicode="&#x272;" 
d="M546 1138l334 -571l-334 -567h-89l-313 567l313 571h89zM502 1060l-272 -493l272 -492l288 492z" />
    <glyph glyph-name="uni0273" unicode="&#x273;" 
d="M546 1138l334 -571l-334 -567h-89l-313 567l313 571h89zM502 1060l-272 -493l272 -492l288 492z" />
    <glyph glyph-name="uni0274" unicode="&#x274;" 
d="M546 1138l334 -571l-334 -567h-89l-313 567l313 571h89zM502 1060l-272 -493l272 -492l288 492z" />
    <glyph glyph-name="uni0275" unicode="&#x275;" 
d="M546 1138l334 -571l-334 -567h-89l-313 567l313 571h89zM502 1060l-272 -493l272 -492l288 492z" />
    <glyph glyph-name="uni0276" unicode="&#x276;" 
d="M546 1138l334 -571l-334 -567h-89l-313 567l313 571h89zM502 1060l-272 -493l272 -492l288 492z" />
    <glyph glyph-name="uni0277" unicode="&#x277;" 
d="M546 1138l334 -571l-334 -567h-89l-313 567l313 571h89zM502 1060l-272 -493l272 -492l288 492z" />
    <glyph glyph-name="uni0278" unicode="&#x278;" 
d="M546 1138l334 -571l-334 -567h-89l-313 567l313 571h89zM502 1060l-272 -493l272 -492l288 492z" />
    <glyph glyph-name="uni0279" unicode="&#x279;" 
d="M546 1138l334 -571l-334 -567h-89l-313 567l313 571h89zM502 1060l-272 -493l272 -492l288 492z" />
    <glyph glyph-name="uni027A" unicode="&#x27a;" 
d="M546 1138l334 -571l-334 -567h-89l-313 567l313 571h89zM502 1060l-272 -493l272 -492l288 492z" />
    <glyph glyph-name="uni027B" unicode="&#x27b;" 
d="M546 1138l334 -571l-334 -567h-89l-313 567l313 571h89zM502 1060l-272 -493l272 -492l288 492z" />
    <glyph glyph-name="uni027C" unicode="&#x27c;" 
d="M546 1138l334 -571l-334 -567h-89l-313 567l313 571h89zM502 1060l-272 -493l272 -492l288 492z" />
    <glyph glyph-name="uni027D" unicode="&#x27d;" 
d="M546 1138l334 -571l-334 -567h-89l-313 567l313 571h89zM502 1060l-272 -493l272 -492l288 492z" />
    <glyph glyph-name="uni027E" unicode="&#x27e;" 
d="M546 1138l334 -571l-334 -567h-89l-313 567l313 571h89zM502 1060l-272 -493l272 -492l288 492z" />
    <glyph glyph-name="uni027F" unicode="&#x27f;" 
d="M546 1138l334 -571l-334 -567h-89l-313 567l313 571h89zM502 1060l-272 -493l272 -492l288 492z" />
    <glyph glyph-name="uni0280" unicode="&#x280;" 
d="M546 1138l334 -571l-334 -567h-89l-313 567l313 571h89zM502 1060l-272 -493l272 -492l288 492z" />
    <glyph glyph-name="uni0281" unicode="&#x281;" 
d="M546 1138l334 -571l-334 -567h-89l-313 567l313 571h89zM502 1060l-272 -493l272 -492l288 492z" />
    <glyph glyph-name="uni0282" unicode="&#x282;" 
d="M546 1138l334 -571l-334 -567h-89l-313 567l313 571h89zM502 1060l-272 -493l272 -492l288 492z" />
    <glyph glyph-name="uni0283" unicode="&#x283;" 
d="M546 1138l334 -571l-334 -567h-89l-313 567l313 571h89zM502 1060l-272 -493l272 -492l288 492z" />
    <glyph glyph-name="uni0284" unicode="&#x284;" 
d="M546 1138l334 -571l-334 -567h-89l-313 567l313 571h89zM502 1060l-272 -493l272 -492l288 492z" />
    <glyph glyph-name="uni0285" unicode="&#x285;" 
d="M546 1138l334 -571l-334 -567h-89l-313 567l313 571h89zM502 1060l-272 -493l272 -492l288 492z" />
    <glyph glyph-name="uni0286" unicode="&#x286;" 
d="M546 1138l334 -571l-334 -567h-89l-313 567l313 571h89zM502 1060l-272 -493l272 -492l288 492z" />
    <glyph glyph-name="uni0287" unicode="&#x287;" 
d="M546 1138l334 -571l-334 -567h-89l-313 567l313 571h89zM502 1060l-272 -493l272 -492l288 492z" />
    <glyph glyph-name="uni0288" unicode="&#x288;" 
d="M546 1138l334 -571l-334 -567h-89l-313 567l313 571h89zM502 1060l-272 -493l272 -492l288 492z" />
    <glyph glyph-name="uni0289" unicode="&#x289;" 
d="M546 1138l334 -571l-334 -567h-89l-313 567l313 571h89zM502 1060l-272 -493l272 -492l288 492z" />
    <glyph glyph-name="uni028A" unicode="&#x28a;" 
d="M546 1138l334 -571l-334 -567h-89l-313 567l313 571h89zM502 1060l-272 -493l272 -492l288 492z" />
    <glyph glyph-name="uni028B" unicode="&#x28b;" 
d="M546 1138l334 -571l-334 -567h-89l-313 567l313 571h89zM502 1060l-272 -493l272 -492l288 492z" />
    <glyph glyph-name="uni028C" unicode="&#x28c;" 
d="M546 1138l334 -571l-334 -567h-89l-313 567l313 571h89zM502 1060l-272 -493l272 -492l288 492z" />
    <glyph glyph-name="uni028D" unicode="&#x28d;" 
d="M546 1138l334 -571l-334 -567h-89l-313 567l313 571h89zM502 1060l-272 -493l272 -492l288 492z" />
    <glyph glyph-name="uni028E" unicode="&#x28e;" 
d="M546 1138l334 -571l-334 -567h-89l-313 567l313 571h89zM502 1060l-272 -493l272 -492l288 492z" />
    <glyph glyph-name="uni028F" unicode="&#x28f;" 
d="M546 1138l334 -571l-334 -567h-89l-313 567l313 571h89zM502 1060l-272 -493l272 -492l288 492z" />
    <glyph glyph-name="uni0290" unicode="&#x290;" 
d="M546 1138l334 -571l-334 -567h-89l-313 567l313 571h89zM502 1060l-272 -493l272 -492l288 492z" />
    <glyph glyph-name="uni0291" unicode="&#x291;" 
d="M546 1138l334 -571l-334 -567h-89l-313 567l313 571h89zM502 1060l-272 -493l272 -492l288 492z" />
    <glyph glyph-name="uni0292" unicode="&#x292;" 
d="M546 1138l334 -571l-334 -567h-89l-313 567l313 571h89zM502 1060l-272 -493l272 -492l288 492z" />
    <glyph glyph-name="uni0293" unicode="&#x293;" 
d="M546 1138l334 -571l-334 -567h-89l-313 567l313 571h89zM502 1060l-272 -493l272 -492l288 492z" />
    <glyph glyph-name="uni0294" unicode="&#x294;" 
d="M546 1138l334 -571l-334 -567h-89l-313 567l313 571h89zM502 1060l-272 -493l272 -492l288 492z" />
    <glyph glyph-name="uni0295" unicode="&#x295;" 
d="M546 1138l334 -571l-334 -567h-89l-313 567l313 571h89zM502 1060l-272 -493l272 -492l288 492z" />
    <glyph glyph-name="uni0296" unicode="&#x296;" 
d="M546 1138l334 -571l-334 -567h-89l-313 567l313 571h89zM502 1060l-272 -493l272 -492l288 492z" />
    <glyph glyph-name="uni0297" unicode="&#x297;" 
d="M546 1138l334 -571l-334 -567h-89l-313 567l313 571h89zM502 1060l-272 -493l272 -492l288 492z" />
    <glyph glyph-name="uni0298" unicode="&#x298;" 
d="M546 1138l334 -571l-334 -567h-89l-313 567l313 571h89zM502 1060l-272 -493l272 -492l288 492z" />
    <glyph glyph-name="uni0299" unicode="&#x299;" 
d="M546 1138l334 -571l-334 -567h-89l-313 567l313 571h89zM502 1060l-272 -493l272 -492l288 492z" />
    <glyph glyph-name="uni029A" unicode="&#x29a;" 
d="M546 1138l334 -571l-334 -567h-89l-313 567l313 571h89zM502 1060l-272 -493l272 -492l288 492z" />
    <glyph glyph-name="uni029B" unicode="&#x29b;" 
d="M546 1138l334 -571l-334 -567h-89l-313 567l313 571h89zM502 1060l-272 -493l272 -492l288 492z" />
    <glyph glyph-name="uni029C" unicode="&#x29c;" 
d="M546 1138l334 -571l-334 -567h-89l-313 567l313 571h89zM502 1060l-272 -493l272 -492l288 492z" />
    <glyph glyph-name="uni029D" unicode="&#x29d;" 
d="M546 1138l334 -571l-334 -567h-89l-313 567l313 571h89zM502 1060l-272 -493l272 -492l288 492z" />
    <glyph glyph-name="uni029E" unicode="&#x29e;" 
d="M546 1138l334 -571l-334 -567h-89l-313 567l313 571h89zM502 1060l-272 -493l272 -492l288 492z" />
    <glyph glyph-name="uni029F" unicode="&#x29f;" 
d="M546 1138l334 -571l-334 -567h-89l-313 567l313 571h89zM502 1060l-272 -493l272 -492l288 492z" />
    <glyph glyph-name="uni02A0" unicode="&#x2a0;" 
d="M546 1138l334 -571l-334 -567h-89l-313 567l313 571h89zM502 1060l-272 -493l272 -492l288 492z" />
    <glyph glyph-name="uni02A1" unicode="&#x2a1;" 
d="M546 1138l334 -571l-334 -567h-89l-313 567l313 571h89zM502 1060l-272 -493l272 -492l288 492z" />
    <glyph glyph-name="uni02A2" unicode="&#x2a2;" 
d="M546 1138l334 -571l-334 -567h-89l-313 567l313 571h89zM502 1060l-272 -493l272 -492l288 492z" />
    <glyph glyph-name="uni02A3" unicode="&#x2a3;" 
d="M546 1138l334 -571l-334 -567h-89l-313 567l313 571h89zM502 1060l-272 -493l272 -492l288 492z" />
    <glyph glyph-name="uni02A4" unicode="&#x2a4;" 
d="M546 1138l334 -571l-334 -567h-89l-313 567l313 571h89zM502 1060l-272 -493l272 -492l288 492z" />
    <glyph glyph-name="uni02A5" unicode="&#x2a5;" 
d="M546 1138l334 -571l-334 -567h-89l-313 567l313 571h89zM502 1060l-272 -493l272 -492l288 492z" />
    <glyph glyph-name="uni02A6" unicode="&#x2a6;" 
d="M546 1138l334 -571l-334 -567h-89l-313 567l313 571h89zM502 1060l-272 -493l272 -492l288 492z" />
    <glyph glyph-name="uni02A7" unicode="&#x2a7;" horiz-adv-x="0" 
d="M19 -24h128v-128h-128v128z" />
    <glyph glyph-name="U02c0" unicode="&#x2c0;" horiz-adv-x="395" 
d="M322 1147q0 -45 -55 -93q-17 -14 -39 -50q-4 -13 -4 -39h-43v13q0 45 25 75q25 21 63 64q7 13 7 27q0 28 -21.5 47t-49.5 19q-62 0 -73 -74l-47 5q13 106 119 106q48 0 81 -25q37 -28 37 -75z" />
    <glyph glyph-name="U02c1" unicode="&#x2c1;" horiz-adv-x="395" 
d="M322 1141l-46 -5q-12 74 -74 74q-28 0 -49 -19t-21 -47q0 -27 37 -60q20 -17 50 -60q8 -20 8 -46q0 -5 -1 -13h-43q-1 42 -14 60q-7 9 -28 29q-56 48 -56 93q0 47 37 75q33 25 81 25q106 0 119 -106z" />
    <glyph glyph-name="overscore" unicode="&#x2c9;" horiz-adv-x="1229" 
d="M1256 1382q0 -42 -53 -42h-1177q-53 0 -53 43q0 42 53 42h1177q53 0 53 -43z" />
    <glyph glyph-name="U02d2" unicode="&#x2d2;" horiz-adv-x="638" 
d="M370 1087q0 -78 -45 -165q-32 -63 -44 -63q-13 0 -13 13l2 6q35 67 47 110q15 49 15 99q0 49 -15 98q-12 43 -47 110q-2 4 -2 6q0 13 13 13q16 0 46 -67q27 -58 34 -87q9 -39 9 -73z" />
    <glyph glyph-name="U02d3" unicode="&#x2d3;" horiz-adv-x="638" 
d="M370 872q0 -13 -13 -13q-12 0 -44 63q-45 87 -45 165q0 34 9 73q7 29 34 87q30 67 46 67q13 0 13 -13l-2 -6q-35 -67 -48 -110q-14 -49 -14 -98q0 -50 14 -99q13 -43 48 -110q2 -4 2 -6z" />
    <glyph glyph-name="U0303" unicode="&#x303;" horiz-adv-x="0" 
d="M435 89q-8 -27 -15 -53q-21 -36 -78 -36q-54 0 -100 41q-52 47 -55 48q-16 5 -29 5q-56 0 -88 -94q-1 -4 -3 -4q-6 0 -13 21t-7 34q0 51 31.5 91.5t73.5 40.5q7 0 14 -2q45 -9 93 -49q44 -36 75 -36q67 0 76 48q6 34 12 34q8 0 13 -38q2 -21 2 -34q0 -11 -2 -17z" />
    <glyph glyph-name="U0304" unicode="&#x304;" horiz-adv-x="0" 
d="M527 37q0 -37 -47 -37h-433q-46 0 -46 37q0 38 49 38h428q49 0 49 -38z" />
    <glyph glyph-name="U0307" unicode="&#x307;" horiz-adv-x="0" 
d="M198 0h-158v158h158v-158z" />
    <glyph glyph-name="U0308" unicode="&#x308;" horiz-adv-x="0" 
d="M472 64h-158v158h158v-158zM240 63h-158v158h158v-158z" />
    <glyph glyph-name="U030a" unicode="&#x30a;" horiz-adv-x="0" 
d="M237 117q0 -48 -35 -82.5t-84 -34.5t-84.5 34.5t-35.5 82.5q0 49 35.5 83.5t84.5 34.5t84 -34.5t35 -83.5zM198 117q0 33 -23.5 55.5t-56.5 22.5t-56.5 -22.5t-23.5 -55.5q0 -32 24 -54.5t56 -22.5q33 0 56.5 22.5t23.5 54.5z" />
    <glyph glyph-name="U0323" unicode="&#x323;" horiz-adv-x="0" 
d="M196 -179h-158v158h158v-158z" />
    <glyph glyph-name="U0324" unicode="&#x324;" horiz-adv-x="0" 
d="M400 -158h-158v158h158v-158zM168 -159h-158v158h158v-158z" />
    <glyph glyph-name="U0325" unicode="&#x325;" horiz-adv-x="0" 
d="M237 -117q0 -49 -35 -83.5t-84 -34.5t-84.5 34.5t-35.5 83.5q0 48 35.5 82.5t84.5 34.5t84 -34.5t35 -82.5zM198 -117q0 32 -23.5 54.5t-56.5 22.5t-56.5 -22.5t-23.5 -54.5t24 -55t56 -23q33 0 56.5 22.5t23.5 55.5z" />
    <glyph glyph-name="U032d" unicode="&#x32d;" horiz-adv-x="0" 
d="M541 -591h-80q-219 234 -459 507l-398 -507h-85l462 591h50z" />
    <glyph glyph-name="U032e" unicode="&#x32e;" horiz-adv-x="0" 
d="M445 -94q0 -97 -77 -159q-67 -54 -149 -54h-6q-69 1 -127 54t-70 131q-5 32 -5 55q0 38 12 55q4 -50 29 -97q58 -111 167 -111h4q81 1 132 42.5t66 108.5q9 43 9 54q0 5 -1 5q1 -1 3 -6q13 -30 13 -78z" />
    <glyph glyph-name="U0330" unicode="&#x330;" horiz-adv-x="0" 
d="M452 -124q-8 -27 -15 -53q-21 -36 -78 -36q-54 0 -100 41q-52 47 -55 48q-16 5 -29 5q-56 0 -88 -94q-1 -4 -3 -4q-6 0 -13 21t-7 34q0 51 31.5 91.5t73.5 40.5q7 0 14 -2q45 -9 93 -49q44 -36 75 -36q67 0 76 48q6 34 12 34q8 0 13 -39q2 -21 2 -34q0 -11 -2 -16z" />
    <glyph glyph-name="U0331" unicode="&#x331;" horiz-adv-x="0" 
d="M527 -38q0 -37 -47 -37h-433q-46 0 -46 37q0 38 49 38h428q49 0 49 -38z" />
    <glyph glyph-name="mu1" unicode="&#x3bc;" horiz-adv-x="1280" 
d="M1130 41q0 -18 -13 -30l-43 -12l-155 1v123q-172 -156 -374 -156q-109 0 -184 67v-364q0 -56 -42 -56t-42 56v1111h-71q-56 0 -56 43q0 42 56 42h155v-627q0 -81 51 -134.5t131 -53.5q205 0 376 188v542h-71q-56 0 -56 43q0 42 56 42h155v-782h71q56 0 56 -43z" />
    <glyph glyph-name="U060c" unicode="&#x60c;" horiz-adv-x="500" 
d="M306 47q0 -43 -31 -69.5t-75 -26.5q-43 0 -74 33t-36 116v12q0 209 165 282q10 4 16 4q8 0 8 -7t-6 -19q-13 -13 -24 -29t-15 -25q-34 -62 -34 -104q0 -25 23 -41q34 -17 60 -51q23 -31 23 -75z" />
    <glyph glyph-name="U061b" unicode="&#x61b;" horiz-adv-x="500" 
d="M308 53q0 -100 -109 -100q-45 0 -74.5 33t-29.5 78q0 41 35 68q32 26 73 26q42 0 73.5 -32t31.5 -73zM301 349q0 -43 -31 -69.5t-75 -26.5q-43 0 -74 33t-36 116v12q0 209 165 282q10 4 16 4q8 0 8 -7t-6 -19q-13 -13 -24 -29t-15 -25q-34 -62 -34 -104q0 -25 23 -41
q34 -17 60 -51q23 -31 23 -75z" />
    <glyph glyph-name="U061f" unicode="&#x61f;" horiz-adv-x="771" 
d="M588 587q0 -44 -27 -76q-29 -37 -76 -37q-37 0 -61.5 23t-24.5 54q0 47 40.5 71.5t40.5 39.5q-14 42 -84 53q-12 1 -23 1q-54 0 -79 -21q-31 -26 -31 -64q0 -35 31 -88q46 -80 57 -106q31 -74 31 -158q0 -47 -8 -104h-44q4 53 4 56q0 40 -54 87q-92 77 -102 88
q-54 62 -54 140q0 95 66.5 157.5t162.5 62.5q111 -5 173 -53t62 -126zM434 26q0 -35 -27 -61t-65 -26q-36 0 -62.5 26.5t-26.5 60.5q0 36 27 61.5t65 25.5q36 0 62.5 -25.5t26.5 -61.5z" />
    <glyph glyph-name="U0621" unicode="&#x621;" horiz-adv-x="337" 
d="M246 114q-6 -24 -8 -30q-6 -18 -19 -21l-219 -63q11 45 80 71q-52 25 -52 62q0 35 52.5 81.5t90.5 46.5q41 0 41 -44q0 -19 -23 -54q-40 26 -64 26q-23 0 -54 -26q64 -60 113 -60q20 0 62 11z" />
    <glyph glyph-name="U0640" unicode="&#x640;" horiz-adv-x="360" 
d="M360 0h-360v158h360v-158z" />
    <glyph glyph-name="U064b" unicode="&#x64b;" horiz-adv-x="0" 
d="M268 321q0 -53 -27 -68l-241 -137q4 52 52 80zM268 205q0 -53 -27 -68l-241 -137q4 52 52 80z" />
    <glyph glyph-name="U064c" unicode="&#x64c;" horiz-adv-x="0" 
d="M317 111q0 -27 -2 -47q-32 17 -73 47q-98 -102 -190 -115q34 72 34 103q0 43 -39 43q-34 0 -39 -60q-8 24 -8 41q0 33 17 58q19 30 50 30q53 0 53 -67q0 -6 -5 -86q52 20 99 72q-53 34 -53 74q0 39 30 78t67 39q21 0 37.5 -21t16.5 -43q0 -24 -26 -90q31 -24 31 -56z
M257 226q0 42 -33 42q-21 0 -21 -19t50 -54q4 9 4 31z" />
    <glyph glyph-name="U064d" unicode="&#x64d;" horiz-adv-x="0" 
d="M276 0q0 -53 -28 -68l-241 -137q4 52 53 80zM276 -117q0 -52 -28 -68l-241 -137q4 52 53 81z" />
    <glyph glyph-name="U064e" unicode="&#x64e;" horiz-adv-x="0" 
d="M268 205q0 -53 -27 -68l-241 -137q4 52 52 80z" />
    <glyph glyph-name="U064f" unicode="&#x64f;" horiz-adv-x="0" 
d="M286 152l-6 -79l-64 41q-95 -114 -156 -114q-16 0 -47 10q81 45 169 123q-49 36 -49 72q0 41 26 84q29 49 67 49q54 0 54 -70q0 -38 -25 -92q11 -9 31 -24zM230 222q0 48 -42 48q-14 0 -14 -16q0 -25 52 -59q4 15 4 27z" />
    <glyph glyph-name="U0650" unicode="&#x650;" horiz-adv-x="0" 
d="M268 -2q0 -52 -27 -68l-241 -137q4 52 52 80z" />
    <glyph glyph-name="U0651" unicode="&#x651;" horiz-adv-x="0" 
d="M288 185q0 -133 -82 -133q-28 0 -51 16q-16 -68 -83 -68q-65 0 -65 86q0 17 18 80l18 3q0 -88 31 -88q51 0 71 129l15 4q18 -77 46 -77q46 0 53 116l18 8q11 -43 11 -76z" />
    <glyph glyph-name="U0652" unicode="&#x652;" horiz-adv-x="0" 
d="M218 130q0 -50 -35.5 -90t-84.5 -40q-85 0 -85 96q0 59 24 101q30 51 85 51q41 0 68.5 -37.5t27.5 -80.5zM174 111q0 22 -32.5 45t-55.5 23q-47 0 -47 -54q0 -46 73 -46q62 0 62 32z" />
    <glyph glyph-name="U0653" unicode="&#x653;" horiz-adv-x="0" 
d="M504 93q-85 -93 -209 -93q-34 0 -98 18t-97 18q-30 0 -70 -21l-13 11q53 92 105 92q42 0 123.5 -22t123.5 -22t123 31z" />
    <glyph glyph-name="U0654" unicode="&#x654;" horiz-adv-x="0" 
d="M246 114q-6 -24 -8 -30q-6 -18 -19 -21l-219 -63q11 45 80 71q-52 25 -52 62q0 35 52.5 81.5t90.5 46.5q41 0 41 -44q0 -19 -23 -54q-40 26 -64 26q-23 0 -54 -26q64 -60 113 -60q20 0 62 11z" />
    <glyph glyph-name="U0655" unicode="&#x655;" horiz-adv-x="0" 
d="M254 -147q-6 -25 -8 -30q-7 -18 -19 -22l-219 -62q11 45 80 70q-52 26 -52 62t52.5 82.5t90.5 46.5q41 0 41 -44q0 -20 -23 -54q-41 26 -64 26t-54 -26q64 -60 113 -60q20 0 62 11z" />
    <glyph glyph-name="U0656" unicode="&#x656;" horiz-adv-x="0" 
d="M391 157q0 -81 -87 -101q-17 -4 -173 -10q-105 -4 -131 -46q-3 13 -3 26q0 3 2 13q17 25 58 45.5t71 20.5q70 138 190 138q73 0 73 -86zM337 149q0 41 -39 41q-84 0 -133 -85h37q135 0 135 44z" />
    <glyph glyph-name="U0660" unicode="&#x660;" horiz-adv-x="751" 
d="M469 442q-13 -50 -36 -167q-83 47 -147 97q20 94 49 178q59 -54 134 -108z" />
    <glyph glyph-name="U0661" unicode="&#x661;" horiz-adv-x="826" 
d="M515 198q0 -74 -18 -212h-19q-4 384 -222 717q19 85 48 170q211 -327 211 -675z" />
    <glyph glyph-name="U0662" unicode="&#x662;" horiz-adv-x="826" 
d="M616 859q0 -126 -23 -185q-37 -96 -142 -96q-23 0 -59 6q89 -209 89 -401q0 -45 -10 -192h-25q-16 225 -78.5 394.5t-195.5 353.5l48 130q119 -152 224 -152q128 0 155 142h17z" />
    <glyph glyph-name="U0663" unicode="&#x663;" horiz-adv-x="826" 
d="M741 873q0 -255 -163 -255q-65 0 -107 58q-60 -82 -132 -82q-11 0 -23 2q60 -162 60 -338q0 -90 -21 -258h-24q2 32 2 67q0 344 -222 641l45 156q98 -140 182 -140q118 0 170 150h11q15 -117 102 -117q88 0 103 117z" />
    <glyph glyph-name="U0664" unicode="&#x664;" horiz-adv-x="826" 
d="M637 128l-41 -133q-333 59 -333 133q0 79 59 162q18 24 117 134q-103 43 -119 51q-81 43 -81 84q0 77 103 183q80 82 172 139l-36 -135q-129 -53 -129 -91q0 -19 103.5 -71.5t103.5 -73.5q0 -18 -103.5 -133t-103.5 -138q0 -42 288 -111z" />
    <glyph glyph-name="U0665" unicode="&#x665;" horiz-adv-x="826" 
d="M659 467q0 -54 -34 -127q-43 -93 -96.5 -128.5t-154.5 -35.5q-77 0 -133 36q-65 41 -65 114q0 89 69 222q78 148 158 148q86 0 169 -71q87 -73 87 -158zM601 374q0 63 -97 135q-92 69 -157 69q-45 0 -80 -63q-31 -55 -31 -104q0 -102 218 -102q147 0 147 65z" />
    <glyph glyph-name="U0666" unicode="&#x666;" horiz-adv-x="826" 
d="M664 186l-15 -170q-120 28 -134 204q-4 61 -16 422q-100 -26 -171 -26q-97 0 -128 27q-34 30 -34 125q0 41 4 84h18q46 -86 191 -86q71 0 183 33q-27 -118 -27 -205q0 -316 129 -408z" />
    <glyph glyph-name="U0667" unicode="&#x667;" horiz-adv-x="826" 
d="M722 666q-111 -66 -190 -297q-57 -166 -81 -359h-29q-24 180 -95 354q-91 222 -211 280l12 204q117 -49 208 -298q45 -124 103 -374q119 597 283 678v-188z" />
    <glyph glyph-name="U0668" unicode="&#x668;" horiz-adv-x="826" 
d="M722 211l-12 -205q-116 50 -207 299q-46 124 -103 374q-119 -597 -284 -678v188q112 66 191 296q57 167 81 359h29q23 -180 94 -353q91 -223 211 -280z" />
    <glyph glyph-name="U0669" unicode="&#x669;" horiz-adv-x="826" 
d="M660 164l-23 -195q-76 39 -107 232q-6 39 -25 277q-82 -75 -169 -75q-67 0 -106 41t-39 109q0 94 60 195q68 114 155 114q74 0 104 -61q19 -38 26 -127l22 -256q19 -222 102 -254zM487 589q-19 125 -124 125q-44 0 -81 -19q-46 -23 -46 -63q0 -41 43 -65q37 -21 81 -21
q59 0 127 43z" />
    <glyph glyph-name="U0670" unicode="&#x670;" horiz-adv-x="0" 
d="M99 97q0 -36 -38 -99l-14 2q9 30 9 44q0 44 -26 129.5t-26 129.5q0 32 47 85q1 -49 24.5 -145t23.5 -146z" />
    <glyph glyph-name="U0700" unicode="&#x700;" horiz-adv-x="982" 
d="M840 271l-137 -137h-9l-135 133l137 134q20 -16 144 -130zM575 509l-127 -129l-142 127q43 44 132 132h8q89 -78 129 -130zM331 267l-11 -23l-131 -119l-127 124l137 141zM575 21l-133 -140h-9l-131 135l140 132z" />
    <glyph glyph-name="U0701" unicode="&#x701;" horiz-adv-x="500" 
d="M311 731q0 -40 -25 -70t-65 -30q-36 0 -67.5 27t-31.5 62q0 43 27 70.5t68 27.5q38 0 66 -24.5t28 -62.5z" />
    <glyph glyph-name="U0702" unicode="&#x702;" horiz-adv-x="500" 
d="M311 -86q0 -41 -25 -71t-65 -30q-36 0 -67.5 27t-31.5 63q0 42 27 69.5t68 27.5q38 0 66 -24.5t28 -61.5z" />
    <glyph glyph-name="U0703" unicode="&#x703;" horiz-adv-x="500" 
d="M309 1019q0 -41 -24.5 -70.5t-65.5 -29.5q-37 0 -67 26t-30 63q0 96 95 96q36 0 64 -24.5t28 -60.5zM309 710q0 -41 -24.5 -70.5t-65.5 -29.5q-37 0 -67 26t-30 63q0 96 95 96q36 0 64 -24.5t28 -60.5z" />
    <glyph glyph-name="U0704" unicode="&#x704;" horiz-adv-x="500" 
d="M309 -85q0 -41 -24.5 -70.5t-65.5 -29.5q-37 0 -67 26t-30 63q0 96 95 96q36 0 64 -24.5t28 -60.5zM309 -394q0 -42 -24.5 -71t-65.5 -29q-37 0 -67 25.5t-30 63.5q0 96 95 96q36 0 64 -24.5t28 -60.5z" />
    <glyph glyph-name="U0705" unicode="&#x705;" horiz-adv-x="714" 
d="M586 731q0 -40 -25 -70t-64 -30q-37 0 -68.5 27t-31.5 62q0 43 27 70.5t69 27.5q37 0 65 -24.5t28 -62.5zM311 731q0 -40 -25 -70t-65 -30q-36 0 -67.5 27t-31.5 62q0 43 27 70.5t68 27.5q38 0 66 -24.5t28 -62.5z" />
    <glyph glyph-name="U0706" unicode="&#x706;" horiz-adv-x="552" 
d="M253 388q0 -41 -23 -69q-26 -31 -66 -31q-38 0 -68 26t-30 63q0 96 96 96q36 0 63.5 -24.5t27.5 -60.5zM409 101q0 -41 -25 -71t-64 -30q-37 0 -68.5 27t-31.5 63q0 42 27 69.5t69 27.5q37 0 65 -24.5t28 -61.5z" />
    <glyph glyph-name="U0707" unicode="&#x707;" horiz-adv-x="532" 
d="M350 267h-158v158h158v-158zM198 0h-158v158h158v-158z" />
    <glyph glyph-name="U0708" unicode="&#x708;" horiz-adv-x="535" 
d="M253 1019q0 -41 -23 -70q-26 -30 -66 -30q-38 0 -68 26t-30 63q0 96 96 96q36 0 63.5 -24.5t27.5 -60.5zM409 731q0 -40 -25 -70t-64 -30q-37 0 -68.5 27t-31.5 62q0 43 27 70.5t69 27.5q37 0 65 -24.5t28 -62.5z" />
    <glyph glyph-name="U0709" unicode="&#x709;" horiz-adv-x="532" 
d="M399 -272h-158v158h158v-158zM198 0h-158v158h158v-158z" />
    <glyph glyph-name="U070a" unicode="&#x70a;" horiz-adv-x="910" 
d="M802 733h-692v119h146l40 44v128h61v-124l45 -48h111l47 52v123h61v-135l39 -40h142v-119zM550 388h-154v175h154v-175zM550 0h-154v174h154v-174z" />
    <glyph glyph-name="U070b" unicode="&#x70b;" horiz-adv-x="1046" 
d="M933 2l-829 -2v93l829 2v-93z" />
    <glyph glyph-name="U070c" unicode="&#x70c;" horiz-adv-x="1000" 
d="M862 587h-277v-587h-175v587h-279v162h279v267h175v-267h277v-162z" />
    <glyph glyph-name="U070d" unicode="&#x70d;" horiz-adv-x="1608" 
d="M639 997q0 -42 -29.5 -71.5t-71.5 -29.5q-41 0 -71 29.5t-30 71.5q0 41 30 71t71 30q42 0 71.5 -30t29.5 -71zM776 785q0 -42 -29.5 -71.5t-71.5 -29.5t-71.5 29.5t-29.5 71.5t29.5 71.5t71.5 29.5t71.5 -29.5t29.5 -71.5zM513 785q0 -42 -30 -71.5t-71 -29.5
q-42 0 -71.5 29.5t-29.5 71.5t29.5 71.5t71.5 29.5q41 0 71 -29.5t30 -71.5zM1488 132q0 -49 -35.5 -90.5t-84.5 -41.5h-724v200h157v232q-236 -62 -244 -497q-1 -53 -19 -53q-21 0 -22 58q-1 414 -196 414q-89 0 -89 -91q0 -63 114 -63h72v-200h-42q-330 0 -330 254
q0 184 183 253q88 33 336 55q117 10 224 49q59 20 199 86v-497h251v311q0 40 12 40q15 0 22 -24q24 -71 50 -105q53 -68 106 -135q60 -87 60 -155zM639 -258q0 -42 -29.5 -71.5t-71.5 -29.5q-41 0 -71 29.5t-30 71.5t30 71.5t71 29.5q42 0 71.5 -29.5t29.5 -71.5z" />
    <glyph glyph-name="U070f" unicode="&#x70f;" horiz-adv-x="33" 
d="M179 1088q0 -36 -35 -36q-21 0 -31 18h-68q-5 -7 -12 -12v-1152h-33v1149q-11 5 -16 15h-69q-10 -18 -31 -18q-35 0 -35 36q0 35 35 35q25 0 34 -24h63q8 24 33 24t33 -24h64q8 24 33 24q35 0 35 -35z" />
    <glyph glyph-name="U0710" unicode="&#x710;" horiz-adv-x="634" 
d="M634 0h-514v162q79 34 171 173.5t92 226.5q0 96 -72 104q2 0 -40 -1h-6q-82 0 -82 79q0 49 40 93.5t86 44.5q65 0 104 -74q33 -62 33 -137q0 -72 -78 -513h266v-158z" />
    <glyph glyph-name="U0711" unicode="&#x711;" horiz-adv-x="0" 
d="M0 90q44 20 95 96.5t51 125.5q0 36 -15 48q-12 9 -47 9q-49 0 -49 44q0 27 22 52t48 25q37 0 58 -43q18 -34 18 -74q0 -41 -43 -285h147v-88h-285v90z" />
    <glyph glyph-name="U0712" unicode="&#x712;" horiz-adv-x="1045" 
d="M998 0h-749q-90 0 -130 25q-70 43 -70 174q0 85 27 85q2 0 17 -33q18 -39 46 -60q42 -33 110 -33h591v284h-278q-80 0 -115 19q-54 31 -54 122q0 87 22 87q3 0 11 -18q9 -22 33 -34q35 -18 103 -18h320q57 0 81 35q22 32 22 35q13 0 13 -70v-600z" />
    <glyph glyph-name="U0713" unicode="&#x713;" horiz-adv-x="1212" 
d="M1309 -470h-142v104l-291 366h-663q-90 0 -130 25q-70 43 -70 174q0 85 27 85q2 0 17 -33q18 -39 46 -60q42 -33 110 -33h535l-279 504q-56 102 -56 118q0 14 104 174q33 49 38 49q3 0 5 -36q3 -49 23 -88l590 -1208h136v-141z" />
    <glyph glyph-name="U0714" unicode="&#x714;" horiz-adv-x="206" 
d="M210 0h-5q-31 0 -68 22q-70 43 -71 147q0 85 27 85q2 0 17 -33q18 -39 54 -58q30 -5 42 -5h4v-158z" />
    <glyph glyph-name="U0715" unicode="&#x715;" horiz-adv-x="716" 
d="M664 162q0 -86 -35 -162h-489v158h368q4 15 4 34q0 30 -10 68q-14 54 -53 101q-64 79 -163 79q-52 0 -83 -22q-21 -15 -35 -42q-12 -22 -16 -22q-14 0 -14 49v170q56 35 142 35q178 0 284 -132q100 -125 100 -314zM379 -298h-158v159h158v-159z" />
    <glyph glyph-name="U0716" unicode="&#x716;" horiz-adv-x="706" 
d="M664 162q0 -86 -35 -162h-489v158h368q4 15 4 34q0 30 -10 68q-14 54 -53 101q-64 79 -163 79q-52 0 -83 -22q-21 -15 -35 -42q-12 -22 -16 -22q-14 0 -14 49v170q56 35 142 35q178 0 284 -132q100 -125 100 -314z" />
    <glyph glyph-name="U0717" unicode="&#x717;" horiz-adv-x="913" 
d="M880 -117q0 -31 -12 -31q-13 0 -16 30l-46 560h-127q0 -218 -35 -305q-58 -145 -238 -145q-130 0 -211 82q-84 84 -84 224q0 100 56 193q64 109 160 109h436q41 0 68 23t31 23q10 0 10 -30zM577 360q0 34 -9 82h-236q-38 0 -65 -41q-22 -36 -22 -72q0 -65 46 -120
q49 -59 115 -59q171 0 171 210z" />
    <glyph glyph-name="U0718" unicode="&#x718;" horiz-adv-x="761" 
d="M728 242q0 -133 -23 -172q-46 -78 -278 -78q-177 0 -221 37q-90 77 -90 239q0 140 73 239q80 109 209 109q156 0 247 -113q83 -103 83 -261zM570 287q0 74 -41 121q-45 50 -123 50q-61 0 -98 -51q-34 -47 -34 -114q0 -143 156 -143q140 0 140 137z" />
    <glyph glyph-name="U0719" unicode="&#x719;" horiz-adv-x="507" 
d="M456 274q0 -169 -91 -309q-118 -182 -147 -182q-24 0 -24 25q0 13 33 47q14 13 51 78q43 74 48 105q-64 63 -128 125q-76 92 -76 200q0 75 45.5 128t117.5 53q93 0 138 -96q33 -72 33 -174z" />
    <glyph glyph-name="U071a" unicode="&#x71a;" horiz-adv-x="1212" 
d="M1187 -12q-165 60 -283 187l-38 -187q-213 50 -304 170l-28 -158h-321q-90 0 -130 25q-70 43 -70 174q0 85 27 85q2 0 17 -33q18 -39 46 -60q42 -33 110 -33h280l43 226q113 -115 129 -128q79 -65 171 -81l41 191q81 -75 229 -175q26 -16 53.5 -33t27.5 -32v-138z" />
    <glyph glyph-name="U071b" unicode="&#x71b;" horiz-adv-x="1484" 
d="M1463 -18l-293 -486q-13 -21 -20 -21t-23 26l-297 499h-617q-90 0 -130 25q-70 43 -70 174q0 85 27 85q2 0 17 -33q18 -39 46 -60q42 -33 110 -33h539l-316 584q-17 32 -17 45q0 29 110 157q67 77 75 77q7 0 7 -8q0 3 -16 -42t-16 -79q0 -37 15 -68l337 -666h532v-176z
M1400 0h-385l175 -346z" />
    <glyph glyph-name="U071c" unicode="&#x71c;" horiz-adv-x="1211" 
d="M1164 -117q0 -31 -12 -31q-14 0 -16 30l-46 560h-128q0 -218 -34 -305q-58 -145 -238 -145q-114 0 -192.5 65t-97.5 177l-269 -287q-35 -37 -43 -37q-20 0 -20 19q0 9 25 36l213 232l-209 188q-37 33 -37 46q0 12 47.5 69t66.5 57q12 0 41 -26l187 -169q18 93 69 160
q60 78 139 78h437q41 0 68 23t31 23q10 0 10 -30zM861 360q0 34 -9 82h-237q-37 0 -64 -41q-22 -36 -22 -72q0 -65 46 -120q49 -59 115 -59q171 0 171 210z" />
    <glyph glyph-name="U071d" unicode="&#x71d;" horiz-adv-x="758" 
d="M743 -12q-190 69 -283 170l-8 -158h-239q-90 0 -130 25q-70 43 -70 174q0 85 27 85q2 0 17 -33q18 -39 46 -60q42 -33 110 -33h186l17 221q82 -77 247 -188q26 -16 53 -33t27 -32v-138z" />
    <glyph glyph-name="U071e" unicode="&#x71e;" horiz-adv-x="1203" 
d="M1155 251q2 -136 2 -199q0 -42 -1 -52h-85l-1 151q-1 126 -20 186q-33 101 -124 101q-52 0 -80 -48q-21 -38 -21 -86v-146h138v-158h-612q-37 -43 -73 -87q-66 -75 -79 -75q-16 0 -16 17q0 2 42 49q216 241 319 436l-363 189q-59 31 -59 73q0 32 11 77q14 57 16 77
q5 38 21 38q9 0 28 -60q22 -68 62 -89l340 -180q28 80 28 145q0 14 -5 37q-67 -18 -114 -18t-76 35q-28 32 -28 80q0 54 50 105t104 51q58 0 94 -74q29 -60 29 -125q0 -128 -44 -256l110 -59q15 88 64 150q56 72 135 72q203 0 208 -357zM743 207q0 29 -54 57l-105 55
q-43 -83 -103 -161h262v49z" />
    <glyph glyph-name="U071f" unicode="&#x71f;" horiz-adv-x="884" 
d="M858 0q0 -106 -77 -355q-75 -244 -141 -361q-18 -31 -55 -33q52 104 111 274q77 223 77 334q0 127 -42 185q-49 70 -170 70q-140 0 -236 -174l-233 436l179 254h225q64 0 100 25q24 17 37 47q11 25 14 25q16 0 16 -80v-175h-452l194 -355q45 79 82 112q61 55 152 55
q219 0 219 -284z" />
    <glyph glyph-name="U0720" unicode="&#x720;" horiz-adv-x="1066" 
d="M1042 103q0 -103 -153 -103h-647q-91 0 -131 25q-70 43 -70 174q0 85 27 85q3 0 18 -33q17 -39 45 -60q42 -33 111 -33h641l-476 693q-32 48 -32 85q0 36 30 69q31 29 61 57q78 73 89 73q8 0 8 -10q0 -11 -16 -43.5t-16 -44.5q0 -21 17 -49l452 -744q42 -71 42 -141z" />
    <glyph glyph-name="U0721" unicode="&#x721;" horiz-adv-x="947" 
d="M916 0h-722q-13 -17 -108 -142q-19 -25 -32 -25q-7 3 -7 8q0 6 9 22l323 579h-224q-71 0 -95 19q-34 29 -34 122q0 104 22 104q3 0 11 -23q9 -27 33 -42q35 -22 103 -22h531q69 0 104 22q23 15 33 42q8 23 10 23q17 0 17 -63q0 -29 -7 -83.5t-7 -84.5q0 -129 20 -225.5
t20 -124.5v-106zM754 158v284h-296l-174 -284h470z" />
    <glyph glyph-name="U0722" unicode="&#x722;" horiz-adv-x="807" 
d="M941 -515q0 -10 -11 -10q-5 0 -13 8l-560 589l-88 -72l-126 175l105 75q20 14 33 14t21 -9l626 -749q13 -16 13 -21z" />
    <glyph glyph-name="U0723" unicode="&#x723;" horiz-adv-x="1123" 
d="M1091 289q0 -137 -91 -217t-233 -80q-150 0 -302 111l-11 -103h-212q-91 0 -131 25q-70 43 -70 174q0 85 27 85q3 0 18 -33q17 -39 45 -60q42 -33 111 -33h144l2 11q-112 123 -112 266q0 102 72 173t171 71q131 0 243 -160q53 44 132 44q105 0 159 -110q38 -78 38 -164z
M933 293q0 112 -111 112q-53 0 -78 -33q-13 -17 -40 -96.5t-32 -114.5q41 -11 107 -11q154 0 154 143zM666 386q0 55 -39.5 95t-96.5 40q-96 0 -96 -95q0 -65 51 -133.5t130 -107.5q51 148 51 201z" />
    <glyph glyph-name="U0724" unicode="&#x724;" horiz-adv-x="1123" 
d="M242 0q-91 0 -131 25q-70 43 -70 174q0 85 27 85q3 0 18 -33q17 -39 45 -60q42 -33 111 -33h144l2 11q-112 123 -112 266q0 102 72 173t171 71q131 0 243 -160q53 44 132 44q105 0 159 -110q38 -78 38 -164q0 -137 -91 -217t-233 -80q-27 0 -76.5 4t-80.5 4h-368z
M933 293q0 112 -111 112q-53 0 -78 -33q-13 -17 -40 -96.5t-32 -114.5q41 -11 107 -11q154 0 154 143zM666 386q0 55 -39.5 95t-96.5 40q-96 0 -96 -95q0 -65 51 -133.5t130 -107.5q51 148 51 201z" />
    <glyph glyph-name="U0725" unicode="&#x725;" horiz-adv-x="1338" 
d="M1292 243q0 -251 -215 -251q-74 0 -125 31q-31 19 -100 88l-43 -111h-567q-91 0 -131 25q-70 43 -70 174q0 85 27 85q3 0 18 -33q17 -39 45 -60q42 -33 111 -33h546q-106 116 -315 386q-57 70 -57 118q0 15 105 174q32 50 38 50q5 0 5 -33q2 -99 55 -193q32 -58 150 -213
q225 -297 335 -297q65 0 102 48q24 30 40 90q14 48 21 48q25 0 25 -93z" />
    <glyph glyph-name="U0726" unicode="&#x726;" horiz-adv-x="1130" 
d="M1084 0h-871q-90 0 -130 25q-70 43 -70 174q0 85 27 85q2 0 17 -33q18 -39 46 -60q42 -33 110 -33h668q23 0 23 63l-32 146h-112q-153 0 -219 38q-93 51 -93 195q0 150 172 201l162 49q48 14 92 46q39 28 45 28q7 0 7 -46q0 -69 13 -143q27 -147 90 -372q55 -199 55 -205
v-158zM848 468l-52 240q-104 -17 -125 -26q-65 -28 -65 -99q0 -72 38 -97q28 -18 98 -18h106z" />
    <glyph glyph-name="U0727" unicode="&#x727;" horiz-adv-x="924" 
d="M907 -10q-66 0 -152 80l-204 -292l-280 341q-28 -48 -91 -132q-79 -103 -103 -103q-11 0 -11 15q0 16 28 50q45 53 76 102q243 391 243 557q0 57 -45 71q-42 8 -83 16q-45 17 -45 80q0 39 36 89q39 54 77 54q57 0 85 -100q20 -71 20 -152q0 -96 -36 -207
q-15 -48 -77 -198l266 -345l125 181l-177 232q-31 43 -31 57q0 20 35 105q53 130 64 130q16 0 16 -17q0 -3 -6.5 -44.5t-6.5 -62.5q0 -37 33 -80l163 -215q21 -27 57 -59q24 -21 24 -34v-119z" />
    <glyph glyph-name="U0728" unicode="&#x728;" horiz-adv-x="731" 
d="M701 0q-45 0 -70 16q-16 9 -54 50q-49 -74 -186 -74q-58 0 -126 12q50 -121 205 -252q105 -89 217 -152v-123q-263 -2 -275 -2q-294 0 -359 6q-21 1 -21 14q0 12 22 12l490 9q-215 162 -316 284q-160 194 -160 399q0 106 25 106q4 0 11 -18q22 -61 87 -100
q62 -37 130 -37q191 0 211 152q46 -63 73 -90q53 -54 96 -54v-158z" />
    <glyph glyph-name="U0729" unicode="&#x729;" horiz-adv-x="1061" 
d="M995 382q0 -382 -91 -382h-352q-93 0 -151 97q-34 -97 -89 -97h-74q-91 0 -131 25q-70 43 -70 174q0 85 27 85q3 0 17 -33q18 -39 46 -60q42 -33 111 -33h157q-23 59 -23 224q0 98 22 196q19 91 34 91q12 0 24 -34.5t78 -34.5h307q66 0 78 34.5t24 34.5q15 0 34 -91
q22 -98 22 -196zM837 158v284h-307v-284h307z" />
    <glyph glyph-name="U072a" unicode="&#x72a;" horiz-adv-x="752" 
d="M399 767h-158v158h158v-158zM664 162q0 -86 -35 -162h-489v158h368q4 15 4 34q0 30 -10 68q-14 54 -53 101q-64 79 -163 79q-52 0 -83 -22q-21 -15 -35 -42q-12 -22 -16 -22q-14 0 -14 49v170q56 35 142 35q178 0 284 -132q100 -125 100 -314z" />
    <glyph glyph-name="U072b" unicode="&#x72b;" horiz-adv-x="974" 
d="M974 0h-134q-87 0 -174 111q-33 -111 -60 -111h-393q-90 0 -130 25q-70 43 -70 174q0 85 27 85q2 0 17 -33q18 -39 46 -60q42 -33 110 -33h386v284h-73q-80 0 -115 19q-54 31 -54 122q0 87 22 87q3 0 11 -18q9 -22 33 -34q35 -18 103 -18h231q69 0 104 18q23 12 33 34
q8 18 10 18q23 0 23 -87q0 -91 -55 -122q-34 -19 -115 -19h-69q-6 -34 -6 -78q0 -206 202 -206h90v-158z" />
    <glyph glyph-name="U072c" unicode="&#x72c;" horiz-adv-x="912" 
d="M872 0q-67 45 -623 648l-105 -377l61 2q118 0 242 -91q100 -73 165 -171q13 -20 13 -23q0 -11 -13 -11q0 3 -60 66q-64 66 -117 66q-57 0 -146.5 -62t-123.5 -62q-108 0 -108 115q0 34 33 153l158 563q10 37 30 37q14 0 41 -30l510 -551q43 -47 43 -138v-134z" />
    <glyph glyph-name="U0730" unicode="&#x730;" horiz-adv-x="0" 
d="M372 241l-344 -241l-29 37l50 34l37 217l216 -39l41 29zM258 218l-137 25l-27 -139z" />
    <glyph glyph-name="U0731" unicode="&#x731;" horiz-adv-x="0" 
d="M377 -37l-49 -34l-38 -216l-216 38l-41 -29l-28 37l343 241zM283 -104l-163 -114l136 -25z" />
    <glyph glyph-name="U0732" unicode="&#x732;" horiz-adv-x="0" 
d="M479 1000q0 -33 -14 -66q-17 -42 -45 -42q-24 0 -41 41q-13 32 -13 61q0 34 14 68q18 44 47 44q22 0 39 -43q13 -36 13 -63zM491 -242q0 -33 -14 -66q-17 -42 -45 -42q-24 0 -41 41q-13 32 -13 61q0 34 14 68q18 44 47 44q22 0 39 -43q13 -36 13 -63z" />
    <glyph glyph-name="U0733" unicode="&#x733;" horiz-adv-x="0" 
d="M211 263q0 -83 -75 -151l-136 -112l15 57q27 17 57 47q-40 69 -40 130q0 47 30 84t76 37q33 0 53 -28.5t20 -63.5zM171 268q0 44 -35 44q-59 0 -59 -68q0 -50 32 -104q62 70 62 128z" />
    <glyph glyph-name="U0734" unicode="&#x734;" horiz-adv-x="0" 
d="M214 0l-15 -57q-27 -17 -57 -47q40 -69 40 -130q0 -47 -30 -84t-76 -37q-33 0 -54 30q-19 27 -19 62q0 83 75 151zM137 -244q0 50 -32 104q-62 -70 -62 -128q0 -44 35 -44q59 0 59 68z" />
    <glyph glyph-name="U0735" unicode="&#x735;" horiz-adv-x="0" 
d="M232 260q-40 -68 -88 -68q-10 0 -18 4q-16 9 -16 38q0 41 21 77q41 71 91 71q10 0 18 -4q13 -8 13 -35q0 -45 -21 -83zM403 157q-39 -69 -87 -69q-10 0 -18 5q-16 9 -16 38q0 41 21 77q41 71 91 71q10 0 18 -5q13 -7 13 -34q0 -46 -22 -83z" />
    <glyph glyph-name="U0736" unicode="&#x736;" horiz-adv-x="0" 
d="M331 141q0 -37 -11 -84l-48 -48q15 58 15 99q0 65 -37 103l-121 -211l-43 25l123 214q-26 10 -57 10q-72 0 -147 -50q93 97 175 97q69 0 110 -43t41 -112z" />
    <glyph glyph-name="U0737" unicode="&#x737;" horiz-adv-x="0" 
d="M326 -199q-94 -98 -175 -98q-69 0 -110 43t-41 113q0 36 11 84l47 47q-14 -58 -14 -98q0 -66 37 -103l121 210l43 -25l-123 -214q26 -10 57 -10q70 0 147 51z" />
    <glyph glyph-name="U0738" unicode="&#x738;" horiz-adv-x="0" 
d="M446 -243q0 -33 -14 -66q-17 -42 -45 -42q-24 0 -40 40q-14 33 -14 61q0 34 14 69q18 44 47 44q22 0 39 -44q13 -35 13 -62zM630 -238q0 -33 -14 -66q-18 -42 -46 -42q-24 0 -40 41q-13 32 -13 61q0 34 14 68q18 44 47 44q22 0 38 -43q14 -36 14 -63z" />
    <glyph glyph-name="U0739" unicode="&#x739;" horiz-adv-x="0" 
d="M620 -278q-6 -33 -25 -63q-21 -34 -45 -34q-4 0 -7 1q-24 4 -33 47q-4 20 -4 38q0 12 2 24q6 33 26 65q22 36 48 36q3 0 6 -1q21 -4 30 -50q4 -22 4 -39q0 -13 -2 -24zM427 -357q-5 -33 -25 -63q-21 -34 -45 -34q-4 0 -7 1q-24 4 -32 47q-5 21 -5 40q0 11 2 22
q6 33 26 65q22 36 48 36q3 0 6 -1q22 -3 30 -49q4 -22 4 -40q0 -13 -2 -24z" />
    <glyph glyph-name="U073a" unicode="&#x73a;" horiz-adv-x="0" 
d="M314 0h-314v48h127v65h-127v49h314v-49h-127v-65h127v-48z" />
    <glyph glyph-name="U073b" unicode="&#x73b;" horiz-adv-x="0" 
d="M314 -162h-314v48h127v64h-127v50h314v-50h-127v-64h127v-48z" />
    <glyph glyph-name="U073c" unicode="&#x73c;" horiz-adv-x="0" 
d="M136 -130q0 -33 -14 -66q-17 -42 -45 -42q-24 0 -41 41q-13 32 -13 61q0 34 14 68q18 44 47 44q22 0 39 -43q13 -36 13 -63z" />
    <glyph glyph-name="U073d" unicode="&#x73d;" horiz-adv-x="0" 
d="M336 69l-43 -29l-121 176l-146 -103l-28 40l304 213l28 -40l-118 -81zM224 75q0 -31 -22 -53t-52 -22t-52.5 22t-22.5 53q0 30 22.5 52t52.5 22q29 0 51.5 -22.5t22.5 -51.5zM187 75q0 37 -37 37q-38 0 -38 -37t38 -37q37 0 37 37z" />
    <glyph glyph-name="U073e" unicode="&#x73e;" horiz-adv-x="0" 
d="M261 -75q0 -30 -22 -52.5t-52 -22.5q-31 0 -53 22.5t-22 52.5t22 52.5t53 22.5q30 0 52 -22.5t22 -52.5zM338 -154l-303 -212l-29 40l118 82l-124 175l43 29l122 -175l145 102zM224 -75q0 37 -37 37t-37 -37q0 -38 37 -38t37 38z" />
    <glyph glyph-name="U073f" unicode="&#x73f;" horiz-adv-x="0" 
d="M135 109q0 -33 -14 -66q-17 -42 -45 -42q-24 0 -41 41q-13 32 -13 61q0 34 14 68q18 44 47 44q22 0 39 -43q13 -36 13 -63z" />
    <glyph glyph-name="U0740" unicode="&#x740;" horiz-adv-x="0" 
d="M400 -167h-158v158h158v-158zM168 -168h-158v158h158v-158z" />
    <glyph glyph-name="U0741" unicode="&#x741;" horiz-adv-x="0" 
d="M192 0h-158v158h158v-158z" />
    <glyph glyph-name="U0742" unicode="&#x742;" horiz-adv-x="0" 
d="M137 -131q0 -33 -13 -66q-18 -42 -46 -42q-24 0 -40 40q-13 33 -13 62q0 33 14 68q18 44 47 44q22 0 38 -44q13 -35 13 -62z" />
    <glyph glyph-name="U0743" unicode="&#x743;" horiz-adv-x="0" 
d="M110 214q0 -55 -54 -55t-54 55q0 54 54 54t54 -54zM110 55q0 -55 -54 -55t-54 55q0 54 54 54t54 -54z" />
    <glyph glyph-name="U0744" unicode="&#x744;" horiz-adv-x="0" 
d="M117 -55q0 -54 -55 -54q-54 0 -54 54q0 55 54 55q55 0 55 -55zM117 -214q0 -54 -55 -54q-54 0 -54 54q0 55 54 55q55 0 55 -55z" />
    <glyph glyph-name="U0745" unicode="&#x745;" horiz-adv-x="0" 
d="M225 214q0 -55 -55 -55q-54 0 -54 55q0 54 54 54q55 0 55 -54zM336 55q0 -55 -55 -55q-54 0 -54 55q0 54 54 54q55 0 55 -54zM114 55q0 -55 -55 -55q-54 0 -54 55q0 54 54 54q55 0 55 -54z" />
    <glyph glyph-name="U0746" unicode="&#x746;" horiz-adv-x="0" 
d="M336 -55q0 -54 -55 -54q-54 0 -54 54q0 55 54 55q55 0 55 -55zM114 -55q0 -54 -55 -54q-54 0 -54 54q0 55 54 55q55 0 55 -55zM225 -214q0 -54 -55 -54q-54 0 -54 54q0 55 54 55q55 0 55 -55z" />
    <glyph glyph-name="U0747" unicode="&#x747;" horiz-adv-x="0" 
d="M312 187l-317 -149l-18 38l317 150z" />
    <glyph glyph-name="U0748" unicode="&#x748;" horiz-adv-x="0" 
d="M310 -372l-58 -65l-598 375l58 62z" />
    <glyph glyph-name="U0749" unicode="&#x749;" horiz-adv-x="0" 
d="M502 363l-490 -343l-1 50l491 345v-52z" />
    <glyph glyph-name="U074a" unicode="&#x74a;" horiz-adv-x="0" 
d="M296 275q0 -25 -24 -25q-23 0 -23 25q0 24 23 24q24 0 24 -24zM148 272q0 -23 -23 -23q-25 0 -25 23q0 25 25 25q23 0 23 -25zM296 120q0 -25 -24 -25q-23 0 -23 25q0 24 23 24q24 0 24 -24zM391 174h-174v-174h-44v174h-172v44h172v172h44v-172h174v-44zM148 120
q0 -25 -26 -25q-24 0 -24 25q0 24 24 24q26 0 26 -24z" />
    <glyph glyph-name="U1e06" unicode="&#x1e06;" horiz-adv-x="1284" 
d="M1134 321q0 -136 -104 -230q-100 -91 -238 -91l-586 -1q-56 0 -56 42q0 43 56 43h71v1002h-71q-56 0 -56 43q0 42 56 42l486 -1q141 0 243 -80q111 -86 111 -223q0 -154 -165 -249q253 -91 253 -297zM949 -243q0 -42 -54 -42h-491q-53 0 -53 42q0 43 56 43h486
q56 0 56 -43zM961 874q0 96 -89 157q-78 55 -178 55h-333v-436h297q118 0 202 52q101 61 101 172zM1049 319q0 64 -44 124q-91 122 -342 122h-302v-481h425q104 0 181 65q82 68 82 170z" />
    <glyph glyph-name="U1e07" unicode="&#x1e07;" horiz-adv-x="1229" 
d="M1127 375q0 -176 -123.5 -298t-299.5 -122q-218 0 -347 178v-133h-155q-56 0 -56 42q0 43 56 43h71v1079h-71q-56 0 -56 43q0 42 56 42h155l1 -632q129 177 346 177q176 0 299.5 -122t123.5 -297zM989 -243q0 -42 -54 -42h-491q-53 0 -53 42q0 43 56 43h486q56 0 56 -43z
M1051 375q0 144 -102 243.5t-246 99.5q-143 0 -245 -100t-102 -243q0 -144 101.5 -243.5t245.5 -99.5q145 0 246.5 99.5t101.5 243.5z" />
    <glyph glyph-name="U1e0c" unicode="&#x1e0c;" horiz-adv-x="1283" 
d="M1134 527q0 -207 -133 -363q-139 -164 -343 -164l-452 -1q-17 2 -43 12q-13 12 -13 30q0 43 56 43h71v1000h-71q-56 0 -56 43q0 42 56 42l452 1q316 0 447 -345q29 -76 29 -298zM692 -277q0 -32 -22.5 -54.5t-54.5 -22.5t-54.5 22.5t-22.5 54.5t22.5 54.5t54.5 22.5
t54.5 -22.5t22.5 -54.5zM1050 509v152q0 159 -111 289q-116 136 -273 136h-305v-1002h305q155 0 272 136q112 131 112 289z" />
    <glyph glyph-name="U1e0d" unicode="&#x1e0d;" horiz-adv-x="1229" 
d="M1130 42q0 -42 -56 -42h-155v133q-129 -178 -347 -178q-176 0 -299.5 122t-123.5 298q0 175 123.5 297t299.5 122q217 0 346 -177l1 547h-71q-56 0 -56 43q0 42 56 42l155 -1v-1163h71q56 0 56 -43zM661 -277q0 -32 -22.5 -54.5t-54.5 -22.5t-54.5 22.5t-22.5 54.5
t22.5 54.5t54.5 22.5t54.5 -22.5t22.5 -54.5zM920 375q0 143 -102 243t-245 100q-144 0 -246 -99.5t-102 -243.5t101.5 -243.5t246.5 -99.5q144 0 245.5 99.5t101.5 243.5z" />
    <glyph glyph-name="U1e0e" unicode="&#x1e0e;" horiz-adv-x="1283" 
d="M1134 527q0 -207 -133 -363q-139 -164 -343 -164l-452 -1q-17 2 -43 12q-13 12 -13 30q0 43 56 43h71v1000h-71q-56 0 -56 43q0 42 56 42l452 1q316 0 447 -345q29 -76 29 -298zM949 -243q0 -42 -54 -42h-491q-53 0 -53 42q0 43 56 43h486q56 0 56 -43zM1050 509v152
q0 159 -111 289q-116 136 -273 136h-305v-1002h305q155 0 272 136q112 131 112 289z" />
    <glyph glyph-name="U1e0f" unicode="&#x1e0f;" horiz-adv-x="1229" 
d="M1130 42q0 -42 -56 -42h-155v133q-129 -178 -347 -178q-176 0 -299.5 122t-123.5 298q0 175 123.5 297t299.5 122q217 0 346 -177l1 547h-71q-56 0 -56 43q0 42 56 42l155 -1v-1163h71q56 0 56 -43zM929 -243q0 -42 -54 -42h-491q-53 0 -53 42q0 43 56 43h486
q56 0 56 -43zM920 375q0 143 -102 243t-245 100q-144 0 -246 -99.5t-102 -243.5t101.5 -243.5t246.5 -99.5q144 0 245.5 99.5t101.5 243.5z" />
    <glyph glyph-name="U1e24" unicode="&#x1e24;" horiz-adv-x="1278" 
d="M1130 41q0 -42 -56 -42h-226q-56 0 -56 42q0 43 56 43h70v482h-557v-482h71q56 0 56 -43q0 -42 -56 -42h-226q-56 0 -56 42q0 43 56 43h71v1002h-71q-56 0 -56 43q0 42 56 42h226q56 0 56 -42q0 -43 -56 -43h-71v-436h557l1 436h-71q-56 0 -56 43q0 42 56 42h226
q56 0 56 -42q0 -43 -56 -43h-71v-1002h71q56 0 56 -43zM722 -277q0 -32 -22.5 -54.5t-54.5 -22.5t-54.5 22.5t-22.5 54.5t22.5 54.5t54.5 22.5t54.5 -22.5t22.5 -54.5z" />
    <glyph glyph-name="U1e25" unicode="&#x1e25;" horiz-adv-x="1284" 
d="M1134 41q0 -42 -56 -42h-226q-56 0 -56 42q0 43 56 43h71l-1 385q0 102 -75 160q-68 53 -173 53q-97 0 -177 -60q-38 -29 -135 -136v-402h71q56 0 56 -43q0 -42 -56 -42h-226q-56 0 -56 42q0 43 56 43h71v1086h-71q-56 0 -56 43q0 42 56 42h155v-647q145 158 318 158
q134 0 227 -77q100 -82 100 -214v-391h71q56 0 56 -43zM732 -277q0 -32 -22.5 -54.5t-54.5 -22.5t-54.5 22.5t-22.5 54.5t22.5 54.5t54.5 22.5t54.5 -22.5t22.5 -54.5z" />
    <glyph glyph-name="U1e34" unicode="&#x1e34;" horiz-adv-x="1320" 
d="M1170 41q0 -42 -56 -42l-266 1q-56 0 -56 42q0 43 56 43h71l-408 525l-169 -152v-374h71q56 0 56 -43q0 -42 -56 -42h-226q-56 0 -56 42q0 43 56 43h71v1002h-71q-56 0 -56 43q0 42 56 42h226q56 0 56 -42q0 -43 -56 -43h-71v-517l580 517h-71q-56 0 -56 43q0 42 56 42
h263q56 0 56 -42q0 -43 -56 -43h-71l-462 -413l462 -589h71q56 0 56 -43zM929 -243q0 -42 -54 -42h-492q-52 0 -52 42q0 43 56 43h486q56 0 56 -43z" />
    <glyph glyph-name="U1e35" unicode="&#x1e35;" horiz-adv-x="1214" 
d="M1065 41q0 -42 -56 -42h-258q-56 0 -56 42q0 43 56 43h71l-361 371l-96 -81l1 -290h71q56 0 56 -43q0 -42 -56 -42h-228q-56 0 -56 42q0 43 56 43h71l1 1086h-71q-56 0 -56 43q0 42 56 42h155v-774l357 300h-71q-56 0 -56 43q0 42 56 42h271q56 0 56 -42q0 -43 -56 -43
h-71l-328 -274l415 -423h71q56 0 56 -43zM885 -243q0 -42 -54 -42h-492q-52 0 -52 42q0 43 56 43h486q56 0 56 -43z" />
    <glyph glyph-name="U1e62" unicode="&#x1e62;" horiz-adv-x="1229" 
d="M1044 314q0 -165 -134 -261q-120 -86 -291 -86q-219 0 -350 137q0 -58 -1 -65q-7 -39 -41 -39q-42 0 -42 56v232q0 57 42 57q18 0 30 -12q9 -38 19 -76q19 -72 92 -130q93 -76 251 -76q134 0 230 64q111 74 111 202q0 157 -190 214q-176 42 -352 85q-190 70 -190 259
q0 149 121 240q109 82 263 82q176 0 303 -111q0 84 42 84t42 -56v-214q0 -56 -42 -56q-18 0 -29 12q-1 1 -19 71q-16 66 -80 119q-82 67 -214 67q-119 0 -205 -59q-98 -67 -98 -181q0 -150 190 -203l352 -82q190 -73 190 -274zM702 -277q0 -32 -22.5 -54.5t-54.5 -22.5
t-54.5 22.5t-22.5 54.5t22.5 54.5t54.5 22.5t54.5 -22.5t22.5 -54.5z" />
    <glyph glyph-name="U1e63" unicode="&#x1e63;" horiz-adv-x="1034" 
d="M886 215q0 -126 -127 -193q-102 -54 -239 -54q-180 0 -294 91q0 -62 -38 -62t-38 51v156q0 51 38 51q29 0 39 -43q14 -60 20 -68q72 -101 270 -101q103 0 185 35q108 47 108 137q0 109 -161 146q-150 27 -299 54q-161 46 -161 179q0 107 114 166q91 46 210 46
q157 0 255 -77q0 50 38 50q39 0 39 -51v-130q0 -51 -39 -51q-27 0 -38 45q-15 58 -56 87q-72 50 -196 50q-84 0 -155 -28q-95 -38 -95 -110q0 -80 118 -109l246 -40q154 -30 213 -106q43 -56 43 -121zM602 -277q0 -32 -22.5 -54.5t-54.5 -22.5t-54.5 22.5t-22.5 54.5
t22.5 54.5t54.5 22.5t54.5 -22.5t22.5 -54.5z" />
    <glyph glyph-name="U1e6c" unicode="&#x1e6c;" horiz-adv-x="1241" 
d="M1091 1014q0 -56 -42 -56q-43 0 -43 54v2l1 71h-344v-1002h71q56 0 56 -43q0 -42 -56 -42h-226q-56 0 -56 42q0 43 56 43h71l-1 1002h-344l1 -71v-2q0 -54 -43 -54q-42 0 -42 56v155h941v-155zM702 -277q0 -32 -22.5 -54.5t-54.5 -22.5t-54.5 22.5t-22.5 54.5t22.5 54.5
t54.5 22.5t54.5 -22.5t22.5 -54.5z" />
    <glyph glyph-name="U1e6d" unicode="&#x1e6d;" horiz-adv-x="1101" 
d="M1023 105q0 -49 -128 -99q-99 -39 -187 -39q-125 0 -209 64q-92 70 -92 191l-1 455h-205q-56 0 -56 43q0 42 56 42h205l1 352q0 56 42 56q43 0 43 -56l-1 -352h406q56 0 56 -43q0 -42 -56 -42h-406l1 -455q0 -82 66 -129q59 -42 144 -42q37 0 134 26q21 5 83 39
q58 31 64 31q40 0 40 -42zM652 -277q0 -32 -22.5 -54.5t-54.5 -22.5t-54.5 22.5t-22.5 54.5t22.5 54.5t54.5 22.5t54.5 -22.5t22.5 -54.5z" />
    <glyph glyph-name="U1e6e" unicode="&#x1e6e;" horiz-adv-x="1241" 
d="M1091 1014q0 -56 -42 -56q-43 0 -43 54v2l1 71h-344v-1002h71q56 0 56 -43q0 -42 -56 -42h-226q-56 0 -56 42q0 43 56 43h71l-1 1002h-344l1 -71v-2q0 -54 -43 -54q-42 0 -42 56v155h941v-155zM935 -243q0 -42 -54 -42h-492q-52 0 -52 42q0 43 56 43h486q56 0 56 -43z
" />
    <glyph glyph-name="U1e6f" unicode="&#x1e6f;" horiz-adv-x="1101" 
d="M1023 105q0 -49 -128 -99q-99 -39 -187 -39q-125 0 -209 64q-92 70 -92 191l-1 455h-205q-56 0 -56 43q0 42 56 42h205l1 352q0 56 42 56q43 0 43 -56l-1 -352h406q56 0 56 -43q0 -42 -56 -42h-406l1 -455q0 -82 66 -129q59 -42 144 -42q37 0 134 26q21 5 83 39
q58 31 64 31q40 0 40 -42zM895 -243q0 -42 -54 -42h-492q-52 0 -52 42q0 43 56 43h486q56 0 56 -43z" />
    <glyph glyph-name="U1e92" unicode="&#x1e92;" horiz-adv-x="1109" 
d="M959 0h-809v122l682 964h-560l1 -71v-2q0 -54 -43 -54q-42 0 -42 56v155h725v-119l-682 -967h644l-1 71v2q0 54 43 54q42 0 42 -56v-155zM642 -277q0 -32 -22.5 -54.5t-54.5 -22.5t-54.5 22.5t-22.5 54.5t22.5 54.5t54.5 22.5t54.5 -22.5t22.5 -54.5z" />
    <glyph glyph-name="U1e93" unicode="&#x1e93;" horiz-adv-x="1015" 
d="M864 0h-714v75l575 602h-468q0 -77 1 -77v1q-6 -51 -44 -51q-42 0 -42 53v159h672v-75l-578 -603l513 1q0 77 -1 77v-1q6 51 44 51q42 0 42 -53v-159zM612 -277q0 -32 -22.5 -54.5t-54.5 -22.5t-54.5 22.5t-22.5 54.5t22.5 54.5t54.5 22.5t54.5 -22.5t22.5 -54.5z" />
    <glyph glyph-name="U200c" unicode="&#x200c;" horiz-adv-x="1318" 
d="M422 966q0 -28 -19.5 -48t-47.5 -20q-29 0 -48.5 20t-19.5 48t19.5 48t48.5 20q28 0 47.5 -20t19.5 -48zM540 762q0 -29 -20 -48.5t-48 -19.5t-48 19.5t-20 48.5q0 28 20 47.5t48 19.5t48 -19.5t20 -47.5zM312 762q0 -29 -20 -48.5t-48 -19.5t-48 19.5t-20 48.5
q0 28 20 47.5t48 19.5t48 -19.5t20 -47.5zM1288 -12q-191 69 -284 170l-8 -158h-169l1 -117q0 -31 -12 -31q-13 0 -16 30l-46 560h-127q0 -218 -35 -305q-58 -145 -237 -145q-131 0 -212 82q-84 84 -84 224q0 100 56 193q65 109 160 109h436q41 0 68 23t31 23q10 0 10 -30
l5 -458h118l17 221q83 -77 247 -188q26 -16 53.5 -33t27.5 -32v-138zM422 -152q0 -28 -19.5 -48t-47.5 -20q-29 0 -48.5 20t-19.5 48t19.5 48t48.5 20q28 0 47.5 -20t19.5 -48zM525 360q0 34 -9 82h-236q-38 0 -64 -41q-23 -36 -23 -72q0 -65 46 -120q49 -59 115 -59
q171 0 171 210z" />
    <glyph glyph-name="U200d" unicode="&#x200d;" horiz-adv-x="41" 
d="M144 1180l-27 -27l-76 76v-1345h-41v1345l-76 -76l-27 27l97 96l-97 97l27 27l97 -97l96 97l27 -27l-96 -97z" />
    <glyph glyph-name="U200e" unicode="&#x200e;" horiz-adv-x="41" 
d="M273 1276l-123 -124l-28 28l77 77h-158v-1373h-41v1414h196l-74 74l28 28z" />
    <glyph glyph-name="U200f" unicode="&#x200f;" horiz-adv-x="41" 
d="M41 -116h-41v1373h-159l78 -77l-28 -28l-124 124l124 124l28 -28l-74 -74h196v-1414z" />
    <glyph glyph-name="hyphen" unicode="&#x2010;" horiz-adv-x="450" 
d="M57 210v68h334v-68h-334z" />
    <glyph glyph-name="endash" unicode="&#x2013;" 
d="M1041 453h-1059v73h1059v-73z" />
    <glyph glyph-name="quoteleft" unicode="&#x2018;" horiz-adv-x="500" 
d="M359 1033q-84 -40 -84 -110q74 -19 74 -101q0 -41 -28 -70.5t-69 -29.5q-47 0 -76 38q-26 34 -26 83q0 181 183 324q0 -117 26 -134z" />
    <glyph glyph-name="quoteright" unicode="&#x2019;" horiz-adv-x="500" 
d="M349 1040q0 -181 -183 -324q0 117 -26 135q84 39 84 109q-74 20 -74 101q0 42 28 71t69 29q102 0 102 -121z" />
    <glyph glyph-name="quotedblleft" unicode="&#x201c;" horiz-adv-x="745" 
d="M603 1033q-84 -40 -84 -110q74 -19 74 -101q0 -41 -28.5 -70.5t-68.5 -29.5q-48 0 -76 38q-26 34 -26 83q0 181 183 324q0 -117 26 -134zM359 1033q-84 -40 -84 -110q74 -19 74 -101q0 -41 -28 -70.5t-69 -29.5q-47 0 -76 38q-26 34 -26 83q0 181 183 324q0 -117 26 -134
z" />
    <glyph glyph-name="quotedblright" unicode="&#x201d;" horiz-adv-x="743" 
d="M593 1040q0 -181 -183 -324q0 117 -26 135q84 39 84 109q-74 20 -74 101q0 42 28 71t69 29q102 0 102 -121zM349 1040q0 -181 -183 -324q0 117 -26 135q84 39 84 109q-74 20 -74 101q0 42 28 71t69 29q102 0 102 -121z" />
    <glyph glyph-name="bullet" unicode="&#x2022;" horiz-adv-x="717" 
d="M363 928q105 0 178 -73t73 -178t-73 -178t-178 -73t-178 73t-73 178t73 178t178 73z" />
    <glyph glyph-name="bulletmath" unicode="&#x2219;" horiz-adv-x="717" 
d="M363 928q105 0 178 -73t73 -178t-73 -178t-178 -73t-178 73t-73 178t73 178t178 73z" />
    <glyph glyph-name="U25cc" unicode="&#x25cc;" horiz-adv-x="888" 
d="M790 613q0 -35 -36 -35q-38 0 -38 35q0 36 38 36q36 0 36 -36zM681 685q0 -36 -36 -36q-38 0 -38 36q0 38 38 38q36 0 36 -38zM863 504q0 -37 -37 -37q-36 0 -36 37q0 36 37 36q36 0 36 -36zM552 712q0 -37 -36 -37t-36 37q0 36 36 36t36 -36zM888 376q0 -36 -35 -36
q-38 0 -38 36t38 36q35 0 35 -36zM425 685q0 -36 -37 -36q-36 0 -36 36q0 38 36 38q37 0 37 -38zM863 247q0 -35 -37 -35q-36 0 -36 35q0 38 36 38q37 0 37 -38zM316 613q0 -35 -37 -35q-36 0 -36 34q0 37 36 37q37 0 37 -36zM790 138q0 -36 -36 -36t-36 36q0 38 36 38
t36 -38zM681 67q0 -36 -36 -36t-36 36q0 37 36 37t36 -37zM243 504q0 -37 -34 -37q-38 0 -38 37q0 36 36 36t36 -36zM218 376q0 -36 -36 -36q-38 0 -38 36t38 36q36 0 36 -36zM552 41q0 -37 -36 -37t-36 37q0 36 36 36t36 -36zM425 68q0 -37 -37 -37q-36 0 -36 36
q0 37 36 37q37 0 37 -36zM243 247q0 -35 -36 -35t-36 35q0 38 36 38t36 -38zM316 138q0 -36 -36 -36q-37 0 -37 36q0 38 36 38q37 0 37 -38z" />
    <glyph glyph-name="U2670" unicode="&#x2670;" horiz-adv-x="599" 
d="M617 910l-355 -221v52l355 222v-53zM617 809l-355 -222v53l355 223v-54zM617 709l-355 -220v54l355 222v-56z" />
    <glyph glyph-name="U2671" unicode="&#x2671;" horiz-adv-x="596" 
d="M617 910l-355 -221v52l355 222v-53zM617 809l-355 -222v53l355 223v-54z" />
    <glyph glyph-name="glyph4" horiz-adv-x="681" 
 />
    <glyph glyph-name="glyph5" horiz-adv-x="681" 
 />
  </font>
</defs>
</svg>
